STARTFONT 2.1
FONT -FontForge-Inter Thin-Thin-R-Normal--10-100-75-75-P-56-ISO10646-1
SIZE 10 75 75
FONTBOUNDINGBOX 33 16 -7 -4
COMMENT "Generated by fontforge, http://fontforge.sourceforge.net"
COMMENT "Copyright (c) 2020 The Inter Project Authors"
STARTPROPERTIES 39
FOUNDRY "FontForge"
FAMILY_NAME "Inter Thin"
WEIGHT_NAME "Thin"
SLANT "R"
SETWIDTH_NAME "Normal"
ADD_STYLE_NAME ""
PIXEL_SIZE 10
POINT_SIZE 100
RESOLUTION_X 75
RESOLUTION_Y 75
SPACING "P"
AVERAGE_WIDTH 56
CHARSET_REGISTRY "ISO10646"
CHARSET_ENCODING "1"
FONTNAME_REGISTRY ""
CHARSET_COLLECTIONS "ISO8859-2 ISO8859-5 ISO8859-7 ISO8859-9 ISO8859-4 ISO10646-1"
FONT_NAME "Inter-Thin"
FACE_NAME "Inter Thin"
COPYRIGHT "Copyright (c) 2020 The Inter Project Authors"
FONT_VERSION "3.019;git-0a5106e0b"
FONT_ASCENT 8
FONT_DESCENT 2
UNDERLINE_POSITION -2
UNDERLINE_THICKNESS 1
X_HEIGHT 5
CAP_HEIGHT 7
RAW_ASCENT 799
RAW_DESCENT 200
NORM_SPACE 3
RELATIVE_WEIGHT 10
RELATIVE_SETWIDTH 50
SUPERSCRIPT_X 0
SUPERSCRIPT_Y 3
SUPERSCRIPT_SIZE 6
SUBSCRIPT_X 0
SUBSCRIPT_Y 0
SUBSCRIPT_SIZE 6
AVG_LOWERCASE_WIDTH 52
AVG_UPPERCASE_WIDTH 72
ENDPROPERTIES
CHARS 2564
STARTCHAR uni0020
ENCODING 32
SWIDTH 281 0
DWIDTH 3 0
BBX 1 1 0 0
BITMAP
00
ENDCHAR
STARTCHAR uni0021
ENCODING 33
SWIDTH 261 0
DWIDTH 3 0
BBX 1 8 1 0
BITMAP
80
80
80
80
80
80
00
80
ENDCHAR
STARTCHAR uni0022
ENCODING 34
SWIDTH 340 0
DWIDTH 3 0
BBX 2 2 1 6
BITMAP
C0
C0
ENDCHAR
STARTCHAR uni0023
ENCODING 35
SWIDTH 633 0
DWIDTH 6 0
BBX 6 8 0 0
BITMAP
28
28
7C
48
48
FC
48
50
ENDCHAR
STARTCHAR uni0024
ENCODING 36
SWIDTH 612 0
DWIDTH 6 0
BBX 4 10 1 -1
BITMAP
20
F0
B0
A0
40
30
30
B0
F0
20
ENDCHAR
STARTCHAR uni0025
ENCODING 37
SWIDTH 772 0
DWIDTH 8 0
BBX 6 8 1 0
BITMAP
C4
A8
B0
D0
28
54
54
9C
ENDCHAR
STARTCHAR uni0026
ENCODING 38
SWIDTH 583 0
DWIDTH 6 0
BBX 5 8 1 0
BITMAP
E0
90
A0
40
C0
A8
90
F8
ENDCHAR
STARTCHAR uni0027
ENCODING 39
SWIDTH 204 0
DWIDTH 2 0
BBX 1 2 1 6
BITMAP
80
80
ENDCHAR
STARTCHAR uni0028
ENCODING 40
SWIDTH 315 0
DWIDTH 3 0
BBX 1 10 1 -2
BITMAP
80
80
80
80
80
80
80
80
80
80
ENDCHAR
STARTCHAR uni0029
ENCODING 41
SWIDTH 315 0
DWIDTH 3 0
BBX 1 10 1 -2
BITMAP
80
80
80
80
80
80
80
80
80
80
ENDCHAR
STARTCHAR uni002A
ENCODING 42
SWIDTH 500 0
DWIDTH 5 0
BBX 3 4 1 4
BITMAP
40
E0
E0
40
ENDCHAR
STARTCHAR uni002B
ENCODING 43
SWIDTH 636 0
DWIDTH 6 0
BBX 4 5 1 1
BITMAP
20
20
F0
20
20
ENDCHAR
STARTCHAR uni002C
ENCODING 44
SWIDTH 256 0
DWIDTH 3 0
BBX 1 3 1 -2
BITMAP
80
80
80
ENDCHAR
STARTCHAR uni002D
ENCODING 45
SWIDTH 438 0
DWIDTH 4 0
BBX 3 1 1 3
BITMAP
E0
ENDCHAR
STARTCHAR uni002E
ENCODING 46
SWIDTH 252 0
DWIDTH 3 0
BBX 1 1 1 0
BITMAP
80
ENDCHAR
STARTCHAR uni002F
ENCODING 47
SWIDTH 323 0
DWIDTH 3 0
BBX 3 10 0 -1
BITMAP
20
20
20
20
40
40
40
40
80
80
ENDCHAR
STARTCHAR uni0030
ENCODING 48
SWIDTH 590 0
DWIDTH 6 0
BBX 4 8 1 0
BITMAP
E0
90
90
90
90
90
90
E0
ENDCHAR
STARTCHAR uni0031
ENCODING 49
SWIDTH 407 0
DWIDTH 4 0
BBX 2 8 1 0
BITMAP
C0
40
40
40
40
40
40
40
ENDCHAR
STARTCHAR uni0032
ENCODING 50
SWIDTH 620 0
DWIDTH 6 0
BBX 4 8 1 0
BITMAP
F0
90
10
10
20
40
40
F0
ENDCHAR
STARTCHAR uni0033
ENCODING 51
SWIDTH 613 0
DWIDTH 6 0
BBX 4 8 1 0
BITMAP
F0
90
10
20
10
10
90
F0
ENDCHAR
STARTCHAR uni0034
ENCODING 52
SWIDTH 595 0
DWIDTH 6 0
BBX 4 8 1 0
BITMAP
10
20
50
50
90
90
F0
10
ENDCHAR
STARTCHAR uni0035
ENCODING 53
SWIDTH 571 0
DWIDTH 6 0
BBX 4 8 1 0
BITMAP
F0
80
80
E0
10
10
90
E0
ENDCHAR
STARTCHAR uni0036
ENCODING 54
SWIDTH 582 0
DWIDTH 6 0
BBX 4 8 1 0
BITMAP
F0
90
80
E0
90
90
90
F0
ENDCHAR
STARTCHAR uni0037
ENCODING 55
SWIDTH 547 0
DWIDTH 5 0
BBX 4 8 1 0
BITMAP
F0
10
20
20
40
40
80
80
ENDCHAR
STARTCHAR uni0038
ENCODING 56
SWIDTH 602 0
DWIDTH 6 0
BBX 4 8 1 0
BITMAP
F0
90
90
60
90
90
90
F0
ENDCHAR
STARTCHAR uni0039
ENCODING 57
SWIDTH 582 0
DWIDTH 6 0
BBX 4 8 1 0
BITMAP
E0
90
90
90
70
10
90
E0
ENDCHAR
STARTCHAR uni003A
ENCODING 58
SWIDTH 252 0
DWIDTH 3 0
BBX 1 5 1 0
BITMAP
80
00
00
00
80
ENDCHAR
STARTCHAR uni003B
ENCODING 59
SWIDTH 258 0
DWIDTH 3 0
BBX 1 7 1 -2
BITMAP
80
00
00
00
80
80
80
ENDCHAR
STARTCHAR uni003C
ENCODING 60
SWIDTH 636 0
DWIDTH 6 0
BBX 4 5 1 0
BITMAP
30
40
C0
20
10
ENDCHAR
STARTCHAR uni003D
ENCODING 61
SWIDTH 636 0
DWIDTH 6 0
BBX 4 3 1 2
BITMAP
F0
00
F0
ENDCHAR
STARTCHAR uni003E
ENCODING 62
SWIDTH 636 0
DWIDTH 6 0
BBX 4 5 1 0
BITMAP
C0
30
10
60
80
ENDCHAR
STARTCHAR uni003F
ENCODING 63
SWIDTH 478 0
DWIDTH 5 0
BBX 4 8 0 0
BITMAP
70
90
10
10
20
20
00
20
ENDCHAR
STARTCHAR uni0040
ENCODING 64
SWIDTH 936 0
DWIDTH 9 0
BBX 9 10 0 -2
BITMAP
3E00
4100
4E80
9280
A280
A280
A280
5D00
4000
3E00
ENDCHAR
STARTCHAR uni0041
ENCODING 65
SWIDTH 616 0
DWIDTH 6 0
BBX 6 8 0 0
BITMAP
20
30
30
48
48
78
84
84
ENDCHAR
STARTCHAR uni0042
ENCODING 66
SWIDTH 640 0
DWIDTH 6 0
BBX 5 8 1 0
BITMAP
F0
88
88
F0
88
88
88
F0
ENDCHAR
STARTCHAR uni0043
ENCODING 67
SWIDTH 723 0
DWIDTH 7 0
BBX 6 8 1 0
BITMAP
78
84
84
80
80
84
84
78
ENDCHAR
STARTCHAR uni0044
ENCODING 68
SWIDTH 714 0
DWIDTH 7 0
BBX 5 8 1 0
BITMAP
F0
88
88
88
88
88
88
F0
ENDCHAR
STARTCHAR uni0045
ENCODING 69
SWIDTH 583 0
DWIDTH 6 0
BBX 4 8 1 0
BITMAP
F0
80
80
80
F0
80
80
F0
ENDCHAR
STARTCHAR uni0046
ENCODING 70
SWIDTH 585 0
DWIDTH 6 0
BBX 4 8 1 0
BITMAP
F0
80
80
80
F0
80
80
80
ENDCHAR
STARTCHAR uni0047
ENCODING 71
SWIDTH 738 0
DWIDTH 7 0
BBX 6 8 1 0
BITMAP
78
84
84
80
9C
84
84
78
ENDCHAR
STARTCHAR uni0048
ENCODING 72
SWIDTH 735 0
DWIDTH 7 0
BBX 5 8 1 0
BITMAP
88
88
88
88
F8
88
88
88
ENDCHAR
STARTCHAR uni0049
ENCODING 73
SWIDTH 250 0
DWIDTH 3 0
BBX 1 8 1 0
BITMAP
80
80
80
80
80
80
80
80
ENDCHAR
STARTCHAR uni004A
ENCODING 74
SWIDTH 519 0
DWIDTH 5 0
BBX 3 8 1 0
BITMAP
20
20
20
20
20
20
A0
E0
ENDCHAR
STARTCHAR uni004B
ENCODING 75
SWIDTH 616 0
DWIDTH 6 0
BBX 5 8 1 0
BITMAP
88
90
A0
C0
C0
A0
90
88
ENDCHAR
STARTCHAR uni004C
ENCODING 76
SWIDTH 562 0
DWIDTH 6 0
BBX 4 8 1 0
BITMAP
80
80
80
80
80
80
80
F0
ENDCHAR
STARTCHAR uni004D
ENCODING 77
SWIDTH 863 0
DWIDTH 9 0
BBX 7 8 1 0
BITMAP
82
82
86
C6
CA
AA
B2
92
ENDCHAR
STARTCHAR uni004E
ENCODING 78
SWIDTH 772 0
DWIDTH 8 0
BBX 6 8 1 0
BITMAP
84
84
C4
A4
94
94
8C
84
ENDCHAR
STARTCHAR uni004F
ENCODING 79
SWIDTH 747 0
DWIDTH 7 0
BBX 6 8 1 0
BITMAP
78
84
84
84
84
84
84
78
ENDCHAR
STARTCHAR uni0050
ENCODING 80
SWIDTH 606 0
DWIDTH 6 0
BBX 4 8 1 0
BITMAP
F0
90
90
90
E0
80
80
80
ENDCHAR
STARTCHAR uni0051
ENCODING 81
SWIDTH 747 0
DWIDTH 7 0
BBX 6 8 1 0
BITMAP
78
84
84
84
84
94
94
7C
ENDCHAR
STARTCHAR uni0052
ENCODING 82
SWIDTH 615 0
DWIDTH 6 0
BBX 5 8 1 0
BITMAP
F0
88
88
90
E0
90
90
88
ENDCHAR
STARTCHAR uni0053
ENCODING 83
SWIDTH 612 0
DWIDTH 6 0
BBX 4 8 1 0
BITMAP
F0
90
80
40
30
10
90
F0
ENDCHAR
STARTCHAR uni0054
ENCODING 84
SWIDTH 613 0
DWIDTH 6 0
BBX 5 8 1 0
BITMAP
F8
20
20
20
20
20
20
20
ENDCHAR
STARTCHAR uni0055
ENCODING 85
SWIDTH 750 0
DWIDTH 8 0
BBX 5 8 1 0
BITMAP
88
88
88
88
88
88
88
78
ENDCHAR
STARTCHAR uni0056
ENCODING 86
SWIDTH 616 0
DWIDTH 6 0
BBX 6 8 0 0
BITMAP
84
84
48
48
48
30
30
20
ENDCHAR
STARTCHAR uni0057
ENCODING 87
SWIDTH 892 0
DWIDTH 9 0
BBX 9 8 0 0
BITMAP
8880
8880
5500
5500
5500
5500
2200
2200
ENDCHAR
STARTCHAR uni0058
ENCODING 88
SWIDTH 585 0
DWIDTH 6 0
BBX 6 8 0 0
BITMAP
84
48
50
20
20
30
48
84
ENDCHAR
STARTCHAR uni0059
ENCODING 89
SWIDTH 613 0
DWIDTH 6 0
BBX 6 8 0 0
BITMAP
84
48
28
30
10
10
10
10
ENDCHAR
STARTCHAR uni005A
ENCODING 90
SWIDTH 605 0
DWIDTH 6 0
BBX 4 8 1 0
BITMAP
F0
10
20
20
40
40
80
F0
ENDCHAR
STARTCHAR uni005B
ENCODING 91
SWIDTH 315 0
DWIDTH 3 0
BBX 2 11 1 -2
BITMAP
C0
80
80
80
80
80
80
80
80
80
C0
ENDCHAR
STARTCHAR uni005C
ENCODING 92
SWIDTH 323 0
DWIDTH 3 0
BBX 3 10 0 -1
BITMAP
80
80
80
40
40
40
40
20
20
20
ENDCHAR
STARTCHAR uni005D
ENCODING 93
SWIDTH 315 0
DWIDTH 3 0
BBX 1 11 1 -2
BITMAP
80
80
80
80
80
80
80
80
80
80
80
ENDCHAR
STARTCHAR uni005E
ENCODING 94
SWIDTH 400 0
DWIDTH 4 0
BBX 4 4 0 4
BITMAP
40
20
60
90
ENDCHAR
STARTCHAR uni005F
ENCODING 95
SWIDTH 426 0
DWIDTH 4 0
BBX 4 1 0 -1
BITMAP
F0
ENDCHAR
STARTCHAR uni0060
ENCODING 96
SWIDTH 497 0
DWIDTH 5 0
BBX 1 2 2 7
BITMAP
80
80
ENDCHAR
STARTCHAR uni0061
ENCODING 97
SWIDTH 541 0
DWIDTH 5 0
BBX 3 6 1 0
BITMAP
E0
20
60
A0
A0
E0
ENDCHAR
STARTCHAR uni0062
ENCODING 98
SWIDTH 598 0
DWIDTH 6 0
BBX 4 8 1 0
BITMAP
80
80
F0
90
90
90
90
F0
ENDCHAR
STARTCHAR uni0063
ENCODING 99
SWIDTH 552 0
DWIDTH 6 0
BBX 4 6 1 0
BITMAP
E0
90
80
80
90
F0
ENDCHAR
STARTCHAR uni0064
ENCODING 100
SWIDTH 598 0
DWIDTH 6 0
BBX 4 8 1 0
BITMAP
10
10
F0
90
90
90
90
F0
ENDCHAR
STARTCHAR uni0065
ENCODING 101
SWIDTH 576 0
DWIDTH 6 0
BBX 4 6 1 0
BITMAP
F0
90
F0
80
80
F0
ENDCHAR
STARTCHAR uni0066
ENCODING 102
SWIDTH 330 0
DWIDTH 3 0
BBX 2 8 1 0
BITMAP
C0
80
C0
80
80
80
80
80
ENDCHAR
STARTCHAR uni0067
ENCODING 103
SWIDTH 583 0
DWIDTH 6 0
BBX 4 8 1 -2
BITMAP
F0
90
90
90
90
F0
10
F0
ENDCHAR
STARTCHAR uni0068
ENCODING 104
SWIDTH 568 0
DWIDTH 6 0
BBX 4 8 1 0
BITMAP
80
80
E0
90
90
90
90
90
ENDCHAR
STARTCHAR uni0069
ENCODING 105
SWIDTH 221 0
DWIDTH 2 0
BBX 1 6 1 0
BITMAP
80
80
80
80
80
80
ENDCHAR
STARTCHAR uni006A
ENCODING 106
SWIDTH 221 0
DWIDTH 2 0
BBX 1 8 0 -2
BITMAP
80
80
80
80
80
80
80
80
ENDCHAR
STARTCHAR uni006B
ENCODING 107
SWIDTH 487 0
DWIDTH 5 0
BBX 4 8 1 0
BITMAP
80
80
A0
C0
80
C0
A0
90
ENDCHAR
STARTCHAR uni006C
ENCODING 108
SWIDTH 215 0
DWIDTH 2 0
BBX 1 8 1 0
BITMAP
80
80
80
80
80
80
80
80
ENDCHAR
STARTCHAR uni006D
ENCODING 109
SWIDTH 835 0
DWIDTH 8 0
BBX 6 6 1 0
BITMAP
FC
94
94
94
94
94
ENDCHAR
STARTCHAR uni006E
ENCODING 110
SWIDTH 568 0
DWIDTH 6 0
BBX 4 6 1 0
BITMAP
E0
90
90
90
90
90
ENDCHAR
STARTCHAR uni006F
ENCODING 111
SWIDTH 579 0
DWIDTH 6 0
BBX 4 6 1 0
BITMAP
E0
90
90
90
90
F0
ENDCHAR
STARTCHAR uni0070
ENCODING 112
SWIDTH 580 0
DWIDTH 6 0
BBX 4 8 1 -2
BITMAP
F0
90
90
90
90
F0
80
80
ENDCHAR
STARTCHAR uni0071
ENCODING 113
SWIDTH 580 0
DWIDTH 6 0
BBX 4 8 1 -2
BITMAP
F0
90
90
90
90
F0
10
10
ENDCHAR
STARTCHAR uni0072
ENCODING 114
SWIDTH 325 0
DWIDTH 3 0
BBX 2 6 1 0
BITMAP
C0
80
80
80
80
80
ENDCHAR
STARTCHAR uni0073
ENCODING 115
SWIDTH 492 0
DWIDTH 5 0
BBX 3 6 1 0
BITMAP
E0
80
C0
20
20
E0
ENDCHAR
STARTCHAR uni0074
ENCODING 116
SWIDTH 348 0
DWIDTH 3 0
BBX 2 8 1 0
BITMAP
80
80
C0
80
80
80
80
C0
ENDCHAR
STARTCHAR uni0075
ENCODING 117
SWIDTH 568 0
DWIDTH 6 0
BBX 4 6 1 0
BITMAP
90
90
90
90
90
F0
ENDCHAR
STARTCHAR uni0076
ENCODING 118
SWIDTH 522 0
DWIDTH 5 0
BBX 4 6 1 0
BITMAP
90
90
A0
A0
40
40
ENDCHAR
STARTCHAR uni0077
ENCODING 119
SWIDTH 789 0
DWIDTH 8 0
BBX 6 6 1 0
BITMAP
A4
A4
B4
D4
C8
48
ENDCHAR
STARTCHAR uni0078
ENCODING 120
SWIDTH 500 0
DWIDTH 5 0
BBX 3 6 1 0
BITMAP
A0
A0
40
40
A0
A0
ENDCHAR
STARTCHAR uni0079
ENCODING 121
SWIDTH 522 0
DWIDTH 5 0
BBX 4 8 1 -2
BITMAP
90
90
A0
A0
40
40
40
80
ENDCHAR
STARTCHAR uni007A
ENCODING 122
SWIDTH 508 0
DWIDTH 5 0
BBX 3 6 1 0
BITMAP
E0
20
40
40
80
E0
ENDCHAR
STARTCHAR uni007B
ENCODING 123
SWIDTH 315 0
DWIDTH 3 0
BBX 2 11 1 -2
BITMAP
40
80
80
80
80
80
80
80
80
80
40
ENDCHAR
STARTCHAR uni007C
ENCODING 124
SWIDTH 272 0
DWIDTH 3 0
BBX 1 12 1 -2
BITMAP
80
80
80
80
80
80
80
80
80
80
80
80
ENDCHAR
STARTCHAR uni007D
ENCODING 125
SWIDTH 315 0
DWIDTH 3 0
BBX 3 11 0 -2
BITMAP
80
40
40
40
40
20
40
40
40
40
80
ENDCHAR
STARTCHAR uni007E
ENCODING 126
SWIDTH 636 0
DWIDTH 6 0
BBX 4 2 1 2
BITMAP
D0
30
ENDCHAR
STARTCHAR uni00A0
ENCODING 160
SWIDTH 281 0
DWIDTH 3 0
BBX 1 1 0 0
BITMAP
00
ENDCHAR
STARTCHAR uni00A1
ENCODING 161
SWIDTH 261 0
DWIDTH 3 0
BBX 1 8 1 -2
BITMAP
80
00
80
80
80
80
80
80
ENDCHAR
STARTCHAR uni00A2
ENCODING 162
SWIDTH 552 0
DWIDTH 6 0
BBX 4 8 1 0
BITMAP
40
60
D0
C0
C0
D0
60
40
ENDCHAR
STARTCHAR uni00A3
ENCODING 163
SWIDTH 630 0
DWIDTH 6 0
BBX 4 8 1 0
BITMAP
70
90
80
80
E0
80
80
F0
ENDCHAR
STARTCHAR uni00A4
ENCODING 164
SWIDTH 681 0
DWIDTH 7 0
BBX 5 7 1 0
BITMAP
F8
88
88
88
88
88
F8
ENDCHAR
STARTCHAR uni00A5
ENCODING 165
SWIDTH 522 0
DWIDTH 5 0
BBX 5 8 0 0
BITMAP
88
48
50
20
70
70
20
20
ENDCHAR
STARTCHAR uni00A6
ENCODING 166
SWIDTH 186 0
DWIDTH 2 0
BBX 1 9 0 -1
BITMAP
80
80
80
80
00
00
80
80
80
ENDCHAR
STARTCHAR uni00A7
ENCODING 167
SWIDTH 529 0
DWIDTH 5 0
BBX 4 10 1 -2
BITMAP
E0
90
80
C0
A0
90
60
10
90
60
ENDCHAR
STARTCHAR uni00A8
ENCODING 168
SWIDTH 659 0
DWIDTH 7 0
BBX 2 1 2 7
BITMAP
C0
ENDCHAR
STARTCHAR uni00A9
ENCODING 169
SWIDTH 914 0
DWIDTH 9 0
BBX 7 9 1 0
BITMAP
38
44
BA
C6
C2
C6
BA
44
38
ENDCHAR
STARTCHAR uni00AA
ENCODING 170
SWIDTH 360 0
DWIDTH 4 0
BBX 2 4 1 4
BITMAP
C0
C0
C0
C0
ENDCHAR
STARTCHAR uni00AB
ENCODING 171
SWIDTH 525 0
DWIDTH 5 0
BBX 3 5 1 1
BITMAP
60
A0
C0
A0
60
ENDCHAR
STARTCHAR uni00AC
ENCODING 172
SWIDTH 499 0
DWIDTH 5 0
BBX 3 3 1 2
BITMAP
E0
20
20
ENDCHAR
STARTCHAR uni00AD
ENCODING 173
SWIDTH 438 0
DWIDTH 4 0
BBX 3 1 1 3
BITMAP
E0
ENDCHAR
STARTCHAR uni00AE
ENCODING 174
SWIDTH 670 0
DWIDTH 7 0
BBX 5 7 1 1
BITMAP
70
88
E8
E8
D8
88
70
ENDCHAR
STARTCHAR uni00AF
ENCODING 175
SWIDTH 292 0
DWIDTH 3 0
BBX 3 1 0 7
BITMAP
E0
ENDCHAR
STARTCHAR uni00B0
ENCODING 176
SWIDTH 454 0
DWIDTH 5 0
BBX 3 4 1 4
BITMAP
40
A0
A0
40
ENDCHAR
STARTCHAR uni00B1
ENCODING 177
SWIDTH 636 0
DWIDTH 6 0
BBX 4 6 1 0
BITMAP
20
20
F0
20
20
F0
ENDCHAR
STARTCHAR uni00B2
ENCODING 178
SWIDTH 411 0
DWIDTH 4 0
BBX 3 5 1 4
BITMAP
C0
A0
40
80
E0
ENDCHAR
STARTCHAR uni00B3
ENCODING 179
SWIDTH 410 0
DWIDTH 4 0
BBX 3 5 1 4
BITMAP
C0
A0
40
20
E0
ENDCHAR
STARTCHAR uni00B4
ENCODING 180
SWIDTH 497 0
DWIDTH 5 0
BBX 2 2 2 7
BITMAP
40
80
ENDCHAR
STARTCHAR uni00B5
ENCODING 181
SWIDTH 563 0
DWIDTH 6 0
BBX 4 8 1 -2
BITMAP
90
90
90
90
90
F0
80
80
ENDCHAR
STARTCHAR uni00B6
ENCODING 182
SWIDTH 553 0
DWIDTH 6 0
BBX 3 8 1 0
BITMAP
60
E0
E0
E0
E0
20
20
20
ENDCHAR
STARTCHAR uni00B7
ENCODING 183
SWIDTH 252 0
DWIDTH 3 0
BBX 1 1 1 3
BITMAP
80
ENDCHAR
STARTCHAR uni00B8
ENCODING 184
SWIDTH 204 0
DWIDTH 2 0
BBX 1 3 1 -2
BITMAP
80
80
80
ENDCHAR
STARTCHAR uni00B9
ENCODING 185
SWIDTH 272 0
DWIDTH 3 0
BBX 2 5 0 4
BITMAP
C0
40
40
40
40
ENDCHAR
STARTCHAR uni00BA
ENCODING 186
SWIDTH 390 0
DWIDTH 4 0
BBX 3 4 0 4
BITMAP
E0
A0
A0
E0
ENDCHAR
STARTCHAR uni00BB
ENCODING 187
SWIDTH 532 0
DWIDTH 5 0
BBX 4 5 1 1
BITMAP
C0
A0
50
60
A0
ENDCHAR
STARTCHAR uni00BC
ENCODING 188
SWIDTH 784 0
DWIDTH 8 0
BBX 7 8 0 0
BITMAP
C4
44
48
52
16
26
46
42
ENDCHAR
STARTCHAR uni00BD
ENCODING 189
SWIDTH 859 0
DWIDTH 9 0
BBX 8 8 0 0
BITMAP
C4
44
48
52
15
21
42
47
ENDCHAR
STARTCHAR uni00BE
ENCODING 190
SWIDTH 899 0
DWIDTH 9 0
BBX 8 9 1 0
BITMAP
82
44
C4
28
D2
12
26
27
42
ENDCHAR
STARTCHAR uni00BF
ENCODING 191
SWIDTH 478 0
DWIDTH 5 0
BBX 3 8 1 -2
BITMAP
40
00
40
40
80
80
A0
E0
ENDCHAR
STARTCHAR uni00C0
ENCODING 192
SWIDTH 616 0
DWIDTH 6 0
BBX 6 10 0 0
BITMAP
20
00
20
30
30
48
48
78
84
84
ENDCHAR
STARTCHAR uni00C1
ENCODING 193
SWIDTH 616 0
DWIDTH 6 0
BBX 6 10 0 0
BITMAP
10
00
20
30
30
48
48
78
84
84
ENDCHAR
STARTCHAR uni00C2
ENCODING 194
SWIDTH 616 0
DWIDTH 6 0
BBX 6 10 0 0
BITMAP
30
48
20
30
30
48
48
78
84
84
ENDCHAR
STARTCHAR uni00C3
ENCODING 195
SWIDTH 616 0
DWIDTH 6 0
BBX 6 10 0 0
BITMAP
78
00
20
30
30
48
48
78
84
84
ENDCHAR
STARTCHAR uni00C4
ENCODING 196
SWIDTH 616 0
DWIDTH 6 0
BBX 6 10 0 0
BITMAP
30
00
20
30
30
48
48
78
84
84
ENDCHAR
STARTCHAR uni00C5
ENCODING 197
SWIDTH 616 0
DWIDTH 6 0
BBX 6 10 0 0
BITMAP
10
30
20
30
30
48
48
78
84
84
ENDCHAR
STARTCHAR uni00C6
ENCODING 198
SWIDTH 958 0
DWIDTH 10 0
BBX 9 8 0 0
BITMAP
1F80
1800
1800
2800
2780
7800
4800
8F80
ENDCHAR
STARTCHAR uni00C7
ENCODING 199
SWIDTH 723 0
DWIDTH 7 0
BBX 6 10 1 -2
BITMAP
78
84
84
80
80
84
84
68
10
10
ENDCHAR
STARTCHAR uni00C8
ENCODING 200
SWIDTH 583 0
DWIDTH 6 0
BBX 4 10 1 0
BITMAP
40
00
F0
80
80
80
F0
80
80
F0
ENDCHAR
STARTCHAR uni00C9
ENCODING 201
SWIDTH 583 0
DWIDTH 6 0
BBX 4 10 1 0
BITMAP
20
00
F0
80
80
80
F0
80
80
F0
ENDCHAR
STARTCHAR uni00CA
ENCODING 202
SWIDTH 583 0
DWIDTH 6 0
BBX 4 10 1 0
BITMAP
60
90
E0
80
80
80
F0
80
80
F0
ENDCHAR
STARTCHAR uni00CB
ENCODING 203
SWIDTH 583 0
DWIDTH 6 0
BBX 4 10 1 0
BITMAP
60
00
F0
80
80
80
F0
80
80
F0
ENDCHAR
STARTCHAR uni00CC
ENCODING 204
SWIDTH 250 0
DWIDTH 3 0
BBX 1 10 0 0
BITMAP
80
00
80
80
80
80
80
80
80
80
ENDCHAR
STARTCHAR uni00CD
ENCODING 205
SWIDTH 250 0
DWIDTH 3 0
BBX 1 10 1 0
BITMAP
80
00
80
80
80
80
80
80
80
80
ENDCHAR
STARTCHAR uni00CE
ENCODING 206
SWIDTH 250 0
DWIDTH 3 0
BBX 3 10 0 0
BITMAP
40
A0
40
40
40
40
40
40
40
40
ENDCHAR
STARTCHAR uni00CF
ENCODING 207
SWIDTH 250 0
DWIDTH 3 0
BBX 2 10 0 0
BITMAP
C0
00
40
40
40
40
40
40
40
40
ENDCHAR
STARTCHAR uni00D0
ENCODING 208
SWIDTH 714 0
DWIDTH 7 0
BBX 6 8 0 0
BITMAP
78
44
44
E4
44
44
44
78
ENDCHAR
STARTCHAR uni00D1
ENCODING 209
SWIDTH 772 0
DWIDTH 8 0
BBX 6 10 1 0
BITMAP
78
00
84
84
C4
A4
94
94
8C
84
ENDCHAR
STARTCHAR uni00D2
ENCODING 210
SWIDTH 747 0
DWIDTH 7 0
BBX 6 10 1 0
BITMAP
20
00
78
84
84
84
84
84
84
78
ENDCHAR
STARTCHAR uni00D3
ENCODING 211
SWIDTH 747 0
DWIDTH 7 0
BBX 6 10 1 0
BITMAP
10
00
78
84
84
84
84
84
84
78
ENDCHAR
STARTCHAR uni00D4
ENCODING 212
SWIDTH 747 0
DWIDTH 7 0
BBX 6 10 1 0
BITMAP
20
50
68
84
84
84
84
84
84
78
ENDCHAR
STARTCHAR uni00D5
ENCODING 213
SWIDTH 747 0
DWIDTH 7 0
BBX 6 10 1 0
BITMAP
70
00
78
84
84
84
84
84
84
78
ENDCHAR
STARTCHAR uni00D6
ENCODING 214
SWIDTH 747 0
DWIDTH 7 0
BBX 6 10 1 0
BITMAP
30
00
78
84
84
84
84
84
84
78
ENDCHAR
STARTCHAR uni00D7
ENCODING 215
SWIDTH 636 0
DWIDTH 6 0
BBX 4 4 1 1
BITMAP
90
60
60
90
ENDCHAR
STARTCHAR uni00D8
ENCODING 216
SWIDTH 747 0
DWIDTH 7 0
BBX 6 8 1 0
BITMAP
78
88
94
94
A4
C4
84
F8
ENDCHAR
STARTCHAR uni00D9
ENCODING 217
SWIDTH 750 0
DWIDTH 8 0
BBX 5 10 1 0
BITMAP
20
00
88
88
88
88
88
88
88
78
ENDCHAR
STARTCHAR uni00DA
ENCODING 218
SWIDTH 750 0
DWIDTH 8 0
BBX 5 10 1 0
BITMAP
10
00
88
88
88
88
88
88
88
78
ENDCHAR
STARTCHAR uni00DB
ENCODING 219
SWIDTH 750 0
DWIDTH 8 0
BBX 5 10 1 0
BITMAP
20
50
88
88
88
88
88
88
88
78
ENDCHAR
STARTCHAR uni00DC
ENCODING 220
SWIDTH 750 0
DWIDTH 8 0
BBX 5 10 1 0
BITMAP
30
00
88
88
88
88
88
88
88
78
ENDCHAR
STARTCHAR uni00DD
ENCODING 221
SWIDTH 613 0
DWIDTH 6 0
BBX 6 10 0 0
BITMAP
10
00
84
48
28
30
10
10
10
10
ENDCHAR
STARTCHAR uni00DE
ENCODING 222
SWIDTH 590 0
DWIDTH 6 0
BBX 4 8 1 0
BITMAP
80
80
F0
90
90
E0
80
80
ENDCHAR
STARTCHAR uni00DF
ENCODING 223
SWIDTH 574 0
DWIDTH 6 0
BBX 4 8 1 0
BITMAP
F0
90
90
E0
90
90
90
F0
ENDCHAR
STARTCHAR uni00E0
ENCODING 224
SWIDTH 541 0
DWIDTH 5 0
BBX 3 9 1 0
BITMAP
80
40
00
E0
20
60
A0
A0
E0
ENDCHAR
STARTCHAR uni00E1
ENCODING 225
SWIDTH 541 0
DWIDTH 5 0
BBX 3 9 1 0
BITMAP
20
20
00
E0
20
60
A0
A0
E0
ENDCHAR
STARTCHAR uni00E2
ENCODING 226
SWIDTH 541 0
DWIDTH 5 0
BBX 3 8 1 0
BITMAP
40
A0
E0
20
60
A0
A0
E0
ENDCHAR
STARTCHAR uni00E3
ENCODING 227
SWIDTH 541 0
DWIDTH 5 0
BBX 3 8 1 0
BITMAP
E0
00
E0
20
60
A0
A0
E0
ENDCHAR
STARTCHAR uni00E4
ENCODING 228
SWIDTH 541 0
DWIDTH 5 0
BBX 3 8 1 0
BITMAP
20
00
E0
20
60
A0
A0
E0
ENDCHAR
STARTCHAR uni00E5
ENCODING 229
SWIDTH 541 0
DWIDTH 5 0
BBX 3 9 1 0
BITMAP
40
A0
40
A0
20
60
A0
A0
E0
ENDCHAR
STARTCHAR uni00E6
ENCODING 230
SWIDTH 921 0
DWIDTH 9 0
BBX 8 6 1 0
BITMAP
EE
11
7F
90
90
EE
ENDCHAR
STARTCHAR uni00E7
ENCODING 231
SWIDTH 552 0
DWIDTH 6 0
BBX 4 8 1 -2
BITMAP
F0
90
80
80
90
D0
20
20
ENDCHAR
STARTCHAR uni00E8
ENCODING 232
SWIDTH 576 0
DWIDTH 6 0
BBX 4 9 1 0
BITMAP
80
40
00
F0
90
F0
80
80
F0
ENDCHAR
STARTCHAR uni00E9
ENCODING 233
SWIDTH 576 0
DWIDTH 6 0
BBX 4 9 1 0
BITMAP
20
20
00
F0
90
F0
80
80
F0
ENDCHAR
STARTCHAR uni00EA
ENCODING 234
SWIDTH 576 0
DWIDTH 6 0
BBX 4 8 1 0
BITMAP
60
90
F0
90
F0
80
80
F0
ENDCHAR
STARTCHAR uni00EB
ENCODING 235
SWIDTH 576 0
DWIDTH 6 0
BBX 4 8 1 0
BITMAP
20
00
F0
90
F0
80
80
F0
ENDCHAR
STARTCHAR uni00EC
ENCODING 236
SWIDTH 221 0
DWIDTH 2 0
BBX 1 9 0 0
BITMAP
80
80
00
80
80
80
80
80
80
ENDCHAR
STARTCHAR uni00ED
ENCODING 237
SWIDTH 221 0
DWIDTH 2 0
BBX 1 9 1 0
BITMAP
80
80
00
80
80
80
80
80
80
ENDCHAR
STARTCHAR uni00EE
ENCODING 238
SWIDTH 221 0
DWIDTH 2 0
BBX 2 8 0 0
BITMAP
40
C0
40
40
40
40
40
40
ENDCHAR
STARTCHAR uni00EF
ENCODING 239
SWIDTH 221 0
DWIDTH 2 0
BBX 2 8 0 0
BITMAP
80
00
40
40
40
40
40
40
ENDCHAR
STARTCHAR uni00F0
ENCODING 240
SWIDTH 593 0
DWIDTH 6 0
BBX 4 8 1 0
BITMAP
70
60
70
90
90
90
90
F0
ENDCHAR
STARTCHAR uni00F1
ENCODING 241
SWIDTH 568 0
DWIDTH 6 0
BBX 4 8 1 0
BITMAP
E0
00
E0
90
90
90
90
90
ENDCHAR
STARTCHAR uni00F2
ENCODING 242
SWIDTH 579 0
DWIDTH 6 0
BBX 4 9 1 0
BITMAP
80
40
00
E0
90
90
90
90
F0
ENDCHAR
STARTCHAR uni00F3
ENCODING 243
SWIDTH 579 0
DWIDTH 6 0
BBX 4 9 1 0
BITMAP
20
20
00
E0
90
90
90
90
F0
ENDCHAR
STARTCHAR uni00F4
ENCODING 244
SWIDTH 579 0
DWIDTH 6 0
BBX 4 8 1 0
BITMAP
60
90
E0
90
90
90
90
F0
ENDCHAR
STARTCHAR uni00F5
ENCODING 245
SWIDTH 579 0
DWIDTH 6 0
BBX 4 8 1 0
BITMAP
F0
00
E0
90
90
90
90
F0
ENDCHAR
STARTCHAR uni00F6
ENCODING 246
SWIDTH 579 0
DWIDTH 6 0
BBX 4 8 1 0
BITMAP
20
00
E0
90
90
90
90
F0
ENDCHAR
STARTCHAR uni00F7
ENCODING 247
SWIDTH 636 0
DWIDTH 6 0
BBX 4 5 1 1
BITMAP
20
00
F0
00
20
ENDCHAR
STARTCHAR uni00F8
ENCODING 248
SWIDTH 579 0
DWIDTH 6 0
BBX 4 6 1 0
BITMAP
F0
B0
B0
D0
90
F0
ENDCHAR
STARTCHAR uni00F9
ENCODING 249
SWIDTH 568 0
DWIDTH 6 0
BBX 4 9 1 0
BITMAP
80
40
00
90
90
90
90
90
F0
ENDCHAR
STARTCHAR uni00FA
ENCODING 250
SWIDTH 568 0
DWIDTH 6 0
BBX 4 9 1 0
BITMAP
20
20
00
90
90
90
90
90
F0
ENDCHAR
STARTCHAR uni00FB
ENCODING 251
SWIDTH 568 0
DWIDTH 6 0
BBX 4 8 1 0
BITMAP
60
90
90
90
90
90
90
F0
ENDCHAR
STARTCHAR uni00FC
ENCODING 252
SWIDTH 568 0
DWIDTH 6 0
BBX 4 8 1 0
BITMAP
20
00
90
90
90
90
90
F0
ENDCHAR
STARTCHAR uni00FD
ENCODING 253
SWIDTH 522 0
DWIDTH 5 0
BBX 4 11 1 -2
BITMAP
20
40
00
90
90
A0
A0
40
40
40
80
ENDCHAR
STARTCHAR uni00FE
ENCODING 254
SWIDTH 575 0
DWIDTH 6 0
BBX 4 10 1 -2
BITMAP
80
80
F0
90
90
90
90
F0
80
80
ENDCHAR
STARTCHAR uni00FF
ENCODING 255
SWIDTH 522 0
DWIDTH 5 0
BBX 4 10 1 -2
BITMAP
20
00
90
90
A0
A0
40
40
40
80
ENDCHAR
STARTCHAR uni0100
ENCODING 256
SWIDTH 616 0
DWIDTH 6 0
BBX 6 10 0 0
BITMAP
30
00
20
30
30
48
48
78
84
84
ENDCHAR
STARTCHAR uni0101
ENCODING 257
SWIDTH 541 0
DWIDTH 5 0
BBX 3 8 1 0
BITMAP
60
00
E0
20
60
A0
A0
E0
ENDCHAR
STARTCHAR uni0102
ENCODING 258
SWIDTH 616 0
DWIDTH 6 0
BBX 6 10 0 0
BITMAP
30
00
20
30
30
48
48
78
84
84
ENDCHAR
STARTCHAR uni0103
ENCODING 259
SWIDTH 541 0
DWIDTH 5 0
BBX 3 8 1 0
BITMAP
60
00
E0
20
60
A0
A0
E0
ENDCHAR
STARTCHAR uni0104
ENCODING 260
SWIDTH 616 0
DWIDTH 6 0
BBX 6 10 0 -2
BITMAP
20
30
30
48
78
48
84
84
04
0C
ENDCHAR
STARTCHAR uni0105
ENCODING 261
SWIDTH 541 0
DWIDTH 5 0
BBX 4 8 1 -2
BITMAP
E0
10
70
90
90
E0
20
30
ENDCHAR
STARTCHAR uni0106
ENCODING 262
SWIDTH 723 0
DWIDTH 7 0
BBX 6 10 1 0
BITMAP
10
00
78
84
84
80
80
84
84
78
ENDCHAR
STARTCHAR uni0107
ENCODING 263
SWIDTH 552 0
DWIDTH 6 0
BBX 4 9 1 0
BITMAP
20
20
00
E0
90
80
80
90
F0
ENDCHAR
STARTCHAR uni0108
ENCODING 264
SWIDTH 723 0
DWIDTH 7 0
BBX 6 10 1 0
BITMAP
20
50
68
84
84
80
80
84
84
78
ENDCHAR
STARTCHAR uni0109
ENCODING 265
SWIDTH 552 0
DWIDTH 6 0
BBX 4 8 1 0
BITMAP
60
90
E0
90
80
80
90
F0
ENDCHAR
STARTCHAR uni010A
ENCODING 266
SWIDTH 723 0
DWIDTH 7 0
BBX 6 10 1 0
BITMAP
20
00
78
84
84
80
80
84
84
78
ENDCHAR
STARTCHAR uni010B
ENCODING 267
SWIDTH 552 0
DWIDTH 6 0
BBX 4 6 1 0
BITMAP
E0
90
80
80
90
F0
ENDCHAR
STARTCHAR uni010C
ENCODING 268
SWIDTH 723 0
DWIDTH 7 0
BBX 6 11 1 0
BITMAP
50
20
00
78
84
84
80
80
84
84
78
ENDCHAR
STARTCHAR uni010D
ENCODING 269
SWIDTH 552 0
DWIDTH 6 0
BBX 4 9 1 0
BITMAP
10
60
00
E0
90
80
80
90
F0
ENDCHAR
STARTCHAR uni010E
ENCODING 270
SWIDTH 714 0
DWIDTH 7 0
BBX 5 10 1 0
BITMAP
60
00
F0
88
88
88
88
88
88
F0
ENDCHAR
STARTCHAR uni010F
ENCODING 271
SWIDTH 561 0
DWIDTH 6 0
BBX 5 8 1 0
BITMAP
08
08
F0
90
90
90
90
F0
ENDCHAR
STARTCHAR uni0110
ENCODING 272
SWIDTH 714 0
DWIDTH 7 0
BBX 6 8 0 0
BITMAP
78
44
44
E4
44
44
44
78
ENDCHAR
STARTCHAR uni0111
ENCODING 273
SWIDTH 598 0
DWIDTH 6 0
BBX 5 8 1 0
BITMAP
10
38
F0
90
90
90
90
F0
ENDCHAR
STARTCHAR uni0112
ENCODING 274
SWIDTH 583 0
DWIDTH 6 0
BBX 4 10 1 0
BITMAP
60
00
F0
80
80
80
F0
80
80
F0
ENDCHAR
STARTCHAR uni0113
ENCODING 275
SWIDTH 576 0
DWIDTH 6 0
BBX 4 8 1 0
BITMAP
60
00
F0
90
F0
80
80
F0
ENDCHAR
STARTCHAR uni0114
ENCODING 276
SWIDTH 583 0
DWIDTH 6 0
BBX 4 10 1 0
BITMAP
60
00
F0
80
80
80
F0
80
80
F0
ENDCHAR
STARTCHAR uni0115
ENCODING 277
SWIDTH 576 0
DWIDTH 6 0
BBX 4 8 1 0
BITMAP
60
00
F0
90
F0
80
80
F0
ENDCHAR
STARTCHAR uni0116
ENCODING 278
SWIDTH 583 0
DWIDTH 6 0
BBX 4 10 1 0
BITMAP
20
00
F0
80
80
80
F0
80
80
F0
ENDCHAR
STARTCHAR uni0117
ENCODING 279
SWIDTH 576 0
DWIDTH 6 0
BBX 4 6 1 0
BITMAP
F0
90
F0
80
80
F0
ENDCHAR
STARTCHAR uni0118
ENCODING 280
SWIDTH 583 0
DWIDTH 6 0
BBX 5 10 1 -2
BITMAP
F0
80
80
F0
80
80
80
E0
10
18
ENDCHAR
STARTCHAR uni0119
ENCODING 281
SWIDTH 576 0
DWIDTH 6 0
BBX 4 8 1 -2
BITMAP
F0
90
F0
80
80
B0
40
60
ENDCHAR
STARTCHAR uni011A
ENCODING 282
SWIDTH 583 0
DWIDTH 6 0
BBX 4 10 1 0
BITMAP
60
00
F0
80
80
80
F0
80
80
F0
ENDCHAR
STARTCHAR uni011B
ENCODING 283
SWIDTH 576 0
DWIDTH 6 0
BBX 4 9 1 0
BITMAP
10
60
00
F0
90
F0
80
80
F0
ENDCHAR
STARTCHAR uni011C
ENCODING 284
SWIDTH 738 0
DWIDTH 7 0
BBX 6 10 1 0
BITMAP
20
50
68
84
84
80
9C
84
84
78
ENDCHAR
STARTCHAR uni011D
ENCODING 285
SWIDTH 583 0
DWIDTH 6 0
BBX 4 11 1 -2
BITMAP
40
60
00
F0
90
90
90
90
F0
10
F0
ENDCHAR
STARTCHAR uni011E
ENCODING 286
SWIDTH 738 0
DWIDTH 7 0
BBX 6 10 1 0
BITMAP
20
00
78
84
84
80
9C
84
84
78
ENDCHAR
STARTCHAR uni011F
ENCODING 287
SWIDTH 583 0
DWIDTH 6 0
BBX 4 10 1 -2
BITMAP
60
00
F0
90
90
90
90
F0
10
F0
ENDCHAR
STARTCHAR uni0120
ENCODING 288
SWIDTH 738 0
DWIDTH 7 0
BBX 6 10 1 0
BITMAP
20
00
78
84
84
80
9C
84
84
78
ENDCHAR
STARTCHAR uni0121
ENCODING 289
SWIDTH 583 0
DWIDTH 6 0
BBX 4 8 1 -2
BITMAP
F0
90
90
90
90
F0
10
F0
ENDCHAR
STARTCHAR uni0122
ENCODING 290
SWIDTH 738 0
DWIDTH 7 0
BBX 6 10 1 -2
BITMAP
78
84
80
9C
84
84
88
58
20
20
ENDCHAR
STARTCHAR uni0123
ENCODING 291
SWIDTH 583 0
DWIDTH 6 0
BBX 4 11 1 -2
BITMAP
20
40
00
F0
90
90
90
90
F0
10
F0
ENDCHAR
STARTCHAR uni0124
ENCODING 292
SWIDTH 735 0
DWIDTH 7 0
BBX 5 10 1 0
BITMAP
20
50
88
88
88
88
F8
88
88
88
ENDCHAR
STARTCHAR uni0125
ENCODING 293
SWIDTH 568 0
DWIDTH 6 0
BBX 5 10 0 0
BITMAP
40
A0
40
40
70
48
48
48
48
48
ENDCHAR
STARTCHAR uni0126
ENCODING 294
SWIDTH 743 0
DWIDTH 7 0
BBX 6 8 1 0
BITMAP
84
84
FC
84
F8
84
84
84
ENDCHAR
STARTCHAR uni0127
ENCODING 295
SWIDTH 568 0
DWIDTH 6 0
BBX 5 8 0 0
BITMAP
C0
40
70
48
48
48
48
48
ENDCHAR
STARTCHAR uni0128
ENCODING 296
SWIDTH 349 0
DWIDTH 4 0
BBX 3 10 0 0
BITMAP
E0
00
40
40
40
40
40
40
40
40
ENDCHAR
STARTCHAR uni0129
ENCODING 297
SWIDTH 221 0
DWIDTH 2 0
BBX 4 8 -1 0
BITMAP
F0
00
20
20
20
20
20
20
ENDCHAR
STARTCHAR uni012A
ENCODING 298
SWIDTH 250 0
DWIDTH 3 0
BBX 2 10 0 0
BITMAP
C0
00
40
40
40
40
40
40
40
40
ENDCHAR
STARTCHAR uni012B
ENCODING 299
SWIDTH 221 0
DWIDTH 2 0
BBX 2 8 0 0
BITMAP
C0
00
40
40
40
40
40
40
ENDCHAR
STARTCHAR uni012C
ENCODING 300
SWIDTH 250 0
DWIDTH 3 0
BBX 2 10 0 0
BITMAP
C0
00
40
40
40
40
40
40
40
40
ENDCHAR
STARTCHAR uni012D
ENCODING 301
SWIDTH 221 0
DWIDTH 2 0
BBX 2 8 0 0
BITMAP
C0
00
40
40
40
40
40
40
ENDCHAR
STARTCHAR uni012E
ENCODING 302
SWIDTH 250 0
DWIDTH 3 0
BBX 2 10 0 -2
BITMAP
40
40
40
40
40
40
40
40
80
C0
ENDCHAR
STARTCHAR uni012F
ENCODING 303
SWIDTH 196 0
DWIDTH 2 0
BBX 2 8 0 -2
BITMAP
40
40
40
40
40
40
80
C0
ENDCHAR
STARTCHAR uni0130
ENCODING 304
SWIDTH 250 0
DWIDTH 3 0
BBX 1 10 1 0
BITMAP
80
00
80
80
80
80
80
80
80
80
ENDCHAR
STARTCHAR uni0131
ENCODING 305
SWIDTH 221 0
DWIDTH 2 0
BBX 1 6 1 0
BITMAP
80
80
80
80
80
80
ENDCHAR
STARTCHAR uni0132
ENCODING 306
SWIDTH 769 0
DWIDTH 8 0
BBX 6 8 1 0
BITMAP
84
84
84
84
84
84
A4
B8
ENDCHAR
STARTCHAR uni0133
ENCODING 307
SWIDTH 443 0
DWIDTH 4 0
BBX 3 10 1 -2
BITMAP
20
00
A0
A0
A0
A0
A0
A0
20
60
ENDCHAR
STARTCHAR uni0134
ENCODING 308
SWIDTH 519 0
DWIDTH 5 0
BBX 4 10 1 0
BITMAP
20
50
20
20
20
20
20
20
A0
E0
ENDCHAR
STARTCHAR uni0135
ENCODING 309
SWIDTH 221 0
DWIDTH 2 0
BBX 2 10 0 -2
BITMAP
40
C0
40
40
40
40
40
40
40
80
ENDCHAR
STARTCHAR uni0136
ENCODING 310
SWIDTH 616 0
DWIDTH 6 0
BBX 5 10 1 -2
BITMAP
88
90
A0
C0
C0
A0
90
88
20
40
ENDCHAR
STARTCHAR uni0137
ENCODING 311
SWIDTH 487 0
DWIDTH 5 0
BBX 4 10 1 -2
BITMAP
80
80
A0
C0
80
C0
A0
90
40
40
ENDCHAR
STARTCHAR uni0138
ENCODING 312
SWIDTH 561 0
DWIDTH 6 0
BBX 4 6 1 0
BITMAP
90
A0
C0
80
C0
B0
ENDCHAR
STARTCHAR uni0139
ENCODING 313
SWIDTH 562 0
DWIDTH 6 0
BBX 4 10 1 0
BITMAP
80
00
80
80
80
80
80
80
80
F0
ENDCHAR
STARTCHAR uni013A
ENCODING 314
SWIDTH 215 0
DWIDTH 2 0
BBX 1 10 1 0
BITMAP
80
00
80
80
80
80
80
80
80
80
ENDCHAR
STARTCHAR uni013B
ENCODING 315
SWIDTH 562 0
DWIDTH 6 0
BBX 4 10 1 -2
BITMAP
80
80
80
80
80
80
80
D0
20
40
ENDCHAR
STARTCHAR uni013C
ENCODING 316
SWIDTH 215 0
DWIDTH 2 0
BBX 1 10 0 -2
BITMAP
80
80
80
80
80
80
80
80
80
80
ENDCHAR
STARTCHAR uni013D
ENCODING 317
SWIDTH 557 0
DWIDTH 6 0
BBX 4 8 1 0
BITMAP
A0
C0
80
80
80
80
80
F0
ENDCHAR
STARTCHAR uni013E
ENCODING 318
SWIDTH 215 0
DWIDTH 2 0
BBX 1 8 1 0
BITMAP
80
80
80
80
80
80
80
80
ENDCHAR
STARTCHAR uni013F
ENCODING 319
SWIDTH 545 0
DWIDTH 5 0
BBX 4 8 1 0
BITMAP
80
80
80
80
A0
80
80
F0
ENDCHAR
STARTCHAR uni0140
ENCODING 320
SWIDTH 219 0
DWIDTH 2 0
BBX 1 8 1 0
BITMAP
80
80
80
80
80
80
80
80
ENDCHAR
STARTCHAR uni0141
ENCODING 321
SWIDTH 539 0
DWIDTH 5 0
BBX 5 8 0 0
BITMAP
80
80
80
E0
80
80
80
F8
ENDCHAR
STARTCHAR uni0142
ENCODING 322
SWIDTH 197 0
DWIDTH 2 0
BBX 2 8 0 0
BITMAP
80
80
80
C0
80
80
80
80
ENDCHAR
STARTCHAR uni0143
ENCODING 323
SWIDTH 772 0
DWIDTH 8 0
BBX 6 10 1 0
BITMAP
10
00
84
84
C4
A4
94
94
8C
84
ENDCHAR
STARTCHAR uni0144
ENCODING 324
SWIDTH 568 0
DWIDTH 6 0
BBX 4 9 1 0
BITMAP
20
20
00
E0
90
90
90
90
90
ENDCHAR
STARTCHAR uni0145
ENCODING 325
SWIDTH 772 0
DWIDTH 8 0
BBX 6 10 1 -2
BITMAP
84
84
C4
A4
94
94
8C
84
20
20
ENDCHAR
STARTCHAR uni0146
ENCODING 326
SWIDTH 568 0
DWIDTH 6 0
BBX 4 8 1 -2
BITMAP
E0
90
90
90
90
90
40
40
ENDCHAR
STARTCHAR uni0147
ENCODING 327
SWIDTH 772 0
DWIDTH 8 0
BBX 6 10 1 0
BITMAP
30
00
84
84
C4
A4
94
94
8C
84
ENDCHAR
STARTCHAR uni0148
ENCODING 328
SWIDTH 568 0
DWIDTH 6 0
BBX 4 8 1 0
BITMAP
60
00
E0
90
90
90
90
90
ENDCHAR
STARTCHAR uni014A
ENCODING 330
SWIDTH 772 0
DWIDTH 8 0
BBX 6 10 1 -2
BITMAP
84
84
C4
A4
94
94
8C
84
04
0C
ENDCHAR
STARTCHAR uni014B
ENCODING 331
SWIDTH 539 0
DWIDTH 5 0
BBX 4 8 1 -2
BITMAP
E0
90
90
90
90
90
10
30
ENDCHAR
STARTCHAR uni014C
ENCODING 332
SWIDTH 747 0
DWIDTH 7 0
BBX 6 10 1 0
BITMAP
30
00
78
84
84
84
84
84
84
78
ENDCHAR
STARTCHAR uni014D
ENCODING 333
SWIDTH 579 0
DWIDTH 6 0
BBX 4 8 1 0
BITMAP
60
00
E0
90
90
90
90
F0
ENDCHAR
STARTCHAR uni014E
ENCODING 334
SWIDTH 747 0
DWIDTH 7 0
BBX 6 10 1 0
BITMAP
30
00
78
84
84
84
84
84
84
78
ENDCHAR
STARTCHAR uni014F
ENCODING 335
SWIDTH 579 0
DWIDTH 6 0
BBX 4 8 1 0
BITMAP
60
00
E0
90
90
90
90
F0
ENDCHAR
STARTCHAR uni0150
ENCODING 336
SWIDTH 747 0
DWIDTH 7 0
BBX 6 10 1 0
BITMAP
30
20
58
84
84
84
84
84
84
78
ENDCHAR
STARTCHAR uni0151
ENCODING 337
SWIDTH 579 0
DWIDTH 6 0
BBX 4 8 1 0
BITMAP
50
60
A0
90
90
90
90
F0
ENDCHAR
STARTCHAR uni0152
ENCODING 338
SWIDTH 921 0
DWIDTH 9 0
BBX 8 8 1 0
BITMAP
7E
90
90
90
8E
90
90
7F
ENDCHAR
STARTCHAR uni0153
ENCODING 339
SWIDTH 1003 0
DWIDTH 10 0
BBX 8 6 1 0
BITMAP
E7
99
8F
90
98
E7
ENDCHAR
STARTCHAR uni0154
ENCODING 340
SWIDTH 615 0
DWIDTH 6 0
BBX 5 10 1 0
BITMAP
20
00
F0
88
88
90
E0
90
90
88
ENDCHAR
STARTCHAR uni0155
ENCODING 341
SWIDTH 325 0
DWIDTH 3 0
BBX 2 9 1 0
BITMAP
40
40
00
C0
80
80
80
80
80
ENDCHAR
STARTCHAR uni0156
ENCODING 342
SWIDTH 615 0
DWIDTH 6 0
BBX 5 10 1 -2
BITMAP
F0
88
88
F0
90
90
90
88
20
40
ENDCHAR
STARTCHAR uni0157
ENCODING 343
SWIDTH 325 0
DWIDTH 3 0
BBX 3 8 0 -2
BITMAP
60
40
40
40
40
40
40
80
ENDCHAR
STARTCHAR uni0158
ENCODING 344
SWIDTH 615 0
DWIDTH 6 0
BBX 5 10 1 0
BITMAP
60
00
F0
88
88
90
E0
90
90
88
ENDCHAR
STARTCHAR uni0159
ENCODING 345
SWIDTH 325 0
DWIDTH 3 0
BBX 2 8 1 0
BITMAP
C0
00
C0
80
80
80
80
80
ENDCHAR
STARTCHAR uni015A
ENCODING 346
SWIDTH 612 0
DWIDTH 6 0
BBX 4 10 1 0
BITMAP
20
00
F0
90
80
40
30
10
90
F0
ENDCHAR
STARTCHAR uni015B
ENCODING 347
SWIDTH 492 0
DWIDTH 5 0
BBX 3 9 1 0
BITMAP
20
40
00
E0
80
C0
20
20
E0
ENDCHAR
STARTCHAR uni015C
ENCODING 348
SWIDTH 612 0
DWIDTH 6 0
BBX 4 10 1 0
BITMAP
60
90
F0
90
80
40
30
10
90
F0
ENDCHAR
STARTCHAR uni015D
ENCODING 349
SWIDTH 492 0
DWIDTH 5 0
BBX 3 8 1 0
BITMAP
40
A0
E0
80
C0
20
20
E0
ENDCHAR
STARTCHAR uni015E
ENCODING 350
SWIDTH 612 0
DWIDTH 6 0
BBX 4 10 1 -2
BITMAP
F0
90
80
40
30
10
90
D0
20
20
ENDCHAR
STARTCHAR uni015F
ENCODING 351
SWIDTH 492 0
DWIDTH 5 0
BBX 3 8 1 -2
BITMAP
E0
80
C0
20
A0
A0
40
60
ENDCHAR
STARTCHAR uni0160
ENCODING 352
SWIDTH 612 0
DWIDTH 6 0
BBX 4 11 1 0
BITMAP
10
60
00
F0
90
80
40
30
10
90
F0
ENDCHAR
STARTCHAR uni0161
ENCODING 353
SWIDTH 492 0
DWIDTH 5 0
BBX 3 9 1 0
BITMAP
A0
40
00
E0
80
C0
20
20
E0
ENDCHAR
STARTCHAR uni0162
ENCODING 354
SWIDTH 613 0
DWIDTH 6 0
BBX 5 10 1 -2
BITMAP
F8
20
20
20
20
20
20
20
20
20
ENDCHAR
STARTCHAR uni0163
ENCODING 355
SWIDTH 348 0
DWIDTH 3 0
BBX 2 10 1 -2
BITMAP
80
80
C0
80
80
80
80
80
40
40
ENDCHAR
STARTCHAR uni0164
ENCODING 356
SWIDTH 613 0
DWIDTH 6 0
BBX 5 10 1 0
BITMAP
60
00
F8
20
20
20
20
20
20
20
ENDCHAR
STARTCHAR uni0165
ENCODING 357
SWIDTH 348 0
DWIDTH 3 0
BBX 2 9 1 0
BITMAP
40
80
80
C0
80
80
80
80
C0
ENDCHAR
STARTCHAR uni0166
ENCODING 358
SWIDTH 613 0
DWIDTH 6 0
BBX 5 8 1 0
BITMAP
F8
20
20
60
20
20
20
20
ENDCHAR
STARTCHAR uni0167
ENCODING 359
SWIDTH 348 0
DWIDTH 3 0
BBX 3 8 0 0
BITMAP
40
40
60
40
E0
40
40
60
ENDCHAR
STARTCHAR uni0168
ENCODING 360
SWIDTH 750 0
DWIDTH 8 0
BBX 5 10 1 0
BITMAP
70
00
88
88
88
88
88
88
88
78
ENDCHAR
STARTCHAR uni0169
ENCODING 361
SWIDTH 568 0
DWIDTH 6 0
BBX 4 8 1 0
BITMAP
E0
00
90
90
90
90
90
F0
ENDCHAR
STARTCHAR uni016A
ENCODING 362
SWIDTH 750 0
DWIDTH 8 0
BBX 5 10 1 0
BITMAP
30
00
88
88
88
88
88
88
88
78
ENDCHAR
STARTCHAR uni016B
ENCODING 363
SWIDTH 568 0
DWIDTH 6 0
BBX 4 8 1 0
BITMAP
60
00
90
90
90
90
90
F0
ENDCHAR
STARTCHAR uni016C
ENCODING 364
SWIDTH 750 0
DWIDTH 8 0
BBX 5 10 1 0
BITMAP
30
00
88
88
88
88
88
88
88
78
ENDCHAR
STARTCHAR uni016D
ENCODING 365
SWIDTH 568 0
DWIDTH 6 0
BBX 4 8 1 0
BITMAP
60
00
90
90
90
90
90
F0
ENDCHAR
STARTCHAR uni016E
ENCODING 366
SWIDTH 750 0
DWIDTH 8 0
BBX 5 11 1 0
BITMAP
20
30
20
88
88
88
88
88
88
88
78
ENDCHAR
STARTCHAR uni016F
ENCODING 367
SWIDTH 568 0
DWIDTH 6 0
BBX 4 9 1 0
BITMAP
40
60
40
90
90
90
90
90
F0
ENDCHAR
STARTCHAR uni0170
ENCODING 368
SWIDTH 750 0
DWIDTH 8 0
BBX 5 10 1 0
BITMAP
30
20
88
88
88
88
88
88
88
78
ENDCHAR
STARTCHAR uni0171
ENCODING 369
SWIDTH 568 0
DWIDTH 6 0
BBX 4 8 1 0
BITMAP
50
60
90
90
90
90
90
F0
ENDCHAR
STARTCHAR uni0172
ENCODING 370
SWIDTH 750 0
DWIDTH 8 0
BBX 5 10 1 -2
BITMAP
88
88
88
88
88
88
88
58
20
30
ENDCHAR
STARTCHAR uni0173
ENCODING 371
SWIDTH 568 0
DWIDTH 6 0
BBX 4 8 1 -2
BITMAP
90
90
90
90
90
F0
10
30
ENDCHAR
STARTCHAR uni0174
ENCODING 372
SWIDTH 892 0
DWIDTH 9 0
BBX 9 10 0 0
BITMAP
0800
1400
8880
8880
5500
5500
5500
5500
2200
2200
ENDCHAR
STARTCHAR uni0175
ENCODING 373
SWIDTH 789 0
DWIDTH 8 0
BBX 6 8 1 0
BITMAP
30
48
A4
A4
B4
D4
C8
48
ENDCHAR
STARTCHAR uni0176
ENCODING 374
SWIDTH 613 0
DWIDTH 6 0
BBX 6 10 0 0
BITMAP
30
48
84
48
28
30
10
10
10
10
ENDCHAR
STARTCHAR uni0177
ENCODING 375
SWIDTH 522 0
DWIDTH 5 0
BBX 4 10 1 -2
BITMAP
40
A0
90
90
A0
A0
40
40
40
80
ENDCHAR
STARTCHAR uni0178
ENCODING 376
SWIDTH 613 0
DWIDTH 6 0
BBX 6 10 0 0
BITMAP
30
00
84
48
28
30
10
10
10
10
ENDCHAR
STARTCHAR uni0179
ENCODING 377
SWIDTH 605 0
DWIDTH 6 0
BBX 4 10 1 0
BITMAP
20
00
F0
10
20
20
40
40
80
F0
ENDCHAR
STARTCHAR uni017A
ENCODING 378
SWIDTH 508 0
DWIDTH 5 0
BBX 3 9 1 0
BITMAP
20
40
00
E0
20
40
40
80
E0
ENDCHAR
STARTCHAR uni017B
ENCODING 379
SWIDTH 605 0
DWIDTH 6 0
BBX 4 10 1 0
BITMAP
20
00
F0
10
20
20
40
40
80
F0
ENDCHAR
STARTCHAR uni017C
ENCODING 380
SWIDTH 508 0
DWIDTH 5 0
BBX 3 8 1 0
BITMAP
40
00
E0
20
40
40
80
E0
ENDCHAR
STARTCHAR uni017D
ENCODING 381
SWIDTH 605 0
DWIDTH 6 0
BBX 4 10 1 0
BITMAP
60
00
F0
10
20
20
40
40
80
F0
ENDCHAR
STARTCHAR uni017E
ENCODING 382
SWIDTH 508 0
DWIDTH 5 0
BBX 3 8 1 0
BITMAP
A0
40
E0
20
40
40
80
E0
ENDCHAR
STARTCHAR uni017F
ENCODING 383
SWIDTH 218 0
DWIDTH 2 0
BBX 2 8 0 0
BITMAP
C0
80
80
80
80
80
80
80
ENDCHAR
STARTCHAR uni0180
ENCODING 384
SWIDTH 598 0
DWIDTH 6 0
BBX 5 8 0 0
BITMAP
40
E0
58
48
48
48
48
78
ENDCHAR
STARTCHAR uni0181
ENCODING 385
SWIDTH 738 0
DWIDTH 7 0
BBX 6 8 1 0
BITMAP
F8
44
44
78
44
44
44
78
ENDCHAR
STARTCHAR uni0182
ENCODING 386
SWIDTH 653 0
DWIDTH 7 0
BBX 5 8 1 0
BITMAP
F0
80
80
F0
88
88
88
F8
ENDCHAR
STARTCHAR uni0183
ENCODING 387
SWIDTH 598 0
DWIDTH 6 0
BBX 4 8 1 0
BITMAP
F0
80
F0
90
90
90
90
F0
ENDCHAR
STARTCHAR uni0184
ENCODING 388
SWIDTH 629 0
DWIDTH 6 0
BBX 6 8 0 0
BITMAP
C0
40
40
38
44
44
44
7C
ENDCHAR
STARTCHAR uni0185
ENCODING 389
SWIDTH 541 0
DWIDTH 5 0
BBX 5 8 0 0
BITMAP
80
80
78
48
48
48
48
78
ENDCHAR
STARTCHAR uni0186
ENCODING 390
SWIDTH 723 0
DWIDTH 7 0
BBX 6 8 1 0
BITMAP
70
88
84
04
04
84
88
70
ENDCHAR
STARTCHAR uni0187
ENCODING 391
SWIDTH 704 0
DWIDTH 7 0
BBX 6 8 1 0
BITMAP
7C
84
80
80
80
84
84
78
ENDCHAR
STARTCHAR uni0188
ENCODING 392
SWIDTH 578 0
DWIDTH 6 0
BBX 5 6 1 0
BITMAP
F8
90
80
80
90
F0
ENDCHAR
STARTCHAR uni0189
ENCODING 393
SWIDTH 714 0
DWIDTH 7 0
BBX 6 8 0 0
BITMAP
78
44
44
E4
44
44
44
78
ENDCHAR
STARTCHAR uni018A
ENCODING 394
SWIDTH 821 0
DWIDTH 8 0
BBX 6 8 1 0
BITMAP
F8
44
44
44
44
44
44
78
ENDCHAR
STARTCHAR uni018B
ENCODING 395
SWIDTH 590 0
DWIDTH 6 0
BBX 4 8 1 0
BITMAP
F0
10
10
70
90
90
90
F0
ENDCHAR
STARTCHAR uni018C
ENCODING 396
SWIDTH 598 0
DWIDTH 6 0
BBX 4 8 1 0
BITMAP
F0
10
F0
90
90
90
90
F0
ENDCHAR
STARTCHAR uni018D
ENCODING 397
SWIDTH 465 0
DWIDTH 5 0
BBX 4 8 0 -2
BITMAP
70
90
90
90
90
60
20
70
ENDCHAR
STARTCHAR uni018E
ENCODING 398
SWIDTH 583 0
DWIDTH 6 0
BBX 4 8 1 0
BITMAP
F0
10
10
10
F0
10
10
F0
ENDCHAR
STARTCHAR uni018F
ENCODING 399
SWIDTH 678 0
DWIDTH 7 0
BBX 5 8 1 0
BITMAP
F0
08
08
08
F8
88
88
70
ENDCHAR
STARTCHAR uni0190
ENCODING 400
SWIDTH 579 0
DWIDTH 6 0
BBX 4 8 1 0
BITMAP
F0
90
80
60
80
80
90
F0
ENDCHAR
STARTCHAR uni0191
ENCODING 401
SWIDTH 562 0
DWIDTH 6 0
BBX 5 10 0 -2
BITMAP
78
40
40
70
40
40
40
40
40
80
ENDCHAR
STARTCHAR uni0192
ENCODING 402
SWIDTH 296 0
DWIDTH 3 0
BBX 3 10 0 -2
BITMAP
60
40
E0
40
40
40
40
40
40
C0
ENDCHAR
STARTCHAR uni0193
ENCODING 403
SWIDTH 711 0
DWIDTH 7 0
BBX 7 8 1 0
BITMAP
7E
84
80
80
9C
84
84
78
ENDCHAR
STARTCHAR uni0194
ENCODING 404
SWIDTH 516 0
DWIDTH 5 0
BBX 5 10 0 -2
BITMAP
88
88
88
50
50
50
20
20
20
70
ENDCHAR
STARTCHAR uni0195
ENCODING 405
SWIDTH 917 0
DWIDTH 9 0
BBX 7 8 1 0
BITMAP
80
80
E2
92
92
92
92
8C
ENDCHAR
STARTCHAR uni0196
ENCODING 406
SWIDTH 220 0
DWIDTH 2 0
BBX 1 8 1 0
BITMAP
80
80
80
80
80
80
80
80
ENDCHAR
STARTCHAR uni0197
ENCODING 407
SWIDTH 250 0
DWIDTH 3 0
BBX 3 8 0 0
BITMAP
40
40
40
E0
40
40
40
40
ENDCHAR
STARTCHAR uni0198
ENCODING 408
SWIDTH 654 0
DWIDTH 7 0
BBX 5 8 1 0
BITMAP
88
90
A0
C0
C0
A0
90
88
ENDCHAR
STARTCHAR uni0199
ENCODING 409
SWIDTH 488 0
DWIDTH 5 0
BBX 4 8 1 0
BITMAP
80
80
A0
C0
80
C0
A0
90
ENDCHAR
STARTCHAR uni019A
ENCODING 410
SWIDTH 215 0
DWIDTH 2 0
BBX 2 8 0 0
BITMAP
40
40
40
C0
40
40
40
40
ENDCHAR
STARTCHAR uni019B
ENCODING 411
SWIDTH 600 0
DWIDTH 6 0
BBX 4 8 1 0
BITMAP
C0
80
40
40
A0
A0
90
90
ENDCHAR
STARTCHAR uni019C
ENCODING 412
SWIDTH 832 0
DWIDTH 8 0
BBX 6 8 1 0
BITMAP
94
94
94
94
94
94
94
FC
ENDCHAR
STARTCHAR uni019D
ENCODING 413
SWIDTH 750 0
DWIDTH 8 0
BBX 6 10 0 -2
BITMAP
44
44
64
54
54
4C
44
44
40
80
ENDCHAR
STARTCHAR uni019E
ENCODING 414
SWIDTH 568 0
DWIDTH 6 0
BBX 4 8 1 -2
BITMAP
E0
90
90
90
90
90
10
10
ENDCHAR
STARTCHAR uni019F
ENCODING 415
SWIDTH 747 0
DWIDTH 7 0
BBX 6 8 1 0
BITMAP
78
84
84
FC
84
84
88
78
ENDCHAR
STARTCHAR uni01A0
ENCODING 416
SWIDTH 735 0
DWIDTH 7 0
BBX 6 9 1 0
BITMAP
04
7C
84
84
84
84
84
84
78
ENDCHAR
STARTCHAR uni01A1
ENCODING 417
SWIDTH 563 0
DWIDTH 6 0
BBX 4 7 1 0
BITMAP
10
F0
90
90
90
90
F0
ENDCHAR
STARTCHAR uni01A2
ENCODING 418
SWIDTH 772 0
DWIDTH 8 0
BBX 6 10 1 -2
BITMAP
74
8C
8C
8C
8C
8C
8C
74
04
04
ENDCHAR
STARTCHAR uni01A3
ENCODING 419
SWIDTH 518 0
DWIDTH 5 0
BBX 5 8 0 -2
BITMAP
78
98
98
98
98
78
08
08
ENDCHAR
STARTCHAR uni01A4
ENCODING 420
SWIDTH 680 0
DWIDTH 7 0
BBX 5 8 1 0
BITMAP
F0
88
88
88
70
80
80
80
ENDCHAR
STARTCHAR uni01A5
ENCODING 421
SWIDTH 586 0
DWIDTH 6 0
BBX 4 10 1 -2
BITMAP
80
80
F0
90
90
90
90
F0
80
80
ENDCHAR
STARTCHAR uni01A6
ENCODING 422
SWIDTH 660 0
DWIDTH 7 0
BBX 5 11 1 -2
BITMAP
80
E0
90
90
90
E0
A0
90
90
08
08
ENDCHAR
STARTCHAR uni01A7
ENCODING 423
SWIDTH 612 0
DWIDTH 6 0
BBX 4 8 1 0
BITMAP
F0
90
10
30
C0
80
90
F0
ENDCHAR
STARTCHAR uni01A8
ENCODING 424
SWIDTH 492 0
DWIDTH 5 0
BBX 3 6 1 0
BITMAP
E0
20
60
80
80
E0
ENDCHAR
STARTCHAR uni01A9
ENCODING 425
SWIDTH 588 0
DWIDTH 6 0
BBX 6 8 0 0
BITMAP
F8
40
20
10
10
20
40
FC
ENDCHAR
STARTCHAR uni01AA
ENCODING 426
SWIDTH 444 0
DWIDTH 4 0
BBX 4 10 0 -2
BITMAP
E0
A0
60
20
20
20
20
20
20
10
ENDCHAR
STARTCHAR uni01AB
ENCODING 427
SWIDTH 348 0
DWIDTH 3 0
BBX 2 10 1 -2
BITMAP
80
80
C0
80
80
80
80
80
40
40
ENDCHAR
STARTCHAR uni01AC
ENCODING 428
SWIDTH 613 0
DWIDTH 6 0
BBX 5 8 1 0
BITMAP
F8
20
20
20
20
20
20
20
ENDCHAR
STARTCHAR uni01AD
ENCODING 429
SWIDTH 210 0
DWIDTH 2 0
BBX 2 8 0 0
BITMAP
40
80
C0
80
80
80
80
40
ENDCHAR
STARTCHAR uni01AE
ENCODING 430
SWIDTH 613 0
DWIDTH 6 0
BBX 5 10 1 -2
BITMAP
F8
20
20
20
20
20
20
20
20
20
ENDCHAR
STARTCHAR uni01AF
ENCODING 431
SWIDTH 815 0
DWIDTH 8 0
BBX 7 9 1 0
BITMAP
02
84
84
84
84
84
84
88
78
ENDCHAR
STARTCHAR uni01B0
ENCODING 432
SWIDTH 535 0
DWIDTH 5 0
BBX 5 6 1 0
BITMAP
98
90
90
90
90
F0
ENDCHAR
STARTCHAR uni01B1
ENCODING 433
SWIDTH 744 0
DWIDTH 7 0
BBX 6 8 1 0
BITMAP
DC
88
84
84
84
84
88
78
ENDCHAR
STARTCHAR uni01B2
ENCODING 434
SWIDTH 593 0
DWIDTH 6 0
BBX 4 8 1 0
BITMAP
90
90
90
90
90
90
90
F0
ENDCHAR
STARTCHAR uni01B3
ENCODING 435
SWIDTH 622 0
DWIDTH 6 0
BBX 6 8 0 0
BITMAP
84
48
50
20
20
20
20
20
ENDCHAR
STARTCHAR uni01B4
ENCODING 436
SWIDTH 545 0
DWIDTH 5 0
BBX 5 10 1 -2
BITMAP
08
10
90
90
A0
A0
40
40
40
80
ENDCHAR
STARTCHAR uni01B5
ENCODING 437
SWIDTH 605 0
DWIDTH 6 0
BBX 4 8 1 0
BITMAP
F0
10
20
20
60
40
80
F0
ENDCHAR
STARTCHAR uni01B6
ENCODING 438
SWIDTH 508 0
DWIDTH 5 0
BBX 3 6 1 0
BITMAP
E0
20
40
E0
80
E0
ENDCHAR
STARTCHAR uni01B7
ENCODING 439
SWIDTH 693 0
DWIDTH 7 0
BBX 5 10 1 -2
BITMAP
F8
10
20
60
10
08
08
88
88
F0
ENDCHAR
STARTCHAR uni01B8
ENCODING 440
SWIDTH 693 0
DWIDTH 7 0
BBX 5 10 1 -2
BITMAP
F8
40
20
60
80
80
80
88
88
70
ENDCHAR
STARTCHAR uni01B9
ENCODING 441
SWIDTH 599 0
DWIDTH 6 0
BBX 4 8 1 -2
BITMAP
F0
40
40
60
80
80
90
F0
ENDCHAR
STARTCHAR uni01BA
ENCODING 442
SWIDTH 490 0
DWIDTH 5 0
BBX 5 8 0 -2
BITMAP
F8
20
20
10
30
C0
90
F0
ENDCHAR
STARTCHAR uni01BB
ENCODING 443
SWIDTH 620 0
DWIDTH 6 0
BBX 4 8 1 0
BITMAP
F0
90
10
10
30
40
40
F0
ENDCHAR
STARTCHAR uni01BC
ENCODING 444
SWIDTH 557 0
DWIDTH 6 0
BBX 5 8 0 0
BITMAP
F8
40
40
70
08
08
88
70
ENDCHAR
STARTCHAR uni01BD
ENCODING 445
SWIDTH 406 0
DWIDTH 4 0
BBX 4 6 0 0
BITMAP
F0
40
E0
10
90
F0
ENDCHAR
STARTCHAR uni01BE
ENCODING 446
SWIDTH 503 0
DWIDTH 5 0
BBX 3 7 1 0
BITMAP
40
E0
40
40
20
A0
E0
ENDCHAR
STARTCHAR uni01BF
ENCODING 447
SWIDTH 557 0
DWIDTH 6 0
BBX 4 8 1 -2
BITMAP
E0
90
90
90
90
E0
80
80
ENDCHAR
STARTCHAR uni01C0
ENCODING 448
SWIDTH 186 0
DWIDTH 2 0
BBX 1 8 0 0
BITMAP
80
80
80
80
80
80
80
80
ENDCHAR
STARTCHAR uni01C1
ENCODING 449
SWIDTH 322 0
DWIDTH 3 0
BBX 2 8 0 0
BITMAP
C0
C0
C0
C0
C0
C0
C0
C0
ENDCHAR
STARTCHAR uni01C2
ENCODING 450
SWIDTH 225 0
DWIDTH 2 0
BBX 2 8 0 0
BITMAP
40
40
C0
40
40
C0
40
40
ENDCHAR
STARTCHAR uni01C3
ENCODING 451
SWIDTH 261 0
DWIDTH 3 0
BBX 1 8 1 0
BITMAP
80
80
80
80
80
80
00
80
ENDCHAR
STARTCHAR uni01C5
ENCODING 453
SWIDTH 1223 0
DWIDTH 12 0
BBX 11 8 1 0
BITMAP
F1C0
8800
85E0
8440
8480
8480
8900
F1E0
ENDCHAR
STARTCHAR uni01C6
ENCODING 454
SWIDTH 1031 0
DWIDTH 10 0
BBX 9 9 1 0
BITMAP
0500
1200
1000
F780
9100
9100
9200
9400
F780
ENDCHAR
STARTCHAR uni01C7
ENCODING 455
SWIDTH 1082 0
DWIDTH 11 0
BBX 9 8 1 0
BITMAP
8080
8080
8080
8080
8080
8080
8080
F700
ENDCHAR
STARTCHAR uni01C8
ENCODING 456
SWIDTH 784 0
DWIDTH 8 0
BBX 6 10 1 -2
BITMAP
84
80
84
84
84
84
84
F4
04
0C
ENDCHAR
STARTCHAR uni01C9
ENCODING 457
SWIDTH 409 0
DWIDTH 4 0
BBX 3 10 1 -2
BITMAP
A0
80
A0
A0
A0
A0
A0
A0
20
60
ENDCHAR
STARTCHAR uni01CA
ENCODING 458
SWIDTH 1292 0
DWIDTH 13 0
BBX 11 8 1 0
BITMAP
8420
8420
C420
A420
9420
9420
8D20
85E0
ENDCHAR
STARTCHAR uni01CB
ENCODING 459
SWIDTH 990 0
DWIDTH 10 0
BBX 8 10 1 -2
BITMAP
84
84
C5
A5
95
95
8D
85
01
01
ENDCHAR
STARTCHAR uni01CC
ENCODING 460
SWIDTH 789 0
DWIDTH 8 0
BBX 6 8 1 -2
BITMAP
E4
94
94
94
94
94
04
04
ENDCHAR
STARTCHAR uni01CD
ENCODING 461
SWIDTH 616 0
DWIDTH 6 0
BBX 6 10 0 0
BITMAP
30
00
20
30
30
48
48
78
84
84
ENDCHAR
STARTCHAR uni01CE
ENCODING 462
SWIDTH 541 0
DWIDTH 5 0
BBX 3 9 1 0
BITMAP
A0
40
00
E0
20
60
A0
A0
E0
ENDCHAR
STARTCHAR uni01CF
ENCODING 463
SWIDTH 250 0
DWIDTH 3 0
BBX 3 10 0 0
BITMAP
E0
00
40
40
40
40
40
40
40
40
ENDCHAR
STARTCHAR uni01D0
ENCODING 464
SWIDTH 221 0
DWIDTH 2 0
BBX 2 8 0 0
BITMAP
C0
00
40
40
40
40
40
40
ENDCHAR
STARTCHAR uni01D1
ENCODING 465
SWIDTH 747 0
DWIDTH 7 0
BBX 6 11 1 0
BITMAP
50
20
00
78
84
84
84
84
84
84
78
ENDCHAR
STARTCHAR uni01D2
ENCODING 466
SWIDTH 579 0
DWIDTH 6 0
BBX 4 9 1 0
BITMAP
10
60
00
E0
90
90
90
90
F0
ENDCHAR
STARTCHAR uni01D3
ENCODING 467
SWIDTH 750 0
DWIDTH 8 0
BBX 5 11 1 0
BITMAP
50
20
00
88
88
88
88
88
88
88
78
ENDCHAR
STARTCHAR uni01D4
ENCODING 468
SWIDTH 568 0
DWIDTH 6 0
BBX 4 9 1 0
BITMAP
90
60
00
90
90
90
90
90
F0
ENDCHAR
STARTCHAR uni01D5
ENCODING 469
SWIDTH 750 0
DWIDTH 8 0
BBX 5 11 1 0
BITMAP
30
30
00
88
88
88
88
88
88
88
78
ENDCHAR
STARTCHAR uni01D6
ENCODING 470
SWIDTH 568 0
DWIDTH 6 0
BBX 4 9 1 0
BITMAP
60
00
00
90
90
90
90
90
F0
ENDCHAR
STARTCHAR uni01D7
ENCODING 471
SWIDTH 750 0
DWIDTH 8 0
BBX 5 10 1 0
BITMAP
10
30
88
88
88
88
88
88
88
78
ENDCHAR
STARTCHAR uni01D8
ENCODING 472
SWIDTH 568 0
DWIDTH 6 0
BBX 4 10 1 0
BITMAP
20
20
00
00
90
90
90
90
90
F0
ENDCHAR
STARTCHAR uni01D9
ENCODING 473
SWIDTH 750 0
DWIDTH 8 0
BBX 5 11 1 0
BITMAP
70
50
00
88
88
88
88
88
88
88
78
ENDCHAR
STARTCHAR uni01DA
ENCODING 474
SWIDTH 568 0
DWIDTH 6 0
BBX 4 10 1 0
BITMAP
B0
40
A0
00
90
90
90
90
90
F0
ENDCHAR
STARTCHAR uni01DB
ENCODING 475
SWIDTH 750 0
DWIDTH 8 0
BBX 5 10 1 0
BITMAP
30
00
88
88
88
88
88
88
88
78
ENDCHAR
STARTCHAR uni01DC
ENCODING 476
SWIDTH 568 0
DWIDTH 6 0
BBX 4 9 1 0
BITMAP
40
60
00
90
90
90
90
90
F0
ENDCHAR
STARTCHAR uni01DD
ENCODING 477
SWIDTH 576 0
DWIDTH 6 0
BBX 4 6 1 0
BITMAP
E0
10
10
F0
90
E0
ENDCHAR
STARTCHAR uni01DE
ENCODING 478
SWIDTH 616 0
DWIDTH 6 0
BBX 6 11 0 0
BITMAP
30
30
00
20
30
30
48
48
78
84
84
ENDCHAR
STARTCHAR uni01DF
ENCODING 479
SWIDTH 541 0
DWIDTH 5 0
BBX 3 9 1 0
BITMAP
60
00
00
E0
20
60
A0
A0
E0
ENDCHAR
STARTCHAR uni01E0
ENCODING 480
SWIDTH 616 0
DWIDTH 6 0
BBX 6 11 0 0
BITMAP
30
10
00
20
30
30
48
48
78
84
84
ENDCHAR
STARTCHAR uni01E1
ENCODING 481
SWIDTH 541 0
DWIDTH 5 0
BBX 3 9 1 0
BITMAP
60
40
00
E0
20
60
A0
A0
E0
ENDCHAR
STARTCHAR uni01E2
ENCODING 482
SWIDTH 958 0
DWIDTH 10 0
BBX 9 10 0 0
BITMAP
0600
0000
1F80
1800
1800
2800
2780
7800
4800
8F80
ENDCHAR
STARTCHAR uni01E3
ENCODING 483
SWIDTH 921 0
DWIDTH 9 0
BBX 8 8 1 0
BITMAP
38
00
EE
11
7F
90
90
EE
ENDCHAR
STARTCHAR uni01E4
ENCODING 484
SWIDTH 738 0
DWIDTH 7 0
BBX 6 8 1 0
BITMAP
78
84
84
80
9C
9C
88
78
ENDCHAR
STARTCHAR uni01E5
ENCODING 485
SWIDTH 583 0
DWIDTH 6 0
BBX 5 8 1 -2
BITMAP
F0
90
B8
90
90
F0
10
F0
ENDCHAR
STARTCHAR uni01E6
ENCODING 486
SWIDTH 738 0
DWIDTH 7 0
BBX 6 11 1 0
BITMAP
50
20
00
78
84
84
80
9C
84
84
78
ENDCHAR
STARTCHAR uni01E7
ENCODING 487
SWIDTH 583 0
DWIDTH 6 0
BBX 4 11 1 -2
BITMAP
10
60
00
F0
90
90
90
90
F0
10
F0
ENDCHAR
STARTCHAR uni01E8
ENCODING 488
SWIDTH 616 0
DWIDTH 6 0
BBX 5 10 1 0
BITMAP
60
00
88
90
A0
C0
C0
A0
90
88
ENDCHAR
STARTCHAR uni01E9
ENCODING 489
SWIDTH 487 0
DWIDTH 5 0
BBX 5 10 0 0
BITMAP
C0
00
40
40
50
60
40
60
50
48
ENDCHAR
STARTCHAR uni01EA
ENCODING 490
SWIDTH 747 0
DWIDTH 7 0
BBX 6 10 1 -2
BITMAP
78
84
84
84
84
84
84
58
20
20
ENDCHAR
STARTCHAR uni01EB
ENCODING 491
SWIDTH 579 0
DWIDTH 6 0
BBX 4 8 1 -2
BITMAP
E0
90
90
90
90
B0
40
60
ENDCHAR
STARTCHAR uni01EC
ENCODING 492
SWIDTH 747 0
DWIDTH 7 0
BBX 6 12 1 -2
BITMAP
30
00
78
84
84
84
84
84
84
58
20
20
ENDCHAR
STARTCHAR uni01ED
ENCODING 493
SWIDTH 579 0
DWIDTH 6 0
BBX 4 10 1 -2
BITMAP
60
00
E0
90
90
90
90
B0
40
60
ENDCHAR
STARTCHAR uni01EE
ENCODING 494
SWIDTH 693 0
DWIDTH 7 0
BBX 5 13 1 -2
BITMAP
50
20
00
F8
10
20
60
10
08
08
88
88
F0
ENDCHAR
STARTCHAR uni01EF
ENCODING 495
SWIDTH 599 0
DWIDTH 6 0
BBX 4 11 1 -2
BITMAP
10
60
00
F0
20
20
60
10
10
90
F0
ENDCHAR
STARTCHAR uni01F0
ENCODING 496
SWIDTH 221 0
DWIDTH 2 0
BBX 2 11 0 -2
BITMAP
40
C0
00
40
40
40
40
40
40
40
80
ENDCHAR
STARTCHAR uni01F1
ENCODING 497
SWIDTH 1319 0
DWIDTH 13 0
BBX 11 8 1 0
BITMAP
F1E0
8820
8420
8440
8480
8480
8900
F1E0
ENDCHAR
STARTCHAR uni01F2
ENCODING 498
SWIDTH 1223 0
DWIDTH 12 0
BBX 11 8 1 0
BITMAP
F000
8800
85E0
8440
8480
8480
8900
F1E0
ENDCHAR
STARTCHAR uni01F3
ENCODING 499
SWIDTH 1031 0
DWIDTH 10 0
BBX 9 8 1 0
BITMAP
1000
1000
F780
9100
9100
9200
9400
F780
ENDCHAR
STARTCHAR uni01F4
ENCODING 500
SWIDTH 738 0
DWIDTH 7 0
BBX 6 10 1 0
BITMAP
10
00
78
84
84
80
9C
84
84
78
ENDCHAR
STARTCHAR uni01F5
ENCODING 501
SWIDTH 583 0
DWIDTH 6 0
BBX 4 11 1 -2
BITMAP
20
20
00
F0
90
90
90
90
F0
10
F0
ENDCHAR
STARTCHAR uni01F6
ENCODING 502
SWIDTH 1107 0
DWIDTH 11 0
BBX 9 8 1 0
BITMAP
8400
8400
8480
F880
8480
8480
8480
8780
ENDCHAR
STARTCHAR uni01F7
ENCODING 503
SWIDTH 478 0
DWIDTH 5 0
BBX 5 10 0 -2
BITMAP
F0
88
88
88
88
88
90
A0
C0
80
ENDCHAR
STARTCHAR uni01F8
ENCODING 504
SWIDTH 772 0
DWIDTH 8 0
BBX 6 10 1 0
BITMAP
20
00
84
84
C4
A4
94
94
8C
84
ENDCHAR
STARTCHAR uni01F9
ENCODING 505
SWIDTH 568 0
DWIDTH 6 0
BBX 4 9 1 0
BITMAP
80
40
00
E0
90
90
90
90
90
ENDCHAR
STARTCHAR uni01FA
ENCODING 506
SWIDTH 616 0
DWIDTH 6 0
BBX 6 11 0 0
BITMAP
10
10
30
20
30
30
48
48
78
84
84
ENDCHAR
STARTCHAR uni01FB
ENCODING 507
SWIDTH 541 0
DWIDTH 5 0
BBX 3 9 1 0
BITMAP
40
60
40
A0
20
60
A0
A0
E0
ENDCHAR
STARTCHAR uni01FC
ENCODING 508
SWIDTH 958 0
DWIDTH 10 0
BBX 9 10 0 0
BITMAP
0200
0000
1F80
1800
1800
2800
2780
7800
4800
8F80
ENDCHAR
STARTCHAR uni01FD
ENCODING 509
SWIDTH 921 0
DWIDTH 9 0
BBX 8 9 1 0
BITMAP
08
10
00
EE
11
7F
90
90
EE
ENDCHAR
STARTCHAR uni01FE
ENCODING 510
SWIDTH 747 0
DWIDTH 7 0
BBX 6 10 1 0
BITMAP
10
00
78
88
94
94
A4
C4
84
F8
ENDCHAR
STARTCHAR uni01FF
ENCODING 511
SWIDTH 579 0
DWIDTH 6 0
BBX 4 9 1 0
BITMAP
20
20
00
F0
B0
B0
D0
90
F0
ENDCHAR
STARTCHAR uni0200
ENCODING 512
SWIDTH 616 0
DWIDTH 6 0
BBX 6 10 0 0
BITMAP
60
10
20
30
30
48
48
78
84
84
ENDCHAR
STARTCHAR uni0201
ENCODING 513
SWIDTH 541 0
DWIDTH 5 0
BBX 3 9 1 0
BITMAP
C0
40
00
E0
20
60
A0
A0
E0
ENDCHAR
STARTCHAR uni0202
ENCODING 514
SWIDTH 616 0
DWIDTH 6 0
BBX 6 11 0 0
BITMAP
10
20
00
20
30
30
48
48
78
84
84
ENDCHAR
STARTCHAR uni0203
ENCODING 515
SWIDTH 541 0
DWIDTH 5 0
BBX 3 8 1 0
BITMAP
60
00
E0
20
60
A0
A0
E0
ENDCHAR
STARTCHAR uni0204
ENCODING 516
SWIDTH 583 0
DWIDTH 6 0
BBX 4 10 1 0
BITMAP
C0
20
D0
80
80
80
F0
80
80
F0
ENDCHAR
STARTCHAR uni0205
ENCODING 517
SWIDTH 576 0
DWIDTH 6 0
BBX 4 9 1 0
BITMAP
C0
40
00
F0
90
F0
80
80
F0
ENDCHAR
STARTCHAR uni0206
ENCODING 518
SWIDTH 583 0
DWIDTH 6 0
BBX 4 11 1 0
BITMAP
20
40
00
F0
80
80
80
F0
80
80
F0
ENDCHAR
STARTCHAR uni0207
ENCODING 519
SWIDTH 576 0
DWIDTH 6 0
BBX 4 8 1 0
BITMAP
60
00
F0
90
F0
80
80
F0
ENDCHAR
STARTCHAR uni0208
ENCODING 520
SWIDTH 250 0
DWIDTH 3 0
BBX 2 10 0 0
BITMAP
80
40
40
40
40
40
40
40
40
40
ENDCHAR
STARTCHAR uni0209
ENCODING 521
SWIDTH 221 0
DWIDTH 2 0
BBX 2 9 0 0
BITMAP
80
C0
00
40
40
40
40
40
40
ENDCHAR
STARTCHAR uni020A
ENCODING 522
SWIDTH 250 0
DWIDTH 3 0
BBX 2 11 0 0
BITMAP
40
80
00
40
40
40
40
40
40
40
40
ENDCHAR
STARTCHAR uni020B
ENCODING 523
SWIDTH 221 0
DWIDTH 2 0
BBX 2 8 0 0
BITMAP
C0
00
40
40
40
40
40
40
ENDCHAR
STARTCHAR uni020C
ENCODING 524
SWIDTH 747 0
DWIDTH 7 0
BBX 6 10 1 0
BITMAP
60
20
58
84
84
84
84
84
84
78
ENDCHAR
STARTCHAR uni020D
ENCODING 525
SWIDTH 579 0
DWIDTH 6 0
BBX 4 9 1 0
BITMAP
C0
40
00
E0
90
90
90
90
F0
ENDCHAR
STARTCHAR uni020E
ENCODING 526
SWIDTH 747 0
DWIDTH 7 0
BBX 6 11 1 0
BITMAP
20
10
00
78
84
84
84
84
84
84
78
ENDCHAR
STARTCHAR uni020F
ENCODING 527
SWIDTH 579 0
DWIDTH 6 0
BBX 4 8 1 0
BITMAP
60
00
E0
90
90
90
90
F0
ENDCHAR
STARTCHAR uni0210
ENCODING 528
SWIDTH 615 0
DWIDTH 6 0
BBX 5 10 1 0
BITMAP
C0
60
90
88
88
90
E0
90
90
88
ENDCHAR
STARTCHAR uni0211
ENCODING 529
SWIDTH 325 0
DWIDTH 3 0
BBX 2 9 1 0
BITMAP
80
C0
00
C0
80
80
80
80
80
ENDCHAR
STARTCHAR uni0212
ENCODING 530
SWIDTH 615 0
DWIDTH 6 0
BBX 5 11 1 0
BITMAP
20
40
00
F0
88
88
90
E0
90
90
88
ENDCHAR
STARTCHAR uni0213
ENCODING 531
SWIDTH 325 0
DWIDTH 3 0
BBX 2 8 1 0
BITMAP
C0
00
C0
80
80
80
80
80
ENDCHAR
STARTCHAR uni0214
ENCODING 532
SWIDTH 750 0
DWIDTH 8 0
BBX 5 10 1 0
BITMAP
60
20
88
88
88
88
88
88
88
78
ENDCHAR
STARTCHAR uni0215
ENCODING 533
SWIDTH 568 0
DWIDTH 6 0
BBX 4 9 1 0
BITMAP
C0
40
00
90
90
90
90
90
F0
ENDCHAR
STARTCHAR uni0216
ENCODING 534
SWIDTH 750 0
DWIDTH 8 0
BBX 5 11 1 0
BITMAP
20
10
00
88
88
88
88
88
88
88
78
ENDCHAR
STARTCHAR uni0217
ENCODING 535
SWIDTH 568 0
DWIDTH 6 0
BBX 4 8 1 0
BITMAP
60
00
90
90
90
90
90
F0
ENDCHAR
STARTCHAR uni0218
ENCODING 536
SWIDTH 612 0
DWIDTH 6 0
BBX 4 10 1 -2
BITMAP
F0
90
80
40
30
10
90
D0
20
40
ENDCHAR
STARTCHAR uni0219
ENCODING 537
SWIDTH 492 0
DWIDTH 5 0
BBX 3 8 1 -2
BITMAP
E0
80
C0
20
20
A0
40
40
ENDCHAR
STARTCHAR uni021A
ENCODING 538
SWIDTH 613 0
DWIDTH 6 0
BBX 5 10 1 -2
BITMAP
F8
20
20
20
20
20
20
20
20
40
ENDCHAR
STARTCHAR uni021B
ENCODING 539
SWIDTH 348 0
DWIDTH 3 0
BBX 2 10 1 -2
BITMAP
80
80
C0
80
80
80
80
80
40
80
ENDCHAR
STARTCHAR uni021C
ENCODING 540
SWIDTH 590 0
DWIDTH 6 0
BBX 4 10 1 -2
BITMAP
F0
90
10
10
30
D0
10
10
10
E0
ENDCHAR
STARTCHAR uni021D
ENCODING 541
SWIDTH 503 0
DWIDTH 5 0
BBX 3 8 1 -2
BITMAP
E0
A0
20
60
A0
20
20
C0
ENDCHAR
STARTCHAR uni021E
ENCODING 542
SWIDTH 735 0
DWIDTH 7 0
BBX 5 10 1 0
BITMAP
50
20
88
88
88
88
F8
88
88
88
ENDCHAR
STARTCHAR uni021F
ENCODING 543
SWIDTH 568 0
DWIDTH 6 0
BBX 5 10 0 0
BITMAP
C0
00
40
40
70
48
48
48
48
48
ENDCHAR
STARTCHAR uni0220
ENCODING 544
SWIDTH 518 0
DWIDTH 5 0
BBX 5 10 0 -2
BITMAP
F0
88
88
88
88
88
88
88
08
08
ENDCHAR
STARTCHAR uni0221
ENCODING 545
SWIDTH 719 0
DWIDTH 7 0
BBX 6 10 1 -2
BITMAP
10
10
F0
90
90
90
90
F8
14
1C
ENDCHAR
STARTCHAR uni0222
ENCODING 546
SWIDTH 565 0
DWIDTH 6 0
BBX 5 8 0 0
BITMAP
C8
88
88
70
88
88
88
78
ENDCHAR
STARTCHAR uni0223
ENCODING 547
SWIDTH 591 0
DWIDTH 6 0
BBX 6 8 0 0
BITMAP
CC
84
84
78
84
84
84
78
ENDCHAR
STARTCHAR uni0224
ENCODING 548
SWIDTH 583 0
DWIDTH 6 0
BBX 4 9 1 -1
BITMAP
F0
10
20
20
40
40
80
E0
10
ENDCHAR
STARTCHAR uni0225
ENCODING 549
SWIDTH 508 0
DWIDTH 5 0
BBX 4 7 1 -1
BITMAP
F0
20
40
40
80
E0
10
ENDCHAR
STARTCHAR uni0226
ENCODING 550
SWIDTH 616 0
DWIDTH 6 0
BBX 6 10 0 0
BITMAP
10
00
20
30
30
48
48
78
84
84
ENDCHAR
STARTCHAR uni0227
ENCODING 551
SWIDTH 541 0
DWIDTH 5 0
BBX 3 8 1 0
BITMAP
40
00
E0
20
60
A0
A0
E0
ENDCHAR
STARTCHAR uni0228
ENCODING 552
SWIDTH 583 0
DWIDTH 6 0
BBX 4 10 1 -2
BITMAP
F0
80
80
80
F0
80
80
D0
20
20
ENDCHAR
STARTCHAR uni0229
ENCODING 553
SWIDTH 576 0
DWIDTH 6 0
BBX 4 8 1 -2
BITMAP
F0
90
F0
80
80
D0
20
20
ENDCHAR
STARTCHAR uni022A
ENCODING 554
SWIDTH 747 0
DWIDTH 7 0
BBX 6 11 1 0
BITMAP
30
30
00
78
84
84
84
84
84
84
78
ENDCHAR
STARTCHAR uni022B
ENCODING 555
SWIDTH 579 0
DWIDTH 6 0
BBX 4 9 1 0
BITMAP
60
00
00
E0
90
90
90
90
F0
ENDCHAR
STARTCHAR uni022C
ENCODING 556
SWIDTH 747 0
DWIDTH 7 0
BBX 6 10 1 0
BITMAP
70
00
78
84
84
84
84
84
84
78
ENDCHAR
STARTCHAR uni022D
ENCODING 557
SWIDTH 579 0
DWIDTH 6 0
BBX 4 9 1 0
BITMAP
60
A0
00
E0
90
90
90
90
F0
ENDCHAR
STARTCHAR uni022E
ENCODING 558
SWIDTH 747 0
DWIDTH 7 0
BBX 6 10 1 0
BITMAP
20
00
78
84
84
84
84
84
84
78
ENDCHAR
STARTCHAR uni022F
ENCODING 559
SWIDTH 579 0
DWIDTH 6 0
BBX 4 6 1 0
BITMAP
E0
90
90
90
90
F0
ENDCHAR
STARTCHAR uni0230
ENCODING 560
SWIDTH 747 0
DWIDTH 7 0
BBX 6 11 1 0
BITMAP
30
20
00
78
84
84
84
84
84
84
78
ENDCHAR
STARTCHAR uni0231
ENCODING 561
SWIDTH 579 0
DWIDTH 6 0
BBX 4 9 1 0
BITMAP
60
40
00
E0
90
90
90
90
F0
ENDCHAR
STARTCHAR uni0232
ENCODING 562
SWIDTH 613 0
DWIDTH 6 0
BBX 6 10 0 0
BITMAP
30
00
84
48
28
30
10
10
10
10
ENDCHAR
STARTCHAR uni0233
ENCODING 563
SWIDTH 522 0
DWIDTH 5 0
BBX 4 10 1 -2
BITMAP
E0
00
90
90
A0
A0
40
40
40
80
ENDCHAR
STARTCHAR uni0234
ENCODING 564
SWIDTH 263 0
DWIDTH 3 0
BBX 4 10 0 -2
BITMAP
40
40
40
40
40
40
40
60
50
F0
ENDCHAR
STARTCHAR uni0235
ENCODING 565
SWIDTH 747 0
DWIDTH 7 0
BBX 6 8 1 -2
BITMAP
E0
90
90
90
90
98
14
28
ENDCHAR
STARTCHAR uni0236
ENCODING 566
SWIDTH 437 0
DWIDTH 4 0
BBX 3 8 1 0
BITMAP
80
80
C0
80
80
C0
A0
E0
ENDCHAR
STARTCHAR uni0237
ENCODING 567
SWIDTH 221 0
DWIDTH 2 0
BBX 1 8 0 -2
BITMAP
80
80
80
80
80
80
80
80
ENDCHAR
STARTCHAR uni0238
ENCODING 568
SWIDTH 853 0
DWIDTH 9 0
BBX 8 8 0 0
BITMAP
08
08
77
89
89
89
89
77
ENDCHAR
STARTCHAR uni0239
ENCODING 569
SWIDTH 853 0
DWIDTH 9 0
BBX 8 8 0 -2
BITMAP
77
89
89
89
89
77
08
08
ENDCHAR
STARTCHAR uni023A
ENCODING 570
SWIDTH 616 0
DWIDTH 6 0
BBX 6 10 0 -1
BITMAP
08
28
30
30
50
58
78
A4
C4
40
ENDCHAR
STARTCHAR uni023B
ENCODING 571
SWIDTH 723 0
DWIDTH 7 0
BBX 6 10 1 -1
BITMAP
08
78
94
94
A0
A0
A4
C4
78
40
ENDCHAR
STARTCHAR uni023C
ENCODING 572
SWIDTH 527 0
DWIDTH 5 0
BBX 5 10 0 -2
BITMAP
08
08
70
58
90
A0
48
78
40
80
ENDCHAR
STARTCHAR uni023D
ENCODING 573
SWIDTH 562 0
DWIDTH 6 0
BBX 5 8 0 0
BITMAP
40
40
40
E0
40
40
40
78
ENDCHAR
STARTCHAR uni023E
ENCODING 574
SWIDTH 613 0
DWIDTH 6 0
BBX 5 10 1 -1
BITMAP
10
E8
20
20
20
20
40
40
A0
80
ENDCHAR
STARTCHAR uni023F
ENCODING 575
SWIDTH 481 0
DWIDTH 5 0
BBX 3 8 1 -2
BITMAP
E0
80
C0
20
A0
E0
80
60
ENDCHAR
STARTCHAR uni0240
ENCODING 576
SWIDTH 508 0
DWIDTH 5 0
BBX 4 8 1 -2
BITMAP
F0
20
40
40
80
80
40
30
ENDCHAR
STARTCHAR uni0241
ENCODING 577
SWIDTH 504 0
DWIDTH 5 0
BBX 5 8 0 0
BITMAP
70
88
08
08
08
08
30
20
ENDCHAR
STARTCHAR uni0242
ENCODING 578
SWIDTH 489 0
DWIDTH 5 0
BBX 3 6 1 0
BITMAP
E0
A0
20
20
40
40
ENDCHAR
STARTCHAR uni0243
ENCODING 579
SWIDTH 688 0
DWIDTH 7 0
BBX 6 8 0 0
BITMAP
7C
44
44
38
44
E4
44
7C
ENDCHAR
STARTCHAR uni0244
ENCODING 580
SWIDTH 722 0
DWIDTH 7 0
BBX 7 8 0 0
BITMAP
42
42
42
FE
42
42
44
38
ENDCHAR
STARTCHAR uni0245
ENCODING 581
SWIDTH 669 0
DWIDTH 7 0
BBX 5 8 1 0
BITMAP
20
60
50
50
90
88
88
88
ENDCHAR
STARTCHAR uni0246
ENCODING 582
SWIDTH 583 0
DWIDTH 6 0
BBX 4 10 1 -1
BITMAP
10
F0
A0
A0
A0
F0
C0
C0
B0
40
ENDCHAR
STARTCHAR uni0247
ENCODING 583
SWIDTH 563 0
DWIDTH 6 0
BBX 5 10 0 -2
BITMAP
08
08
70
58
78
A0
40
78
40
80
ENDCHAR
STARTCHAR uni0248
ENCODING 584
SWIDTH 519 0
DWIDTH 5 0
BBX 4 8 1 0
BITMAP
20
20
20
30
20
20
20
E0
ENDCHAR
STARTCHAR uni0249
ENCODING 585
SWIDTH 221 0
DWIDTH 2 0
BBX 2 8 0 -2
BITMAP
40
40
C0
40
40
40
40
80
ENDCHAR
STARTCHAR uni024A
ENCODING 586
SWIDTH 747 0
DWIDTH 7 0
BBX 6 10 1 -2
BITMAP
74
88
84
84
84
84
88
74
04
04
ENDCHAR
STARTCHAR uni024B
ENCODING 587
SWIDTH 588 0
DWIDTH 6 0
BBX 5 8 1 -2
BITMAP
F0
90
90
90
90
F0
10
18
ENDCHAR
STARTCHAR uni024C
ENCODING 588
SWIDTH 619 0
DWIDTH 6 0
BBX 6 8 0 0
BITMAP
78
44
44
48
F0
48
48
44
ENDCHAR
STARTCHAR uni024D
ENCODING 589
SWIDTH 325 0
DWIDTH 3 0
BBX 3 6 0 0
BITMAP
60
40
40
C0
40
40
ENDCHAR
STARTCHAR uni024E
ENCODING 590
SWIDTH 609 0
DWIDTH 6 0
BBX 6 8 0 0
BITMAP
84
FC
30
20
10
10
10
10
ENDCHAR
STARTCHAR uni024F
ENCODING 591
SWIDTH 522 0
DWIDTH 5 0
BBX 5 8 0 -2
BITMAP
88
78
50
50
20
20
20
40
ENDCHAR
STARTCHAR uni0250
ENCODING 592
SWIDTH 541 0
DWIDTH 5 0
BBX 4 6 1 0
BITMAP
F0
90
90
E0
90
E0
ENDCHAR
STARTCHAR uni0251
ENCODING 593
SWIDTH 629 0
DWIDTH 6 0
BBX 5 6 1 0
BITMAP
F8
90
88
88
90
F8
ENDCHAR
STARTCHAR uni0252
ENCODING 594
SWIDTH 595 0
DWIDTH 6 0
BBX 4 6 1 0
BITMAP
F0
90
90
90
90
F0
ENDCHAR
STARTCHAR uni0253
ENCODING 595
SWIDTH 598 0
DWIDTH 6 0
BBX 4 8 1 0
BITMAP
80
80
F0
90
90
90
90
F0
ENDCHAR
STARTCHAR uni0254
ENCODING 596
SWIDTH 504 0
DWIDTH 5 0
BBX 5 6 0 0
BITMAP
70
88
08
08
88
70
ENDCHAR
STARTCHAR uni0255
ENCODING 597
SWIDTH 548 0
DWIDTH 5 0
BBX 5 6 0 0
BITMAP
70
48
80
B0
48
F8
ENDCHAR
STARTCHAR uni0256
ENCODING 598
SWIDTH 586 0
DWIDTH 6 0
BBX 5 10 1 -2
BITMAP
10
10
F0
90
90
90
90
F0
10
18
ENDCHAR
STARTCHAR uni0257
ENCODING 599
SWIDTH 574 0
DWIDTH 6 0
BBX 5 8 1 0
BITMAP
18
10
F0
90
90
90
90
F0
ENDCHAR
STARTCHAR uni0258
ENCODING 600
SWIDTH 505 0
DWIDTH 5 0
BBX 5 6 0 0
BITMAP
70
88
F8
08
88
70
ENDCHAR
STARTCHAR uni0259
ENCODING 601
SWIDTH 576 0
DWIDTH 6 0
BBX 4 6 1 0
BITMAP
E0
10
10
F0
90
E0
ENDCHAR
STARTCHAR uni025A
ENCODING 602
SWIDTH 580 0
DWIDTH 6 0
BBX 6 6 0 0
BITMAP
70
90
78
94
90
70
ENDCHAR
STARTCHAR uni025B
ENCODING 603
SWIDTH 529 0
DWIDTH 5 0
BBX 4 6 1 0
BITMAP
E0
80
40
80
90
E0
ENDCHAR
STARTCHAR uni025C
ENCODING 604
SWIDTH 567 0
DWIDTH 6 0
BBX 4 6 1 0
BITMAP
F0
10
60
10
90
E0
ENDCHAR
STARTCHAR uni025D
ENCODING 605
SWIDTH 610 0
DWIDTH 6 0
BBX 5 6 1 0
BITMAP
E0
90
68
10
90
E0
ENDCHAR
STARTCHAR uni025E
ENCODING 606
SWIDTH 494 0
DWIDTH 5 0
BBX 4 6 0 0
BITMAP
70
90
A0
90
90
70
ENDCHAR
STARTCHAR uni025F
ENCODING 607
SWIDTH 221 0
DWIDTH 2 0
BBX 2 8 0 -2
BITMAP
40
40
C0
40
40
40
40
80
ENDCHAR
STARTCHAR uni0260
ENCODING 608
SWIDTH 577 0
DWIDTH 6 0
BBX 5 10 1 -2
BITMAP
18
10
F0
90
90
90
90
F0
10
F0
ENDCHAR
STARTCHAR uni0261
ENCODING 609
SWIDTH 583 0
DWIDTH 6 0
BBX 4 8 1 -2
BITMAP
F0
90
90
90
90
F0
10
F0
ENDCHAR
STARTCHAR uni0262
ENCODING 610
SWIDTH 589 0
DWIDTH 6 0
BBX 4 6 1 0
BITMAP
F0
90
80
B0
90
F0
ENDCHAR
STARTCHAR uni0263
ENCODING 611
SWIDTH 528 0
DWIDTH 5 0
BBX 5 8 0 -2
BITMAP
88
88
50
50
20
20
20
70
ENDCHAR
STARTCHAR uni0264
ENCODING 612
SWIDTH 734 0
DWIDTH 7 0
BBX 6 6 1 0
BITMAP
DC
20
20
20
50
70
ENDCHAR
STARTCHAR uni0265
ENCODING 613
SWIDTH 568 0
DWIDTH 6 0
BBX 4 8 1 -2
BITMAP
90
90
90
90
90
F0
10
10
ENDCHAR
STARTCHAR uni0266
ENCODING 614
SWIDTH 568 0
DWIDTH 6 0
BBX 4 8 1 0
BITMAP
80
80
E0
90
90
90
90
90
ENDCHAR
STARTCHAR uni0267
ENCODING 615
SWIDTH 548 0
DWIDTH 5 0
BBX 4 10 1 -2
BITMAP
80
80
E0
90
90
90
90
90
10
30
ENDCHAR
STARTCHAR uni0268
ENCODING 616
SWIDTH 221 0
DWIDTH 2 0
BBX 2 6 0 0
BITMAP
40
40
C0
40
40
40
ENDCHAR
STARTCHAR uni03B9
ENCODING 617
SWIDTH 215 0
DWIDTH 2 0
BBX 1 6 1 0
BITMAP
80
80
80
80
80
80
ENDCHAR
STARTCHAR uni026A
ENCODING 618
SWIDTH 247 0
DWIDTH 2 0
BBX 2 6 0 0
BITMAP
C0
40
40
40
40
C0
ENDCHAR
STARTCHAR uni026B
ENCODING 619
SWIDTH 215 0
DWIDTH 2 0
BBX 4 8 -1 0
BITMAP
20
20
20
50
A0
20
20
20
ENDCHAR
STARTCHAR uni026C
ENCODING 620
SWIDTH 334 0
DWIDTH 3 0
BBX 3 8 0 0
BITMAP
20
20
C0
A0
60
20
20
20
ENDCHAR
STARTCHAR uni026D
ENCODING 621
SWIDTH 209 0
DWIDTH 2 0
BBX 1 10 1 -2
BITMAP
80
80
80
80
80
80
80
80
80
80
ENDCHAR
STARTCHAR uni026E
ENCODING 622
SWIDTH 558 0
DWIDTH 6 0
BBX 4 10 1 -2
BITMAP
80
80
F0
A0
A0
C0
90
90
10
E0
ENDCHAR
STARTCHAR uni026F
ENCODING 623
SWIDTH 835 0
DWIDTH 8 0
BBX 6 6 1 0
BITMAP
94
94
94
94
94
FC
ENDCHAR
STARTCHAR uni0270
ENCODING 624
SWIDTH 826 0
DWIDTH 8 0
BBX 6 8 1 -2
BITMAP
94
94
94
94
94
FC
04
04
ENDCHAR
STARTCHAR uni0271
ENCODING 625
SWIDTH 835 0
DWIDTH 8 0
BBX 6 8 1 -2
BITMAP
FC
94
94
94
94
94
04
04
ENDCHAR
STARTCHAR uni0272
ENCODING 626
SWIDTH 566 0
DWIDTH 6 0
BBX 5 8 0 -2
BITMAP
70
48
48
48
48
48
40
80
ENDCHAR
STARTCHAR uni0273
ENCODING 627
SWIDTH 516 0
DWIDTH 5 0
BBX 5 8 1 -2
BITMAP
E0
90
90
90
90
90
10
18
ENDCHAR
STARTCHAR uni0274
ENCODING 628
SWIDTH 602 0
DWIDTH 6 0
BBX 4 6 1 0
BITMAP
90
90
D0
B0
B0
90
ENDCHAR
STARTCHAR uni0275
ENCODING 629
SWIDTH 579 0
DWIDTH 6 0
BBX 4 6 1 0
BITMAP
E0
90
F0
90
90
E0
ENDCHAR
STARTCHAR uni0276
ENCODING 630
SWIDTH 931 0
DWIDTH 9 0
BBX 7 6 1 0
BITMAP
7E
90
8E
90
90
7E
ENDCHAR
STARTCHAR uni0277
ENCODING 631
SWIDTH 690 0
DWIDTH 7 0
BBX 7 6 0 0
BITMAP
7C
82
82
92
92
6C
ENDCHAR
STARTCHAR uni0278
ENCODING 632
SWIDTH 514 0
DWIDTH 5 0
BBX 3 10 1 -2
BITMAP
40
40
E0
E0
E0
E0
E0
60
40
40
ENDCHAR
STARTCHAR uni0279
ENCODING 633
SWIDTH 325 0
DWIDTH 3 0
BBX 2 6 0 0
BITMAP
40
40
40
40
40
C0
ENDCHAR
STARTCHAR uni027A
ENCODING 634
SWIDTH 321 0
DWIDTH 3 0
BBX 2 8 1 0
BITMAP
40
40
40
40
40
40
40
C0
ENDCHAR
STARTCHAR uni027B
ENCODING 635
SWIDTH 313 0
DWIDTH 3 0
BBX 3 8 0 -2
BITMAP
20
20
20
20
20
C0
20
20
ENDCHAR
STARTCHAR uni027C
ENCODING 636
SWIDTH 362 0
DWIDTH 4 0
BBX 2 8 1 -2
BITMAP
C0
80
80
80
80
80
80
80
ENDCHAR
STARTCHAR uni027D
ENCODING 637
SWIDTH 362 0
DWIDTH 4 0
BBX 2 8 1 -2
BITMAP
C0
80
80
80
80
80
80
80
ENDCHAR
STARTCHAR uni027E
ENCODING 638
SWIDTH 233 0
DWIDTH 2 0
BBX 1 6 1 0
BITMAP
80
80
80
80
80
80
ENDCHAR
STARTCHAR uni027F
ENCODING 639
SWIDTH 223 0
DWIDTH 2 0
BBX 1 8 0 -2
BITMAP
80
80
80
80
80
80
80
80
ENDCHAR
STARTCHAR uni0280
ENCODING 640
SWIDTH 588 0
DWIDTH 6 0
BBX 4 6 1 0
BITMAP
F0
90
90
E0
A0
90
ENDCHAR
STARTCHAR uni0281
ENCODING 641
SWIDTH 588 0
DWIDTH 6 0
BBX 4 6 1 0
BITMAP
90
A0
E0
90
90
F0
ENDCHAR
STARTCHAR uni0282
ENCODING 642
SWIDTH 492 0
DWIDTH 5 0
BBX 3 8 1 -2
BITMAP
E0
80
C0
20
20
E0
80
80
ENDCHAR
STARTCHAR uni0283
ENCODING 643
SWIDTH 386 0
DWIDTH 4 0
BBX 4 10 0 -2
BITMAP
30
40
40
40
40
40
40
40
40
C0
ENDCHAR
STARTCHAR uni0284
ENCODING 644
SWIDTH 386 0
DWIDTH 4 0
BBX 4 10 0 -2
BITMAP
30
40
40
40
40
40
40
60
40
C0
ENDCHAR
STARTCHAR uni0285
ENCODING 645
SWIDTH 384 0
DWIDTH 4 0
BBX 4 8 0 -2
BITMAP
C0
40
40
40
40
40
40
30
ENDCHAR
STARTCHAR uni0286
ENCODING 646
SWIDTH 522 0
DWIDTH 5 0
BBX 4 10 1 -2
BITMAP
30
20
20
20
20
20
20
20
E0
E0
ENDCHAR
STARTCHAR uni0287
ENCODING 647
SWIDTH 348 0
DWIDTH 3 0
BBX 3 7 0 -1
BITMAP
C0
20
20
20
20
60
20
ENDCHAR
STARTCHAR uni0288
ENCODING 648
SWIDTH 348 0
DWIDTH 3 0
BBX 2 10 1 -2
BITMAP
80
80
C0
80
80
80
80
80
80
C0
ENDCHAR
STARTCHAR uni0289
ENCODING 649
SWIDTH 558 0
DWIDTH 6 0
BBX 6 6 0 0
BITMAP
48
48
FC
48
48
78
ENDCHAR
STARTCHAR uni028A
ENCODING 650
SWIDTH 589 0
DWIDTH 6 0
BBX 5 6 0 0
BITMAP
C8
48
48
88
88
78
ENDCHAR
STARTCHAR uni028B
ENCODING 651
SWIDTH 481 0
DWIDTH 5 0
BBX 3 6 1 0
BITMAP
E0
A0
A0
A0
A0
E0
ENDCHAR
STARTCHAR uni028C
ENCODING 652
SWIDTH 522 0
DWIDTH 5 0
BBX 4 6 1 0
BITMAP
40
40
A0
A0
90
90
ENDCHAR
STARTCHAR uni028D
ENCODING 653
SWIDTH 789 0
DWIDTH 8 0
BBX 6 6 1 0
BITMAP
48
C8
D4
B4
A4
A4
ENDCHAR
STARTCHAR uni028E
ENCODING 654
SWIDTH 522 0
DWIDTH 5 0
BBX 4 8 1 0
BITMAP
30
40
40
40
A0
A0
90
90
ENDCHAR
STARTCHAR uni028F
ENCODING 655
SWIDTH 509 0
DWIDTH 5 0
BBX 5 6 0 0
BITMAP
88
50
50
20
20
20
ENDCHAR
STARTCHAR uni0290
ENCODING 656
SWIDTH 539 0
DWIDTH 5 0
BBX 4 8 1 -2
BITMAP
F0
20
40
40
80
E0
10
10
ENDCHAR
STARTCHAR uni0291
ENCODING 657
SWIDTH 561 0
DWIDTH 6 0
BBX 4 7 1 -1
BITMAP
F0
20
40
70
D0
F0
80
ENDCHAR
STARTCHAR uni0292
ENCODING 658
SWIDTH 599 0
DWIDTH 6 0
BBX 4 8 1 -2
BITMAP
F0
20
20
60
10
10
90
F0
ENDCHAR
STARTCHAR uni0293
ENCODING 659
SWIDTH 592 0
DWIDTH 6 0
BBX 4 8 1 -2
BITMAP
F0
20
20
60
10
50
B0
F0
ENDCHAR
STARTCHAR uni0294
ENCODING 660
SWIDTH 502 0
DWIDTH 5 0
BBX 5 8 0 0
BITMAP
70
88
08
08
08
30
20
20
ENDCHAR
STARTCHAR uni0295
ENCODING 661
SWIDTH 502 0
DWIDTH 5 0
BBX 5 8 0 0
BITMAP
70
88
80
80
80
60
20
20
ENDCHAR
STARTCHAR uni0296
ENCODING 662
SWIDTH 502 0
DWIDTH 5 0
BBX 5 8 0 0
BITMAP
20
20
10
08
08
08
88
70
ENDCHAR
STARTCHAR uni0297
ENCODING 663
SWIDTH 495 0
DWIDTH 5 0
BBX 5 8 0 -2
BITMAP
70
88
80
80
80
80
88
70
ENDCHAR
STARTCHAR uni0298
ENCODING 664
SWIDTH 747 0
DWIDTH 7 0
BBX 6 8 1 0
BITMAP
78
84
84
A4
84
84
84
78
ENDCHAR
STARTCHAR uni0299
ENCODING 665
SWIDTH 549 0
DWIDTH 6 0
BBX 4 6 1 0
BITMAP
F0
90
E0
90
90
F0
ENDCHAR
STARTCHAR uni029A
ENCODING 666
SWIDTH 494 0
DWIDTH 5 0
BBX 5 6 0 0
BITMAP
70
88
68
88
88
70
ENDCHAR
STARTCHAR uni029B
ENCODING 667
SWIDTH 546 0
DWIDTH 5 0
BBX 5 6 1 0
BITMAP
F8
90
80
B0
90
F0
ENDCHAR
STARTCHAR uni029C
ENCODING 668
SWIDTH 583 0
DWIDTH 6 0
BBX 4 6 1 0
BITMAP
90
90
90
F0
90
90
ENDCHAR
STARTCHAR uni029D
ENCODING 669
SWIDTH 221 0
DWIDTH 2 0
BBX 3 10 -1 -2
BITMAP
20
00
20
20
20
20
20
60
A0
E0
ENDCHAR
STARTCHAR uni029E
ENCODING 670
SWIDTH 487 0
DWIDTH 5 0
BBX 4 8 0 -2
BITMAP
90
50
30
30
50
D0
10
10
ENDCHAR
STARTCHAR uni029F
ENCODING 671
SWIDTH 415 0
DWIDTH 4 0
BBX 3 6 1 0
BITMAP
80
80
80
80
80
E0
ENDCHAR
STARTCHAR uni02A0
ENCODING 672
SWIDTH 605 0
DWIDTH 6 0
BBX 5 10 1 -2
BITMAP
08
10
F0
90
90
90
90
F0
10
10
ENDCHAR
STARTCHAR uni02A1
ENCODING 673
SWIDTH 502 0
DWIDTH 5 0
BBX 5 8 0 0
BITMAP
70
88
08
08
08
30
70
20
ENDCHAR
STARTCHAR uni02A2
ENCODING 674
SWIDTH 502 0
DWIDTH 5 0
BBX 5 8 0 0
BITMAP
70
88
80
80
80
60
70
20
ENDCHAR
STARTCHAR uni02A3
ENCODING 675
SWIDTH 981 0
DWIDTH 10 0
BBX 8 8 1 0
BITMAP
10
10
FF
91
92
94
94
FF
ENDCHAR
STARTCHAR uni02A4
ENCODING 676
SWIDTH 903 0
DWIDTH 9 0
BBX 9 10 0 -2
BITMAP
0800
0800
7F00
8A00
8A00
8B00
8880
7880
0880
0700
ENDCHAR
STARTCHAR uni02A5
ENCODING 677
SWIDTH 1035 0
DWIDTH 10 0
BBX 9 9 1 -1
BITMAP
1000
1000
FF00
9100
9200
9500
9680
FB80
0400
ENDCHAR
STARTCHAR uni02A6
ENCODING 678
SWIDTH 553 0
DWIDTH 6 0
BBX 5 8 0 0
BITMAP
40
40
F8
48
70
48
48
78
ENDCHAR
STARTCHAR uni02A7
ENCODING 679
SWIDTH 336 0
DWIDTH 3 0
BBX 4 10 0 -2
BITMAP
30
C0
C0
C0
C0
C0
C0
C0
40
C0
ENDCHAR
STARTCHAR uni02A8
ENCODING 680
SWIDTH 811 0
DWIDTH 8 0
BBX 6 8 1 0
BITMAP
80
80
DC
A4
A0
A8
B4
FC
ENDCHAR
STARTCHAR uni02A9
ENCODING 681
SWIDTH 726 0
DWIDTH 7 0
BBX 6 10 1 -2
BITMAP
C0
80
F8
C4
C4
C4
C4
C4
04
0C
ENDCHAR
STARTCHAR uni02AA
ENCODING 682
SWIDTH 499 0
DWIDTH 5 0
BBX 5 8 0 0
BITMAP
80
80
F0
88
E0
98
88
F0
ENDCHAR
STARTCHAR uni02AB
ENCODING 683
SWIDTH 612 0
DWIDTH 6 0
BBX 5 8 1 0
BITMAP
80
80
F8
90
90
A0
C0
F8
ENDCHAR
STARTCHAR uni02AC
ENCODING 684
SWIDTH 303 0
DWIDTH 3 0
BBX 3 8 0 0
BITMAP
E0
E0
A0
00
00
E0
E0
A0
ENDCHAR
STARTCHAR uni02AD
ENCODING 685
SWIDTH 580 0
DWIDTH 6 0
BBX 4 8 1 0
BITMAP
F0
90
90
90
00
F0
90
90
ENDCHAR
STARTCHAR uni02AE
ENCODING 686
SWIDTH 639 0
DWIDTH 6 0
BBX 4 8 1 -2
BITMAP
90
90
90
90
90
70
10
10
ENDCHAR
STARTCHAR uni02AF
ENCODING 687
SWIDTH 643 0
DWIDTH 6 0
BBX 5 8 1 -2
BITMAP
88
88
88
88
88
70
08
08
ENDCHAR
STARTCHAR uni02B0
ENCODING 688
SWIDTH 382 0
DWIDTH 4 0
BBX 2 5 1 4
BITMAP
80
C0
C0
C0
C0
ENDCHAR
STARTCHAR uni02B1
ENCODING 689
SWIDTH 391 0
DWIDTH 4 0
BBX 2 6 1 4
BITMAP
80
80
C0
C0
C0
C0
ENDCHAR
STARTCHAR uni02B2
ENCODING 690
SWIDTH 149 0
DWIDTH 1 0
BBX 1 6 0 2
BITMAP
80
80
80
80
80
80
ENDCHAR
STARTCHAR uni02B3
ENCODING 691
SWIDTH 244 0
DWIDTH 2 0
BBX 1 4 1 4
BITMAP
80
80
80
80
ENDCHAR
STARTCHAR uni02B4
ENCODING 692
SWIDTH 217 0
DWIDTH 2 0
BBX 2 5 0 3
BITMAP
40
40
40
40
C0
ENDCHAR
STARTCHAR uni02B5
ENCODING 693
SWIDTH 336 0
DWIDTH 3 0
BBX 2 6 1 2
BITMAP
80
80
80
80
80
40
ENDCHAR
STARTCHAR uni02B6
ENCODING 694
SWIDTH 415 0
DWIDTH 4 0
BBX 4 5 0 3
BITMAP
90
E0
90
90
E0
ENDCHAR
STARTCHAR uni02B7
ENCODING 695
SWIDTH 529 0
DWIDTH 5 0
BBX 5 4 0 4
BITMAP
A8
A8
50
50
ENDCHAR
STARTCHAR uni02B8
ENCODING 696
SWIDTH 352 0
DWIDTH 4 0
BBX 3 6 0 2
BITMAP
A0
A0
40
40
40
C0
ENDCHAR
STARTCHAR uni02B9
ENCODING 697
SWIDTH 198 0
DWIDTH 2 0
BBX 1 3 1 5
BITMAP
80
80
80
ENDCHAR
STARTCHAR uni02BA
ENCODING 698
SWIDTH 296 0
DWIDTH 3 0
BBX 1 3 1 5
BITMAP
80
80
80
ENDCHAR
STARTCHAR uni02BB
ENCODING 699
SWIDTH 237 0
DWIDTH 2 0
BBX 1 3 1 5
BITMAP
80
80
80
ENDCHAR
STARTCHAR uni02BC
ENCODING 700
SWIDTH 208 0
DWIDTH 2 0
BBX 1 3 0 5
BITMAP
80
80
80
ENDCHAR
STARTCHAR uni02BD
ENCODING 701
SWIDTH 257 0
DWIDTH 3 0
BBX 1 3 1 5
BITMAP
80
80
80
ENDCHAR
STARTCHAR uni02BE
ENCODING 702
SWIDTH 150 0
DWIDTH 2 0
BBX 1 3 0 6
BITMAP
80
80
80
ENDCHAR
STARTCHAR uni02BF
ENCODING 703
SWIDTH 150 0
DWIDTH 2 0
BBX 1 3 0 6
BITMAP
80
80
80
ENDCHAR
STARTCHAR uni02C0
ENCODING 704
SWIDTH 362 0
DWIDTH 4 0
BBX 3 7 0 3
BITMAP
40
A0
20
20
20
40
40
ENDCHAR
STARTCHAR uni02C1
ENCODING 705
SWIDTH 362 0
DWIDTH 4 0
BBX 3 7 0 3
BITMAP
40
A0
80
80
80
40
40
ENDCHAR
STARTCHAR uni02C2
ENCODING 706
SWIDTH 448 0
DWIDTH 4 0
BBX 3 3 1 3
BITMAP
60
80
60
ENDCHAR
STARTCHAR uni02C3
ENCODING 707
SWIDTH 448 0
DWIDTH 4 0
BBX 3 3 1 3
BITMAP
C0
20
C0
ENDCHAR
STARTCHAR uni02C4
ENCODING 708
SWIDTH 415 0
DWIDTH 4 0
BBX 4 4 0 3
BITMAP
40
60
50
90
ENDCHAR
STARTCHAR uni02C5
ENCODING 709
SWIDTH 415 0
DWIDTH 4 0
BBX 4 4 0 3
BITMAP
90
50
60
40
ENDCHAR
STARTCHAR uni02C6
ENCODING 710
SWIDTH 420 0
DWIDTH 4 0
BBX 2 2 1 7
BITMAP
40
C0
ENDCHAR
STARTCHAR uni02C7
ENCODING 711
SWIDTH 420 0
DWIDTH 4 0
BBX 2 1 1 7
BITMAP
C0
ENDCHAR
STARTCHAR uni02C8
ENCODING 712
SWIDTH 119 0
DWIDTH 1 0
BBX 1 2 0 6
BITMAP
80
80
ENDCHAR
STARTCHAR uni02C9
ENCODING 713
SWIDTH 332 0
DWIDTH 3 0
BBX 2 1 0 7
BITMAP
C0
ENDCHAR
STARTCHAR uni02CA
ENCODING 714
SWIDTH 328 0
DWIDTH 3 0
BBX 2 2 2 7
BITMAP
40
80
ENDCHAR
STARTCHAR uni02CB
ENCODING 715
SWIDTH 327 0
DWIDTH 3 0
BBX 1 2 3 7
BITMAP
80
80
ENDCHAR
STARTCHAR uni02CC
ENCODING 716
SWIDTH 119 0
DWIDTH 1 0
BBX 1 2 0 -2
BITMAP
80
80
ENDCHAR
STARTCHAR uni02CD
ENCODING 717
SWIDTH 412 0
DWIDTH 4 0
BBX 2 1 0 -2
BITMAP
C0
ENDCHAR
STARTCHAR uni02CE
ENCODING 718
SWIDTH 327 0
DWIDTH 3 0
BBX 1 2 3 -2
BITMAP
80
80
ENDCHAR
STARTCHAR uni02CF
ENCODING 719
SWIDTH 328 0
DWIDTH 3 0
BBX 2 2 2 -2
BITMAP
40
80
ENDCHAR
STARTCHAR uni02D0
ENCODING 720
SWIDTH 237 0
DWIDTH 2 0
BBX 1 6 1 0
BITMAP
80
00
00
00
00
80
ENDCHAR
STARTCHAR uni02D1
ENCODING 721
SWIDTH 237 0
DWIDTH 2 0
BBX 1 1 1 5
BITMAP
80
ENDCHAR
STARTCHAR uni02D2
ENCODING 722
SWIDTH 150 0
DWIDTH 2 0
BBX 1 3 0 2
BITMAP
80
80
80
ENDCHAR
STARTCHAR uni02D3
ENCODING 723
SWIDTH 150 0
DWIDTH 2 0
BBX 1 3 0 2
BITMAP
80
80
80
ENDCHAR
STARTCHAR uni02D4
ENCODING 724
SWIDTH 324 0
DWIDTH 3 0
BBX 1 2 1 1
BITMAP
80
80
ENDCHAR
STARTCHAR uni02D5
ENCODING 725
SWIDTH 325 0
DWIDTH 3 0
BBX 1 2 1 1
BITMAP
80
80
ENDCHAR
STARTCHAR uni02D6
ENCODING 726
SWIDTH 324 0
DWIDTH 3 0
BBX 1 2 1 1
BITMAP
80
80
ENDCHAR
STARTCHAR uni02D7
ENCODING 727
SWIDTH 162 0
DWIDTH 2 0
BBX 2 1 0 1
BITMAP
C0
ENDCHAR
STARTCHAR uni02D8
ENCODING 728
SWIDTH 414 0
DWIDTH 4 0
BBX 2 1 1 7
BITMAP
C0
ENDCHAR
STARTCHAR uni02D9
ENCODING 729
SWIDTH 181 0
DWIDTH 2 0
BBX 1 1 0 7
BITMAP
80
ENDCHAR
STARTCHAR uni02DA
ENCODING 730
SWIDTH 238 0
DWIDTH 2 0
BBX 2 3 0 6
BITMAP
40
C0
40
ENDCHAR
STARTCHAR uni02DB
ENCODING 731
SWIDTH 240 0
DWIDTH 2 0
BBX 2 3 0 -3
BITMAP
80
80
40
ENDCHAR
STARTCHAR uni02DC
ENCODING 732
SWIDTH 497 0
DWIDTH 5 0
BBX 3 2 1 7
BITMAP
E0
A0
ENDCHAR
STARTCHAR uni02DD
ENCODING 733
SWIDTH 275 0
DWIDTH 3 0
BBX 2 2 1 6
BITMAP
C0
80
ENDCHAR
STARTCHAR uni02DE
ENCODING 734
SWIDTH 269 0
DWIDTH 3 0
BBX 3 2 0 2
BITMAP
C0
20
ENDCHAR
STARTCHAR uni02DF
ENCODING 735
SWIDTH 328 0
DWIDTH 3 0
BBX 2 2 1 6
BITMAP
C0
C0
ENDCHAR
STARTCHAR uni02E0
ENCODING 736
SWIDTH 375 0
DWIDTH 4 0
BBX 3 7 0 1
BITMAP
A0
60
40
40
40
60
40
ENDCHAR
STARTCHAR uni02E1
ENCODING 737
SWIDTH 146 0
DWIDTH 1 0
BBX 1 5 0 4
BITMAP
80
80
80
80
80
ENDCHAR
STARTCHAR uni02E2
ENCODING 738
SWIDTH 330 0
DWIDTH 3 0
BBX 3 4 0 4
BITMAP
E0
C0
20
E0
ENDCHAR
STARTCHAR uni02E3
ENCODING 739
SWIDTH 335 0
DWIDTH 3 0
BBX 3 4 0 4
BITMAP
A0
40
40
A0
ENDCHAR
STARTCHAR uni02E4
ENCODING 740
SWIDTH 387 0
DWIDTH 4 0
BBX 4 4 0 4
BITMAP
E0
90
80
40
ENDCHAR
STARTCHAR uni02E5
ENCODING 741
SWIDTH 329 0
DWIDTH 3 0
BBX 1 8 1 0
BITMAP
80
80
80
80
80
80
80
80
ENDCHAR
STARTCHAR uni02E6
ENCODING 742
SWIDTH 329 0
DWIDTH 3 0
BBX 1 7 1 0
BITMAP
80
80
80
80
80
80
80
ENDCHAR
STARTCHAR uni02E7
ENCODING 743
SWIDTH 329 0
DWIDTH 3 0
BBX 1 7 1 0
BITMAP
80
80
80
80
80
80
80
ENDCHAR
STARTCHAR uni02E8
ENCODING 744
SWIDTH 329 0
DWIDTH 3 0
BBX 1 8 1 -1
BITMAP
80
80
80
80
80
80
80
80
ENDCHAR
STARTCHAR uni02E9
ENCODING 745
SWIDTH 329 0
DWIDTH 3 0
BBX 1 8 1 0
BITMAP
80
80
80
80
80
80
80
80
ENDCHAR
STARTCHAR uni02EA
ENCODING 746
SWIDTH 250 0
DWIDTH 3 0
BBX 2 5 0 0
BITMAP
80
80
80
80
C0
ENDCHAR
STARTCHAR uni02EB
ENCODING 747
SWIDTH 251 0
DWIDTH 3 0
BBX 2 5 0 0
BITMAP
80
80
C0
80
80
ENDCHAR
STARTCHAR uni02EC
ENCODING 748
SWIDTH 338 0
DWIDTH 3 0
BBX 2 2 1 -2
BITMAP
40
80
ENDCHAR
STARTCHAR uni02ED
ENCODING 749
SWIDTH 412 0
DWIDTH 4 0
BBX 3 2 1 6
BITMAP
E0
E0
ENDCHAR
STARTCHAR uni02EE
ENCODING 750
SWIDTH 412 0
DWIDTH 4 0
BBX 2 3 1 5
BITMAP
C0
C0
C0
ENDCHAR
STARTCHAR uni02EF
ENCODING 751
SWIDTH 326 0
DWIDTH 3 0
BBX 3 3 0 -3
BITMAP
A0
40
40
ENDCHAR
STARTCHAR uni02F0
ENCODING 752
SWIDTH 326 0
DWIDTH 3 0
BBX 2 3 1 -3
BITMAP
80
80
C0
ENDCHAR
STARTCHAR uni02F1
ENCODING 753
SWIDTH 326 0
DWIDTH 3 0
BBX 3 1 0 -2
BITMAP
E0
ENDCHAR
STARTCHAR uni02F2
ENCODING 754
SWIDTH 326 0
DWIDTH 3 0
BBX 3 1 0 -2
BITMAP
E0
ENDCHAR
STARTCHAR uni02F3
ENCODING 755
SWIDTH 161 0
DWIDTH 2 0
BBX 2 3 0 -3
BITMAP
80
C0
80
ENDCHAR
STARTCHAR uni02F4
ENCODING 756
SWIDTH 327 0
DWIDTH 3 0
BBX 1 2 3 1
BITMAP
80
80
ENDCHAR
STARTCHAR uni02F5
ENCODING 757
SWIDTH 394 0
DWIDTH 4 0
BBX 2 2 1 5
BITMAP
80
C0
ENDCHAR
STARTCHAR uni02F6
ENCODING 758
SWIDTH 386 0
DWIDTH 4 0
BBX 2 2 1 5
BITMAP
40
80
ENDCHAR
STARTCHAR uni02F7
ENCODING 759
SWIDTH 415 0
DWIDTH 4 0
BBX 4 2 0 -3
BITMAP
50
A0
ENDCHAR
STARTCHAR uni02F8
ENCODING 760
SWIDTH 75 0
DWIDTH 1 0
BBX 1 6 0 2
BITMAP
80
00
00
00
00
80
ENDCHAR
STARTCHAR uni02F9
ENCODING 761
SWIDTH 158 0
DWIDTH 2 0
BBX 2 2 0 7
BITMAP
C0
80
ENDCHAR
STARTCHAR uni02FA
ENCODING 762
SWIDTH 215 0
DWIDTH 2 0
BBX 2 2 0 7
BITMAP
C0
40
ENDCHAR
STARTCHAR uni02FB
ENCODING 763
SWIDTH 215 0
DWIDTH 2 0
BBX 2 2 0 -2
BITMAP
80
C0
ENDCHAR
STARTCHAR uni02FC
ENCODING 764
SWIDTH 158 0
DWIDTH 2 0
BBX 2 2 0 -2
BITMAP
40
C0
ENDCHAR
STARTCHAR uni02FD
ENCODING 765
SWIDTH 414 0
DWIDTH 4 0
BBX 2 2 1 -3
BITMAP
C0
C0
ENDCHAR
STARTCHAR uni02FE
ENCODING 766
SWIDTH 411 0
DWIDTH 4 0
BBX 4 2 0 -3
BITMAP
80
F0
ENDCHAR
STARTCHAR uni02FF
ENCODING 767
SWIDTH 333 0
DWIDTH 3 0
BBX 4 3 0 -2
BITMAP
40
F0
C0
ENDCHAR
STARTCHAR uni0300
ENCODING 768
SWIDTH 0 0
DWIDTH 0 0
BBX 1 2 -3 7
BITMAP
80
80
ENDCHAR
STARTCHAR uni0301
ENCODING 769
SWIDTH 0 0
DWIDTH 0 0
BBX 1 2 -1 7
BITMAP
80
80
ENDCHAR
STARTCHAR uni0302
ENCODING 770
SWIDTH 0 0
DWIDTH 0 0
BBX 3 2 -4 7
BITMAP
40
A0
ENDCHAR
STARTCHAR uni0303
ENCODING 771
SWIDTH 0 0
DWIDTH 0 0
BBX 4 2 -4 7
BITMAP
50
A0
ENDCHAR
STARTCHAR uni0304
ENCODING 772
SWIDTH 0 0
DWIDTH 0 0
BBX 2 1 -4 7
BITMAP
C0
ENDCHAR
STARTCHAR uni0305
ENCODING 773
SWIDTH 0 0
DWIDTH 0 0
BBX 4 1 -5 8
BITMAP
F0
ENDCHAR
STARTCHAR uni0306
ENCODING 774
SWIDTH 0 0
DWIDTH 0 0
BBX 1 1 -3 7
BITMAP
80
ENDCHAR
STARTCHAR uni0307
ENCODING 775
SWIDTH 0 0
DWIDTH 0 0
BBX 1 1 -3 7
BITMAP
80
ENDCHAR
STARTCHAR uni0308
ENCODING 776
SWIDTH 0 0
DWIDTH 0 0
BBX 1 1 -3 7
BITMAP
80
ENDCHAR
STARTCHAR uni0309
ENCODING 777
SWIDTH 0 0
DWIDTH 0 0
BBX 1 3 -3 6
BITMAP
80
80
80
ENDCHAR
STARTCHAR uni030A
ENCODING 778
SWIDTH 0 0
DWIDTH 0 0
BBX 2 3 -4 7
BITMAP
80
C0
80
ENDCHAR
STARTCHAR uni030B
ENCODING 779
SWIDTH 0 0
DWIDTH 0 0
BBX 2 2 -2 7
BITMAP
40
C0
ENDCHAR
STARTCHAR uni030C
ENCODING 780
SWIDTH 0 0
DWIDTH 0 0
BBX 2 1 -4 7
BITMAP
C0
ENDCHAR
STARTCHAR uni030D
ENCODING 781
SWIDTH 0 0
DWIDTH 0 0
BBX 1 2 -3 6
BITMAP
80
80
ENDCHAR
STARTCHAR uni030E
ENCODING 782
SWIDTH 0 0
DWIDTH 0 0
BBX 1 2 -3 6
BITMAP
80
80
ENDCHAR
STARTCHAR uni030F
ENCODING 783
SWIDTH 0 0
DWIDTH 0 0
BBX 2 2 -4 7
BITMAP
80
40
ENDCHAR
STARTCHAR uni0310
ENCODING 784
SWIDTH 0 0
DWIDTH 0 0
BBX 1 2 -3 7
BITMAP
80
80
ENDCHAR
STARTCHAR uni0311
ENCODING 785
SWIDTH 0 0
DWIDTH 0 0
BBX 2 1 -4 7
BITMAP
C0
ENDCHAR
STARTCHAR uni0312
ENCODING 786
SWIDTH 0 0
DWIDTH 0 0
BBX 1 3 -3 5
BITMAP
80
80
80
ENDCHAR
STARTCHAR uni0313
ENCODING 787
SWIDTH 0 0
DWIDTH 0 0
BBX 1 3 -3 5
BITMAP
80
80
80
ENDCHAR
STARTCHAR uni0314
ENCODING 788
SWIDTH 0 0
DWIDTH 0 0
BBX 1 3 -3 5
BITMAP
80
80
80
ENDCHAR
STARTCHAR uni0315
ENCODING 789
SWIDTH 0 0
DWIDTH 0 0
BBX 1 3 -1 5
BITMAP
80
80
80
ENDCHAR
STARTCHAR uni0316
ENCODING 790
SWIDTH 0 0
DWIDTH 0 0
BBX 1 2 -2 -2
BITMAP
80
80
ENDCHAR
STARTCHAR uni0317
ENCODING 791
SWIDTH 0 0
DWIDTH 0 0
BBX 2 2 -2 -2
BITMAP
40
80
ENDCHAR
STARTCHAR uni0318
ENCODING 792
SWIDTH 0 0
DWIDTH 0 0
BBX 1 2 -3 -2
BITMAP
80
80
ENDCHAR
STARTCHAR uni0319
ENCODING 793
SWIDTH 0 0
DWIDTH 0 0
BBX 2 2 -4 -2
BITMAP
80
C0
ENDCHAR
STARTCHAR uni031A
ENCODING 794
SWIDTH 0 0
DWIDTH 0 0
BBX 3 2 -3 7
BITMAP
E0
20
ENDCHAR
STARTCHAR uni031B
ENCODING 795
SWIDTH 0 0
DWIDTH 0 0
BBX 1 1 -1 6
BITMAP
80
ENDCHAR
STARTCHAR uni031C
ENCODING 796
SWIDTH 0 0
DWIDTH 0 0
BBX 1 3 -3 -3
BITMAP
80
80
80
ENDCHAR
STARTCHAR uni031D
ENCODING 797
SWIDTH 0 0
DWIDTH 0 0
BBX 2 2 -3 -2
BITMAP
80
C0
ENDCHAR
STARTCHAR uni031E
ENCODING 798
SWIDTH 0 0
DWIDTH 0 0
BBX 2 2 -4 -2
BITMAP
C0
40
ENDCHAR
STARTCHAR uni0321
ENCODING 801
SWIDTH 0 0
DWIDTH 0 0
BBX 1 3 -3 -3
BITMAP
80
80
80
ENDCHAR
STARTCHAR uni0322
ENCODING 802
SWIDTH 0 0
DWIDTH 0 0
BBX 1 3 -1 -3
BITMAP
80
80
80
ENDCHAR
STARTCHAR uni0323
ENCODING 803
SWIDTH 0 0
DWIDTH 0 0
BBX 1 1 -3 -2
BITMAP
80
ENDCHAR
STARTCHAR uni0324
ENCODING 804
SWIDTH 0 0
DWIDTH 0 0
BBX 2 1 -4 -2
BITMAP
C0
ENDCHAR
STARTCHAR uni0325
ENCODING 805
SWIDTH 0 0
DWIDTH 0 0
BBX 2 3 -4 -3
BITMAP
80
C0
80
ENDCHAR
STARTCHAR uni0326
ENCODING 806
SWIDTH 0 0
DWIDTH 0 0
BBX 1 2 -4 -3
BITMAP
80
80
ENDCHAR
STARTCHAR uni0327
ENCODING 807
SWIDTH 0 0
DWIDTH 0 0
BBX 1 3 -3 -2
BITMAP
80
80
80
ENDCHAR
STARTCHAR uni0328
ENCODING 808
SWIDTH 0 0
DWIDTH 0 0
BBX 2 3 -4 -3
BITMAP
80
80
40
ENDCHAR
STARTCHAR uni0329
ENCODING 809
SWIDTH 0 0
DWIDTH 0 0
BBX 1 2 -3 -2
BITMAP
80
80
ENDCHAR
STARTCHAR uni032A
ENCODING 810
SWIDTH 0 0
DWIDTH 0 0
BBX 2 2 -4 -2
BITMAP
C0
C0
ENDCHAR
STARTCHAR uni032B
ENCODING 811
SWIDTH 0 0
DWIDTH 0 0
BBX 3 1 -4 -2
BITMAP
E0
ENDCHAR
STARTCHAR uni032C
ENCODING 812
SWIDTH 0 0
DWIDTH 0 0
BBX 3 1 -4 -2
BITMAP
E0
ENDCHAR
STARTCHAR uni032D
ENCODING 813
SWIDTH 0 0
DWIDTH 0 0
BBX 3 1 -4 -2
BITMAP
E0
ENDCHAR
STARTCHAR uni032E
ENCODING 814
SWIDTH 0 0
DWIDTH 0 0
BBX 1 1 -3 -2
BITMAP
80
ENDCHAR
STARTCHAR uni032F
ENCODING 815
SWIDTH 0 0
DWIDTH 0 0
BBX 1 1 -3 -1
BITMAP
80
ENDCHAR
STARTCHAR uni0330
ENCODING 816
SWIDTH 0 0
DWIDTH 0 0
BBX 3 2 -4 -2
BITMAP
E0
A0
ENDCHAR
STARTCHAR uni0331
ENCODING 817
SWIDTH 0 0
DWIDTH 0 0
BBX 2 1 -4 -2
BITMAP
C0
ENDCHAR
STARTCHAR uni0332
ENCODING 818
SWIDTH 0 0
DWIDTH 0 0
BBX 5 1 -5 -1
BITMAP
F8
ENDCHAR
STARTCHAR uni0333
ENCODING 819
SWIDTH 0 0
DWIDTH 0 0
BBX 5 2 -5 -3
BITMAP
F8
F8
ENDCHAR
STARTCHAR uni0334
ENCODING 820
SWIDTH 0 0
DWIDTH 0 0
BBX 3 2 -4 2
BITMAP
E0
A0
ENDCHAR
STARTCHAR uni0335
ENCODING 821
SWIDTH 0 0
DWIDTH 0 0
BBX 3 1 -4 2
BITMAP
E0
ENDCHAR
STARTCHAR uni0336
ENCODING 822
SWIDTH 0 0
DWIDTH 0 0
BBX 5 1 -5 2
BITMAP
F8
ENDCHAR
STARTCHAR uni0337
ENCODING 823
SWIDTH 0 0
DWIDTH 0 0
BBX 3 7 -4 -1
BITMAP
20
20
40
40
80
80
80
ENDCHAR
STARTCHAR uni0338
ENCODING 824
SWIDTH 0 0
DWIDTH 0 0
BBX 5 9 -5 0
BITMAP
08
08
10
10
20
20
40
80
80
ENDCHAR
STARTCHAR uni0339
ENCODING 825
SWIDTH 0 0
DWIDTH 0 0
BBX 1 3 -3 -3
BITMAP
80
80
80
ENDCHAR
STARTCHAR uni033A
ENCODING 826
SWIDTH 0 0
DWIDTH 0 0
BBX 3 2 -4 -3
BITMAP
A0
E0
ENDCHAR
STARTCHAR uni033B
ENCODING 827
SWIDTH 0 0
DWIDTH 0 0
BBX 1 3 -3 -3
BITMAP
80
80
80
ENDCHAR
STARTCHAR uni033C
ENCODING 828
SWIDTH 0 0
DWIDTH 0 0
BBX 3 1 -4 -2
BITMAP
E0
ENDCHAR
STARTCHAR uni033D
ENCODING 829
SWIDTH 0 0
DWIDTH 0 0
BBX 2 2 -3 6
BITMAP
C0
C0
ENDCHAR
STARTCHAR uni033E
ENCODING 830
SWIDTH 0 0
DWIDTH 0 0
BBX 1 2 -3 6
BITMAP
80
80
ENDCHAR
STARTCHAR uni033F
ENCODING 831
SWIDTH 0 0
DWIDTH 0 0
BBX 5 2 -5 8
BITMAP
F8
F8
ENDCHAR
STARTCHAR uni0340
ENCODING 832
SWIDTH 0 0
DWIDTH 0 0
BBX 1 2 1 7
BITMAP
80
80
ENDCHAR
STARTCHAR uni0341
ENCODING 833
SWIDTH 0 0
DWIDTH 0 0
BBX 1 2 1 7
BITMAP
80
80
ENDCHAR
STARTCHAR uni0342
ENCODING 834
SWIDTH 0 0
DWIDTH 0 0
BBX 3 2 -4 7
BITMAP
E0
A0
ENDCHAR
STARTCHAR uni0343
ENCODING 835
SWIDTH 0 0
DWIDTH 0 0
BBX 1 2 -3 5
BITMAP
80
80
ENDCHAR
STARTCHAR uni0344
ENCODING 836
SWIDTH 0 0
DWIDTH 0 0
BBX 2 2 -3 7
BITMAP
80
C0
ENDCHAR
STARTCHAR uni0345
ENCODING 837
SWIDTH 0 0
DWIDTH 0 0
BBX 1 2 -3 -3
BITMAP
80
80
ENDCHAR
STARTCHAR uni0346
ENCODING 838
SWIDTH 0 0
DWIDTH 0 0
BBX 2 3 -4 6
BITMAP
C0
C0
C0
ENDCHAR
STARTCHAR uni0347
ENCODING 839
SWIDTH 0 0
DWIDTH 0 0
BBX 2 2 -4 -3
BITMAP
C0
C0
ENDCHAR
STARTCHAR uni0348
ENCODING 840
SWIDTH 0 0
DWIDTH 0 0
BBX 1 2 -3 -2
BITMAP
80
80
ENDCHAR
STARTCHAR uni0349
ENCODING 841
SWIDTH 0 0
DWIDTH 0 0
BBX 2 2 -4 -2
BITMAP
C0
40
ENDCHAR
STARTCHAR uni034A
ENCODING 842
SWIDTH 0 0
DWIDTH 0 0
BBX 3 2 -4 7
BITMAP
E0
A0
ENDCHAR
STARTCHAR uni034B
ENCODING 843
SWIDTH 0 0
DWIDTH 0 0
BBX 3 3 -4 6
BITMAP
40
E0
80
ENDCHAR
STARTCHAR uni034C
ENCODING 844
SWIDTH 0 0
DWIDTH 0 0
BBX 3 2 -4 6
BITMAP
E0
E0
ENDCHAR
STARTCHAR uni034D
ENCODING 845
SWIDTH 0 0
DWIDTH 0 0
BBX 3 3 -4 -3
BITMAP
A0
E0
A0
ENDCHAR
STARTCHAR uni034E
ENCODING 846
SWIDTH 0 0
DWIDTH 0 0
BBX 3 2 -4 -3
BITMAP
E0
40
ENDCHAR
STARTCHAR uni034F
ENCODING 847
SWIDTH 0 0
DWIDTH 0 0
BBX 1 1 0 0
BITMAP
00
ENDCHAR
STARTCHAR uni0350
ENCODING 848
SWIDTH 0 0
DWIDTH 0 0
BBX 3 4 -4 6
BITMAP
80
60
60
80
ENDCHAR
STARTCHAR uni0351
ENCODING 849
SWIDTH 0 0
DWIDTH 0 0
BBX 1 2 -3 6
BITMAP
80
80
ENDCHAR
STARTCHAR uni0352
ENCODING 850
SWIDTH 0 0
DWIDTH 0 0
BBX 1 2 -3 7
BITMAP
80
80
ENDCHAR
STARTCHAR uni0353
ENCODING 851
SWIDTH 0 0
DWIDTH 0 0
BBX 2 3 -3 -3
BITMAP
C0
40
C0
ENDCHAR
STARTCHAR uni0354
ENCODING 852
SWIDTH 0 0
DWIDTH 0 0
BBX 2 1 -3 -2
BITMAP
C0
ENDCHAR
STARTCHAR uni0355
ENCODING 853
SWIDTH 0 0
DWIDTH 0 0
BBX 3 1 -3 -2
BITMAP
E0
ENDCHAR
STARTCHAR uni0356
ENCODING 854
SWIDTH 0 0
DWIDTH 0 0
BBX 5 3 -4 -3
BITMAP
90
70
98
ENDCHAR
STARTCHAR uni0357
ENCODING 855
SWIDTH 0 0
DWIDTH 0 0
BBX 1 3 -3 6
BITMAP
80
80
80
ENDCHAR
STARTCHAR uni0358
ENCODING 856
SWIDTH 0 0
DWIDTH 0 0
BBX 1 1 0 6
BITMAP
80
ENDCHAR
STARTCHAR uni0359
ENCODING 857
SWIDTH 0 0
DWIDTH 0 0
BBX 2 2 -4 -2
BITMAP
C0
40
ENDCHAR
STARTCHAR uni035A
ENCODING 858
SWIDTH 0 0
DWIDTH 0 0
BBX 4 3 -4 -3
BITMAP
A0
D0
A0
ENDCHAR
STARTCHAR uni035B
ENCODING 859
SWIDTH 0 0
DWIDTH 0 0
BBX 1 3 -3 6
BITMAP
80
80
80
ENDCHAR
STARTCHAR uni035C
ENCODING 860
SWIDTH 0 0
DWIDTH 0 0
BBX 7 2 -3 -2
BITMAP
C6
38
ENDCHAR
STARTCHAR uni035D
ENCODING 861
SWIDTH 0 0
DWIDTH 0 0
BBX 6 2 -3 6
BITMAP
84
78
ENDCHAR
STARTCHAR uni035E
ENCODING 862
SWIDTH 0 0
DWIDTH 0 0
BBX 6 1 -3 7
BITMAP
FC
ENDCHAR
STARTCHAR uni035F
ENCODING 863
SWIDTH 0 0
DWIDTH 0 0
BBX 6 1 -3 -2
BITMAP
FC
ENDCHAR
STARTCHAR uni0360
ENCODING 864
SWIDTH 0 0
DWIDTH 0 0
BBX 8 2 -4 7
BITMAP
71
8F
ENDCHAR
STARTCHAR uni0361
ENCODING 865
SWIDTH 0 0
DWIDTH 0 0
BBX 6 2 -3 6
BITMAP
78
84
ENDCHAR
STARTCHAR uni0362
ENCODING 866
SWIDTH 0 0
DWIDTH 0 0
BBX 7 3 -3 -3
BITMAP
04
FE
04
ENDCHAR
STARTCHAR uni0363
ENCODING 867
SWIDTH 0 0
DWIDTH 0 0
BBX 2 4 -3 6
BITMAP
80
C0
C0
C0
ENDCHAR
STARTCHAR uni0364
ENCODING 868
SWIDTH 0 0
DWIDTH 0 0
BBX 3 4 -4 6
BITMAP
40
A0
60
40
ENDCHAR
STARTCHAR uni0365
ENCODING 869
SWIDTH 0 0
DWIDTH 0 0
BBX 1 4 -3 6
BITMAP
80
80
80
80
ENDCHAR
STARTCHAR uni0366
ENCODING 870
SWIDTH 0 0
DWIDTH 0 0
BBX 3 4 -4 6
BITMAP
40
A0
A0
40
ENDCHAR
STARTCHAR uni0367
ENCODING 871
SWIDTH 0 0
DWIDTH 0 0
BBX 2 3 -3 6
BITMAP
C0
C0
C0
ENDCHAR
STARTCHAR uni0368
ENCODING 872
SWIDTH 0 0
DWIDTH 0 0
BBX 3 4 -4 6
BITMAP
40
A0
A0
40
ENDCHAR
STARTCHAR uni0369
ENCODING 873
SWIDTH 0 0
DWIDTH 0 0
BBX 3 5 -4 6
BITMAP
20
60
A0
A0
60
ENDCHAR
STARTCHAR uni036A
ENCODING 874
SWIDTH 0 0
DWIDTH 0 0
BBX 2 4 -3 7
BITMAP
80
80
C0
C0
ENDCHAR
STARTCHAR uni036B
ENCODING 875
SWIDTH 0 0
DWIDTH 0 0
BBX 3 3 -4 7
BITMAP
A0
E0
E0
ENDCHAR
STARTCHAR uni036C
ENCODING 876
SWIDTH 0 0
DWIDTH 0 0
BBX 1 3 -3 7
BITMAP
80
80
80
ENDCHAR
STARTCHAR uni036D
ENCODING 877
SWIDTH 0 0
DWIDTH 0 0
BBX 1 4 -3 6
BITMAP
80
80
80
80
ENDCHAR
STARTCHAR uni036E
ENCODING 878
SWIDTH 0 0
DWIDTH 0 0
BBX 3 3 -4 6
BITMAP
A0
40
40
ENDCHAR
STARTCHAR uni036F
ENCODING 879
SWIDTH 0 0
DWIDTH 0 0
BBX 2 3 -3 6
BITMAP
C0
40
C0
ENDCHAR
STARTCHAR uni0370
ENCODING 880
SWIDTH 587 0
DWIDTH 6 0
BBX 4 8 1 0
BITMAP
80
80
80
F0
80
80
80
80
ENDCHAR
STARTCHAR uni0371
ENCODING 881
SWIDTH 487 0
DWIDTH 5 0
BBX 3 6 1 0
BITMAP
80
80
80
E0
80
80
ENDCHAR
STARTCHAR uni0372
ENCODING 882
SWIDTH 636 0
DWIDTH 6 0
BBX 5 8 1 0
BITMAP
F8
A8
A8
20
20
20
20
20
ENDCHAR
STARTCHAR uni0373
ENCODING 883
SWIDTH 430 0
DWIDTH 4 0
BBX 3 8 1 0
BITMAP
E0
A0
40
40
40
40
40
40
ENDCHAR
STARTCHAR uni0374
ENCODING 884
SWIDTH 238 0
DWIDTH 2 0
BBX 1 3 1 5
BITMAP
80
80
80
ENDCHAR
STARTCHAR uni0375
ENCODING 885
SWIDTH 238 0
DWIDTH 2 0
BBX 1 2 1 -2
BITMAP
80
80
ENDCHAR
STARTCHAR uni0376
ENCODING 886
SWIDTH 730 0
DWIDTH 7 0
BBX 5 8 1 0
BITMAP
88
88
98
98
A8
C8
88
88
ENDCHAR
STARTCHAR uni0377
ENCODING 887
SWIDTH 576 0
DWIDTH 6 0
BBX 4 6 1 0
BITMAP
90
B0
D0
90
90
90
ENDCHAR
STARTCHAR uni037A
ENCODING 890
SWIDTH 237 0
DWIDTH 2 0
BBX 1 2 1 -3
BITMAP
80
80
ENDCHAR
STARTCHAR uni037B
ENCODING 891
SWIDTH 504 0
DWIDTH 5 0
BBX 5 6 0 0
BITMAP
70
88
08
08
88
70
ENDCHAR
STARTCHAR uni037C
ENCODING 892
SWIDTH 504 0
DWIDTH 5 0
BBX 5 6 0 0
BITMAP
70
88
A0
80
88
70
ENDCHAR
STARTCHAR uni037D
ENCODING 893
SWIDTH 504 0
DWIDTH 5 0
BBX 5 6 0 0
BITMAP
70
88
08
28
88
70
ENDCHAR
STARTCHAR uni037E
ENCODING 894
SWIDTH 256 0
DWIDTH 3 0
BBX 1 7 1 -2
BITMAP
80
00
00
00
80
80
80
ENDCHAR
STARTCHAR uni037F
ENCODING 895
SWIDTH 519 0
DWIDTH 5 0
BBX 3 8 1 0
BITMAP
20
20
20
20
20
20
A0
E0
ENDCHAR
STARTCHAR uni0384
ENCODING 900
SWIDTH 159 0
DWIDTH 2 0
BBX 1 2 0 7
BITMAP
80
80
ENDCHAR
STARTCHAR uni0385
ENCODING 901
SWIDTH 502 0
DWIDTH 5 0
BBX 1 2 2 7
BITMAP
80
80
ENDCHAR
STARTCHAR uni0386
ENCODING 902
SWIDTH 616 0
DWIDTH 6 0
BBX 6 9 0 0
BITMAP
20
60
30
30
48
48
78
84
84
ENDCHAR
STARTCHAR uni0387
ENCODING 903
SWIDTH 252 0
DWIDTH 3 0
BBX 1 1 1 5
BITMAP
80
ENDCHAR
STARTCHAR uni0388
ENCODING 904
SWIDTH 596 0
DWIDTH 6 0
BBX 5 9 0 0
BITMAP
80
F8
80
40
40
78
40
40
78
ENDCHAR
STARTCHAR uni0389
ENCODING 905
SWIDTH 798 0
DWIDTH 8 0
BBX 6 9 1 0
BITMAP
80
84
84
84
84
7C
84
84
84
ENDCHAR
STARTCHAR uni038A
ENCODING 906
SWIDTH 223 0
DWIDTH 2 0
BBX 1 9 0 0
BITMAP
80
80
80
80
80
80
80
80
80
ENDCHAR
STARTCHAR uni038C
ENCODING 908
SWIDTH 758 0
DWIDTH 8 0
BBX 7 9 0 0
BITMAP
80
BC
44
82
82
82
82
44
3C
ENDCHAR
STARTCHAR uni038E
ENCODING 910
SWIDTH 665 0
DWIDTH 7 0
BBX 7 9 0 0
BITMAP
80
C2
24
24
18
08
08
08
08
ENDCHAR
STARTCHAR uni038F
ENCODING 911
SWIDTH 708 0
DWIDTH 7 0
BBX 6 9 0 0
BITMAP
80
B8
44
84
84
84
84
44
EC
ENDCHAR
STARTCHAR uni0390
ENCODING 912
SWIDTH 215 0
DWIDTH 2 0
BBX 2 9 0 0
BITMAP
40
C0
00
40
40
40
40
40
40
ENDCHAR
STARTCHAR uni0391
ENCODING 913
SWIDTH 616 0
DWIDTH 6 0
BBX 6 8 0 0
BITMAP
20
30
30
48
48
78
84
84
ENDCHAR
STARTCHAR uni0392
ENCODING 914
SWIDTH 640 0
DWIDTH 6 0
BBX 5 8 1 0
BITMAP
F0
88
88
F0
88
88
88
F0
ENDCHAR
STARTCHAR uni0393
ENCODING 915
SWIDTH 571 0
DWIDTH 6 0
BBX 4 8 1 0
BITMAP
F0
80
80
80
80
80
80
80
ENDCHAR
STARTCHAR uni0394
ENCODING 916
SWIDTH 616 0
DWIDTH 6 0
BBX 6 8 0 0
BITMAP
10
10
30
48
48
48
84
FC
ENDCHAR
STARTCHAR uni0395
ENCODING 917
SWIDTH 583 0
DWIDTH 6 0
BBX 4 8 1 0
BITMAP
F0
80
80
80
F0
80
80
F0
ENDCHAR
STARTCHAR uni0396
ENCODING 918
SWIDTH 605 0
DWIDTH 6 0
BBX 4 8 1 0
BITMAP
F0
10
20
20
40
40
80
F0
ENDCHAR
STARTCHAR uni0397
ENCODING 919
SWIDTH 735 0
DWIDTH 7 0
BBX 5 8 1 0
BITMAP
88
88
88
88
F8
88
88
88
ENDCHAR
STARTCHAR uni0398
ENCODING 920
SWIDTH 747 0
DWIDTH 7 0
BBX 6 8 1 0
BITMAP
78
84
84
FC
84
84
84
78
ENDCHAR
STARTCHAR uni0399
ENCODING 921
SWIDTH 250 0
DWIDTH 3 0
BBX 1 8 1 0
BITMAP
80
80
80
80
80
80
80
80
ENDCHAR
STARTCHAR uni039A
ENCODING 922
SWIDTH 616 0
DWIDTH 6 0
BBX 5 8 1 0
BITMAP
88
90
A0
C0
C0
A0
90
88
ENDCHAR
STARTCHAR uni039B
ENCODING 923
SWIDTH 616 0
DWIDTH 6 0
BBX 6 8 0 0
BITMAP
20
30
30
48
48
48
84
84
ENDCHAR
STARTCHAR uni039C
ENCODING 924
SWIDTH 863 0
DWIDTH 9 0
BBX 7 8 1 0
BITMAP
82
82
86
C6
CA
AA
B2
92
ENDCHAR
STARTCHAR uni039D
ENCODING 925
SWIDTH 772 0
DWIDTH 8 0
BBX 6 8 1 0
BITMAP
84
84
C4
A4
94
94
8C
84
ENDCHAR
STARTCHAR uni039E
ENCODING 926
SWIDTH 424 0
DWIDTH 4 0
BBX 4 8 0 0
BITMAP
F0
00
00
F0
00
00
00
F0
ENDCHAR
STARTCHAR uni039F
ENCODING 927
SWIDTH 747 0
DWIDTH 7 0
BBX 6 8 1 0
BITMAP
78
84
84
84
84
84
84
78
ENDCHAR
STARTCHAR uni03A0
ENCODING 928
SWIDTH 678 0
DWIDTH 7 0
BBX 5 8 1 0
BITMAP
F8
88
88
88
88
88
88
88
ENDCHAR
STARTCHAR uni03A1
ENCODING 929
SWIDTH 606 0
DWIDTH 6 0
BBX 4 8 1 0
BITMAP
F0
90
90
90
E0
80
80
80
ENDCHAR
STARTCHAR uni03A3
ENCODING 931
SWIDTH 622 0
DWIDTH 6 0
BBX 5 8 1 0
BITMAP
F0
80
40
20
20
40
80
F8
ENDCHAR
STARTCHAR uni03A4
ENCODING 932
SWIDTH 613 0
DWIDTH 6 0
BBX 5 8 1 0
BITMAP
F8
20
20
20
20
20
20
20
ENDCHAR
STARTCHAR uni03A5
ENCODING 933
SWIDTH 613 0
DWIDTH 6 0
BBX 6 8 0 0
BITMAP
84
48
28
30
10
10
10
10
ENDCHAR
STARTCHAR uni03A6
ENCODING 934
SWIDTH 651 0
DWIDTH 7 0
BBX 6 8 0 0
BITMAP
10
38
54
94
94
54
38
10
ENDCHAR
STARTCHAR uni03A7
ENCODING 935
SWIDTH 585 0
DWIDTH 6 0
BBX 6 8 0 0
BITMAP
84
48
50
20
20
30
48
84
ENDCHAR
STARTCHAR uni03A8
ENCODING 936
SWIDTH 731 0
DWIDTH 7 0
BBX 5 8 1 0
BITMAP
A8
A8
A8
A8
A8
A8
70
20
ENDCHAR
STARTCHAR uni03A9
ENCODING 937
SWIDTH 744 0
DWIDTH 7 0
BBX 6 8 1 0
BITMAP
70
88
84
84
84
84
88
DC
ENDCHAR
STARTCHAR uni03AA
ENCODING 938
SWIDTH 250 0
DWIDTH 3 0
BBX 2 10 0 0
BITMAP
C0
00
40
40
40
40
40
40
40
40
ENDCHAR
STARTCHAR uni03AB
ENCODING 939
SWIDTH 613 0
DWIDTH 6 0
BBX 6 10 0 0
BITMAP
30
00
84
48
28
30
10
10
10
10
ENDCHAR
STARTCHAR uni03AC
ENCODING 940
SWIDTH 629 0
DWIDTH 6 0
BBX 5 9 1 0
BITMAP
20
20
40
B8
90
88
88
90
F8
ENDCHAR
STARTCHAR uni03AD
ENCODING 941
SWIDTH 529 0
DWIDTH 5 0
BBX 4 9 1 0
BITMAP
40
40
40
A0
80
40
80
90
E0
ENDCHAR
STARTCHAR uni03AE
ENCODING 942
SWIDTH 568 0
DWIDTH 6 0
BBX 4 11 1 -2
BITMAP
20
40
40
A0
90
90
90
90
90
10
10
ENDCHAR
STARTCHAR uni03AF
ENCODING 943
SWIDTH 215 0
DWIDTH 2 0
BBX 1 9 1 0
BITMAP
80
80
80
80
80
80
80
80
80
ENDCHAR
STARTCHAR uni03B0
ENCODING 944
SWIDTH 588 0
DWIDTH 6 0
BBX 4 9 1 0
BITMAP
40
60
00
90
90
90
90
90
E0
ENDCHAR
STARTCHAR uni03B1
ENCODING 945
SWIDTH 629 0
DWIDTH 6 0
BBX 5 6 1 0
BITMAP
F8
90
88
88
90
F8
ENDCHAR
STARTCHAR uni03B2
ENCODING 946
SWIDTH 585 0
DWIDTH 6 0
BBX 4 10 1 -2
BITMAP
F0
90
90
E0
90
90
90
F0
80
80
ENDCHAR
STARTCHAR uni03B3
ENCODING 947
SWIDTH 521 0
DWIDTH 5 0
BBX 4 8 1 -2
BITMAP
90
90
A0
A0
40
40
40
40
ENDCHAR
STARTCHAR uni03B4
ENCODING 948
SWIDTH 427 0
DWIDTH 4 0
BBX 4 8 0 0
BITMAP
70
80
40
B0
90
90
90
F0
ENDCHAR
STARTCHAR uni03B5
ENCODING 949
SWIDTH 529 0
DWIDTH 5 0
BBX 4 6 1 0
BITMAP
E0
80
40
80
90
E0
ENDCHAR
STARTCHAR uni03B6
ENCODING 950
SWIDTH 500 0
DWIDTH 5 0
BBX 3 10 1 -2
BITMAP
E0
20
40
80
80
80
80
40
20
20
ENDCHAR
STARTCHAR uni03B7
ENCODING 951
SWIDTH 568 0
DWIDTH 6 0
BBX 4 8 1 -2
BITMAP
E0
90
90
90
90
90
10
10
ENDCHAR
STARTCHAR uni03B8
ENCODING 952
SWIDTH 423 0
DWIDTH 4 0
BBX 4 8 0 0
BITMAP
70
90
90
90
F0
90
90
70
ENDCHAR
STARTCHAR uni03B9.dup1
ENCODING 953
SWIDTH 215 0
DWIDTH 2 0
BBX 1 6 1 0
BITMAP
80
80
80
80
80
80
ENDCHAR
STARTCHAR uni03BA
ENCODING 954
SWIDTH 561 0
DWIDTH 6 0
BBX 4 6 1 0
BITMAP
90
A0
C0
80
C0
B0
ENDCHAR
STARTCHAR uni03BB
ENCODING 955
SWIDTH 557 0
DWIDTH 6 0
BBX 5 8 0 0
BITMAP
40
20
20
20
50
50
50
88
ENDCHAR
STARTCHAR uni03BC
ENCODING 956
SWIDTH 563 0
DWIDTH 6 0
BBX 4 8 1 -2
BITMAP
90
90
90
90
90
F0
80
80
ENDCHAR
STARTCHAR uni03BD
ENCODING 957
SWIDTH 523 0
DWIDTH 5 0
BBX 5 6 0 0
BITMAP
88
48
48
50
30
20
ENDCHAR
STARTCHAR uni03BE
ENCODING 958
SWIDTH 504 0
DWIDTH 5 0
BBX 3 10 1 -2
BITMAP
E0
80
80
60
80
80
80
C0
20
20
ENDCHAR
STARTCHAR uni03BF
ENCODING 959
SWIDTH 579 0
DWIDTH 6 0
BBX 4 6 1 0
BITMAP
E0
90
90
90
90
F0
ENDCHAR
STARTCHAR uni03C0
ENCODING 960
SWIDTH 515 0
DWIDTH 5 0
BBX 5 6 0 0
BITMAP
F8
90
90
90
90
98
ENDCHAR
STARTCHAR uni03C1
ENCODING 961
SWIDTH 550 0
DWIDTH 6 0
BBX 4 8 1 -2
BITMAP
E0
90
90
90
90
E0
80
80
ENDCHAR
STARTCHAR uni03C2
ENCODING 962
SWIDTH 501 0
DWIDTH 5 0
BBX 4 8 1 -2
BITMAP
E0
90
80
80
80
60
10
20
ENDCHAR
STARTCHAR uni03C3
ENCODING 963
SWIDTH 590 0
DWIDTH 6 0
BBX 4 6 1 0
BITMAP
F0
90
90
90
90
E0
ENDCHAR
STARTCHAR uni03C4
ENCODING 964
SWIDTH 382 0
DWIDTH 4 0
BBX 4 6 0 0
BITMAP
F0
40
40
40
40
60
ENDCHAR
STARTCHAR uni03C5
ENCODING 965
SWIDTH 588 0
DWIDTH 6 0
BBX 4 6 1 0
BITMAP
90
90
90
90
90
E0
ENDCHAR
STARTCHAR uni03C6
ENCODING 966
SWIDTH 620 0
DWIDTH 6 0
BBX 6 8 0 -2
BITMAP
58
94
94
94
94
78
10
10
ENDCHAR
STARTCHAR uni03C7
ENCODING 967
SWIDTH 639 0
DWIDTH 6 0
BBX 5 8 1 -2
BITMAP
88
50
50
20
20
50
50
88
ENDCHAR
STARTCHAR uni03C8
ENCODING 968
SWIDTH 692 0
DWIDTH 7 0
BBX 5 8 1 -2
BITMAP
A8
A8
A8
A8
A8
78
20
20
ENDCHAR
STARTCHAR uni03C9
ENCODING 969
SWIDTH 690 0
DWIDTH 7 0
BBX 7 6 0 0
BITMAP
82
82
92
92
92
6C
ENDCHAR
STARTCHAR uni03CA
ENCODING 970
SWIDTH 215 0
DWIDTH 2 0
BBX 2 8 0 0
BITMAP
C0
00
40
40
40
40
40
40
ENDCHAR
STARTCHAR uni03CB
ENCODING 971
SWIDTH 588 0
DWIDTH 6 0
BBX 4 8 1 0
BITMAP
60
00
90
90
90
90
90
E0
ENDCHAR
STARTCHAR uni03CC
ENCODING 972
SWIDTH 579 0
DWIDTH 6 0
BBX 4 9 1 0
BITMAP
20
20
40
A0
90
90
90
90
F0
ENDCHAR
STARTCHAR uni03CD
ENCODING 973
SWIDTH 588 0
DWIDTH 6 0
BBX 4 9 1 0
BITMAP
20
40
40
90
90
90
90
90
E0
ENDCHAR
STARTCHAR uni03CE
ENCODING 974
SWIDTH 690 0
DWIDTH 7 0
BBX 7 9 0 0
BITMAP
10
10
10
82
82
92
92
92
6C
ENDCHAR
STARTCHAR uni03CF
ENCODING 975
SWIDTH 539 0
DWIDTH 5 0
BBX 5 10 0 -2
BITMAP
88
90
A0
A0
E0
A0
90
88
08
10
ENDCHAR
STARTCHAR uni03D0
ENCODING 976
SWIDTH 566 0
DWIDTH 6 0
BBX 4 8 1 0
BITMAP
70
90
E0
E0
90
90
90
F0
ENDCHAR
STARTCHAR uni03D1
ENCODING 977
SWIDTH 591 0
DWIDTH 6 0
BBX 4 8 1 0
BITMAP
60
90
90
50
B0
90
90
E0
ENDCHAR
STARTCHAR uni03D2
ENCODING 978
SWIDTH 617 0
DWIDTH 6 0
BBX 4 8 1 0
BITMAP
90
90
60
40
20
20
20
20
ENDCHAR
STARTCHAR uni03D3
ENCODING 979
SWIDTH 644 0
DWIDTH 6 0
BBX 6 8 0 0
BITMAP
CC
A8
30
10
10
10
10
10
ENDCHAR
STARTCHAR uni03D4
ENCODING 980
SWIDTH 617 0
DWIDTH 6 0
BBX 4 10 1 0
BITMAP
60
00
90
90
60
40
20
20
20
20
ENDCHAR
STARTCHAR uni03D5
ENCODING 981
SWIDTH 606 0
DWIDTH 6 0
BBX 5 10 1 -2
BITMAP
20
20
F0
A8
A8
A8
A8
F0
20
20
ENDCHAR
STARTCHAR uni03D6
ENCODING 982
SWIDTH 690 0
DWIDTH 7 0
BBX 7 6 0 0
BITMAP
FE
82
92
92
92
6C
ENDCHAR
STARTCHAR uni03D7
ENCODING 983
SWIDTH 615 0
DWIDTH 6 0
BBX 5 8 1 -2
BITMAP
90
90
B0
D0
90
88
08
18
ENDCHAR
STARTCHAR uni03D8
ENCODING 984
SWIDTH 741 0
DWIDTH 7 0
BBX 6 10 1 -2
BITMAP
78
88
84
84
84
84
84
58
20
20
ENDCHAR
STARTCHAR uni03D9
ENCODING 985
SWIDTH 569 0
DWIDTH 6 0
BBX 4 8 1 -2
BITMAP
E0
90
90
90
90
A0
40
40
ENDCHAR
STARTCHAR uni03DA
ENCODING 986
SWIDTH 678 0
DWIDTH 7 0
BBX 5 10 1 -2
BITMAP
70
88
80
80
80
80
80
70
08
08
ENDCHAR
STARTCHAR uni03DB
ENCODING 987
SWIDTH 487 0
DWIDTH 5 0
BBX 4 8 0 -2
BITMAP
70
90
80
80
80
60
10
10
ENDCHAR
STARTCHAR uni03DC
ENCODING 988
SWIDTH 576 0
DWIDTH 6 0
BBX 4 8 1 0
BITMAP
F0
80
80
80
F0
90
80
80
ENDCHAR
STARTCHAR uni03DD
ENCODING 989
SWIDTH 503 0
DWIDTH 5 0
BBX 3 8 1 -2
BITMAP
E0
80
E0
A0
80
80
80
80
ENDCHAR
STARTCHAR uni03DE
ENCODING 990
SWIDTH 518 0
DWIDTH 5 0
BBX 5 8 0 0
BITMAP
C0
40
58
A8
C8
08
10
08
ENDCHAR
STARTCHAR uni03DF
ENCODING 991
SWIDTH 422 0
DWIDTH 4 0
BBX 4 8 0 0
BITMAP
40
40
40
80
F0
10
10
20
ENDCHAR
STARTCHAR uni03E0
ENCODING 992
SWIDTH 664 0
DWIDTH 7 0
BBX 7 10 0 -2
BITMAP
78
84
8A
32
02
0E
12
02
04
18
ENDCHAR
STARTCHAR uni03E1
ENCODING 993
SWIDTH 683 0
DWIDTH 7 0
BBX 5 10 1 -2
BITMAP
80
40
20
30
48
88
38
48
08
08
ENDCHAR
STARTCHAR uni03F0
ENCODING 1008
SWIDTH 598 0
DWIDTH 6 0
BBX 4 6 1 0
BITMAP
90
90
B0
D0
90
90
ENDCHAR
STARTCHAR uni03F1
ENCODING 1009
SWIDTH 580 0
DWIDTH 6 0
BBX 4 8 1 -2
BITMAP
E0
90
90
90
90
E0
60
10
ENDCHAR
STARTCHAR uni03F2
ENCODING 1010
SWIDTH 552 0
DWIDTH 6 0
BBX 4 6 1 0
BITMAP
E0
90
80
80
90
F0
ENDCHAR
STARTCHAR uni03F3
ENCODING 1011
SWIDTH 221 0
DWIDTH 2 0
BBX 1 10 0 -2
BITMAP
80
00
80
80
80
80
80
80
80
80
ENDCHAR
STARTCHAR uni03F4
ENCODING 1012
SWIDTH 747 0
DWIDTH 7 0
BBX 6 8 1 0
BITMAP
78
84
84
FC
84
84
88
78
ENDCHAR
STARTCHAR uni03F5
ENCODING 1013
SWIDTH 399 0
DWIDTH 4 0
BBX 4 6 0 0
BITMAP
70
80
80
E0
80
70
ENDCHAR
STARTCHAR uni03F6
ENCODING 1014
SWIDTH 379 0
DWIDTH 4 0
BBX 4 6 0 0
BITMAP
E0
10
10
70
10
E0
ENDCHAR
STARTCHAR uni03F7
ENCODING 1015
SWIDTH 590 0
DWIDTH 6 0
BBX 4 8 1 0
BITMAP
80
80
F0
90
90
E0
80
80
ENDCHAR
STARTCHAR uni03F8
ENCODING 1016
SWIDTH 575 0
DWIDTH 6 0
BBX 4 10 1 -2
BITMAP
80
80
F0
90
90
90
90
F0
80
80
ENDCHAR
STARTCHAR uni03F9
ENCODING 1017
SWIDTH 723 0
DWIDTH 7 0
BBX 6 8 1 0
BITMAP
78
84
84
80
80
84
84
78
ENDCHAR
STARTCHAR uni03FA
ENCODING 1018
SWIDTH 863 0
DWIDTH 9 0
BBX 7 8 1 0
BITMAP
82
82
86
C6
CA
AA
B2
92
ENDCHAR
STARTCHAR uni03FB
ENCODING 1019
SWIDTH 652 0
DWIDTH 7 0
BBX 5 8 1 -2
BITMAP
88
88
98
D8
E8
A8
80
80
ENDCHAR
STARTCHAR uni03FC
ENCODING 1020
SWIDTH 550 0
DWIDTH 6 0
BBX 5 8 0 -2
BITMAP
70
48
88
88
48
F0
C0
80
ENDCHAR
STARTCHAR uni03FD
ENCODING 1021
SWIDTH 573 0
DWIDTH 6 0
BBX 5 8 0 0
BITMAP
78
88
08
08
08
08
88
78
ENDCHAR
STARTCHAR uni03FE
ENCODING 1022
SWIDTH 723 0
DWIDTH 7 0
BBX 6 8 1 0
BITMAP
78
84
80
A0
80
84
88
78
ENDCHAR
STARTCHAR uni03FF
ENCODING 1023
SWIDTH 723 0
DWIDTH 7 0
BBX 6 8 1 0
BITMAP
70
88
04
24
04
84
88
70
ENDCHAR
STARTCHAR uni0400
ENCODING 1024
SWIDTH 583 0
DWIDTH 6 0
BBX 4 10 1 0
BITMAP
40
00
F0
80
80
80
F0
80
80
F0
ENDCHAR
STARTCHAR uni0401
ENCODING 1025
SWIDTH 583 0
DWIDTH 6 0
BBX 4 10 1 0
BITMAP
60
00
F0
80
80
80
F0
80
80
F0
ENDCHAR
STARTCHAR uni0402
ENCODING 1026
SWIDTH 765 0
DWIDTH 8 0
BBX 6 8 1 0
BITMAP
F8
20
20
38
24
24
24
2C
ENDCHAR
STARTCHAR uni0403
ENCODING 1027
SWIDTH 571 0
DWIDTH 6 0
BBX 4 10 1 0
BITMAP
20
00
F0
80
80
80
80
80
80
80
ENDCHAR
STARTCHAR uni0404
ENCODING 1028
SWIDTH 641 0
DWIDTH 6 0
BBX 5 8 1 0
BITMAP
F0
88
80
E0
80
88
88
70
ENDCHAR
STARTCHAR uni0405
ENCODING 1029
SWIDTH 612 0
DWIDTH 6 0
BBX 4 8 1 0
BITMAP
F0
90
80
40
30
10
90
F0
ENDCHAR
STARTCHAR uni0406
ENCODING 1030
SWIDTH 250 0
DWIDTH 3 0
BBX 1 8 1 0
BITMAP
80
80
80
80
80
80
80
80
ENDCHAR
STARTCHAR uni0407
ENCODING 1031
SWIDTH 250 0
DWIDTH 3 0
BBX 2 10 0 0
BITMAP
C0
00
40
40
40
40
40
40
40
40
ENDCHAR
STARTCHAR uni0408
ENCODING 1032
SWIDTH 519 0
DWIDTH 5 0
BBX 3 8 1 0
BITMAP
20
20
20
20
20
20
A0
E0
ENDCHAR
STARTCHAR uni0409
ENCODING 1033
SWIDTH 1056 0
DWIDTH 11 0
BBX 10 8 0 0
BITMAP
7C00
4400
4400
4780
4440
4440
4440
C7C0
ENDCHAR
STARTCHAR uni040A
ENCODING 1034
SWIDTH 1086 0
DWIDTH 11 0
BBX 9 8 1 0
BITMAP
8800
8800
8800
FF00
8880
8880
8880
8F80
ENDCHAR
STARTCHAR uni040B
ENCODING 1035
SWIDTH 897 0
DWIDTH 9 0
BBX 7 8 1 0
BITMAP
F8
20
20
3C
22
22
22
22
ENDCHAR
STARTCHAR uni040C
ENCODING 1036
SWIDTH 616 0
DWIDTH 6 0
BBX 5 10 1 0
BITMAP
20
00
88
90
A0
C0
C0
A0
90
88
ENDCHAR
STARTCHAR uni040D
ENCODING 1037
SWIDTH 772 0
DWIDTH 8 0
BBX 6 10 1 0
BITMAP
20
00
84
8C
94
94
A4
C4
84
84
ENDCHAR
STARTCHAR uni040E
ENCODING 1038
SWIDTH 573 0
DWIDTH 6 0
BBX 5 10 0 0
BITMAP
30
00
88
48
48
50
30
20
20
60
ENDCHAR
STARTCHAR uni040F
ENCODING 1039
SWIDTH 711 0
DWIDTH 7 0
BBX 5 10 1 -2
BITMAP
88
88
88
88
88
88
88
D8
20
20
ENDCHAR
STARTCHAR uni0410
ENCODING 1040
SWIDTH 616 0
DWIDTH 6 0
BBX 6 8 0 0
BITMAP
20
30
30
48
48
78
84
84
ENDCHAR
STARTCHAR uni0411
ENCODING 1041
SWIDTH 666 0
DWIDTH 7 0
BBX 5 8 1 0
BITMAP
F0
80
80
F0
88
88
88
F8
ENDCHAR
STARTCHAR uni0412
ENCODING 1042
SWIDTH 640 0
DWIDTH 6 0
BBX 5 8 1 0
BITMAP
F0
88
88
F0
88
88
88
F0
ENDCHAR
STARTCHAR uni0413
ENCODING 1043
SWIDTH 571 0
DWIDTH 6 0
BBX 4 8 1 0
BITMAP
F0
80
80
80
80
80
80
80
ENDCHAR
STARTCHAR uni0414
ENCODING 1044
SWIDTH 708 0
DWIDTH 7 0
BBX 7 10 0 -2
BITMAP
7C
44
44
44
44
44
44
7C
82
82
ENDCHAR
STARTCHAR uni0415
ENCODING 1045
SWIDTH 583 0
DWIDTH 6 0
BBX 4 8 1 0
BITMAP
F0
80
80
80
F0
80
80
F0
ENDCHAR
STARTCHAR uni0416
ENCODING 1046
SWIDTH 812 0
DWIDTH 8 0
BBX 8 8 0 0
BITMAP
89
4A
2C
18
2C
4A
49
89
ENDCHAR
STARTCHAR uni0417
ENCODING 1047
SWIDTH 613 0
DWIDTH 6 0
BBX 4 8 1 0
BITMAP
F0
90
10
20
10
10
90
F0
ENDCHAR
STARTCHAR uni0418
ENCODING 1048
SWIDTH 772 0
DWIDTH 8 0
BBX 6 8 1 0
BITMAP
84
8C
94
94
A4
C4
84
84
ENDCHAR
STARTCHAR uni0419
ENCODING 1049
SWIDTH 772 0
DWIDTH 8 0
BBX 6 10 1 0
BITMAP
30
00
84
8C
94
94
A4
C4
84
84
ENDCHAR
STARTCHAR uni041A
ENCODING 1050
SWIDTH 585 0
DWIDTH 6 0
BBX 5 8 1 0
BITMAP
90
A0
A0
C0
A0
A0
90
88
ENDCHAR
STARTCHAR uni041B
ENCODING 1051
SWIDTH 703 0
DWIDTH 7 0
BBX 6 8 0 0
BITMAP
3C
24
44
44
44
44
44
C4
ENDCHAR
STARTCHAR uni041C
ENCODING 1052
SWIDTH 863 0
DWIDTH 9 0
BBX 7 8 1 0
BITMAP
82
82
86
C6
CA
AA
B2
92
ENDCHAR
STARTCHAR uni041D
ENCODING 1053
SWIDTH 735 0
DWIDTH 7 0
BBX 5 8 1 0
BITMAP
88
88
88
88
F8
88
88
88
ENDCHAR
STARTCHAR uni041E
ENCODING 1054
SWIDTH 747 0
DWIDTH 7 0
BBX 6 8 1 0
BITMAP
78
84
84
84
84
84
84
78
ENDCHAR
STARTCHAR uni041F
ENCODING 1055
SWIDTH 678 0
DWIDTH 7 0
BBX 5 8 1 0
BITMAP
F8
88
88
88
88
88
88
88
ENDCHAR
STARTCHAR uni0420
ENCODING 1056
SWIDTH 606 0
DWIDTH 6 0
BBX 4 8 1 0
BITMAP
F0
90
90
90
E0
80
80
80
ENDCHAR
STARTCHAR uni0421
ENCODING 1057
SWIDTH 723 0
DWIDTH 7 0
BBX 6 8 1 0
BITMAP
78
84
84
80
80
84
84
78
ENDCHAR
STARTCHAR uni0422
ENCODING 1058
SWIDTH 613 0
DWIDTH 6 0
BBX 5 8 1 0
BITMAP
F8
20
20
20
20
20
20
20
ENDCHAR
STARTCHAR uni0423
ENCODING 1059
SWIDTH 573 0
DWIDTH 6 0
BBX 5 8 0 0
BITMAP
88
48
48
50
30
20
20
60
ENDCHAR
STARTCHAR uni0424
ENCODING 1060
SWIDTH 725 0
DWIDTH 7 0
BBX 6 8 1 0
BITMAP
20
70
A8
A4
A4
A4
A8
70
ENDCHAR
STARTCHAR uni0425
ENCODING 1061
SWIDTH 585 0
DWIDTH 6 0
BBX 6 8 0 0
BITMAP
84
48
50
20
20
30
48
84
ENDCHAR
STARTCHAR uni0426
ENCODING 1062
SWIDTH 685 0
DWIDTH 7 0
BBX 5 10 1 -2
BITMAP
88
88
88
88
88
88
88
F8
08
08
ENDCHAR
STARTCHAR uni0427
ENCODING 1063
SWIDTH 683 0
DWIDTH 7 0
BBX 5 8 1 0
BITMAP
88
88
88
88
78
08
08
08
ENDCHAR
STARTCHAR uni0428
ENCODING 1064
SWIDTH 910 0
DWIDTH 9 0
BBX 7 8 1 0
BITMAP
92
92
92
92
92
92
92
FE
ENDCHAR
STARTCHAR uni0429
ENCODING 1065
SWIDTH 881 0
DWIDTH 9 0
BBX 7 10 1 -2
BITMAP
92
92
92
92
92
92
92
FE
02
02
ENDCHAR
STARTCHAR uni042A
ENCODING 1066
SWIDTH 808 0
DWIDTH 8 0
BBX 6 8 1 0
BITMAP
C0
40
40
38
44
44
44
7C
ENDCHAR
STARTCHAR uni042B
ENCODING 1067
SWIDTH 840 0
DWIDTH 8 0
BBX 6 8 1 0
BITMAP
84
84
84
F4
8C
8C
8C
FC
ENDCHAR
STARTCHAR uni042C
ENCODING 1068
SWIDTH 653 0
DWIDTH 7 0
BBX 5 8 1 0
BITMAP
80
80
80
F0
88
88
88
F8
ENDCHAR
STARTCHAR uni042D
ENCODING 1069
SWIDTH 642 0
DWIDTH 6 0
BBX 5 8 1 0
BITMAP
F0
88
08
78
08
88
88
F0
ENDCHAR
STARTCHAR uni042E
ENCODING 1070
SWIDTH 973 0
DWIDTH 10 0
BBX 8 8 1 0
BITMAP
9E
A1
A1
A1
C1
A1
A1
9E
ENDCHAR
STARTCHAR uni042F
ENCODING 1071
SWIDTH 644 0
DWIDTH 6 0
BBX 4 8 1 0
BITMAP
70
90
90
90
70
50
90
90
ENDCHAR
STARTCHAR uni0430
ENCODING 1072
SWIDTH 541 0
DWIDTH 5 0
BBX 3 6 1 0
BITMAP
E0
20
60
A0
A0
E0
ENDCHAR
STARTCHAR uni0431
ENCODING 1073
SWIDTH 571 0
DWIDTH 6 0
BBX 4 8 1 0
BITMAP
F0
80
F0
90
90
90
90
E0
ENDCHAR
STARTCHAR uni0432
ENCODING 1074
SWIDTH 549 0
DWIDTH 6 0
BBX 4 6 1 0
BITMAP
F0
90
E0
90
90
F0
ENDCHAR
STARTCHAR uni0433
ENCODING 1075
SWIDTH 454 0
DWIDTH 5 0
BBX 3 6 1 0
BITMAP
E0
80
80
80
80
80
ENDCHAR
STARTCHAR uni0434
ENCODING 1076
SWIDTH 576 0
DWIDTH 6 0
BBX 5 7 0 -1
BITMAP
78
48
48
48
48
F8
88
ENDCHAR
STARTCHAR uni0435
ENCODING 1077
SWIDTH 576 0
DWIDTH 6 0
BBX 4 6 1 0
BITMAP
F0
90
F0
80
80
F0
ENDCHAR
STARTCHAR uni0436
ENCODING 1078
SWIDTH 786 0
DWIDTH 8 0
BBX 6 6 1 0
BITMAP
A4
A8
68
30
68
A4
ENDCHAR
STARTCHAR uni0437
ENCODING 1079
SWIDTH 484 0
DWIDTH 5 0
BBX 3 6 1 0
BITMAP
E0
20
40
20
A0
E0
ENDCHAR
STARTCHAR uni0438
ENCODING 1080
SWIDTH 588 0
DWIDTH 6 0
BBX 4 6 1 0
BITMAP
90
B0
B0
D0
90
90
ENDCHAR
STARTCHAR uni0439
ENCODING 1081
SWIDTH 588 0
DWIDTH 6 0
BBX 4 8 1 0
BITMAP
60
00
90
B0
B0
D0
90
90
ENDCHAR
STARTCHAR uni043A
ENCODING 1082
SWIDTH 474 0
DWIDTH 5 0
BBX 3 6 1 0
BITMAP
A0
A0
C0
80
C0
A0
ENDCHAR
STARTCHAR uni043B
ENCODING 1083
SWIDTH 582 0
DWIDTH 6 0
BBX 5 6 0 0
BITMAP
78
48
48
48
48
C8
ENDCHAR
STARTCHAR uni043C
ENCODING 1084
SWIDTH 714 0
DWIDTH 7 0
BBX 5 6 1 0
BITMAP
88
88
98
D8
A8
A8
ENDCHAR
STARTCHAR uni043D
ENCODING 1085
SWIDTH 583 0
DWIDTH 6 0
BBX 4 6 1 0
BITMAP
90
90
90
F0
90
90
ENDCHAR
STARTCHAR uni043E
ENCODING 1086
SWIDTH 579 0
DWIDTH 6 0
BBX 4 6 1 0
BITMAP
E0
90
90
90
90
F0
ENDCHAR
STARTCHAR uni043F
ENCODING 1087
SWIDTH 579 0
DWIDTH 6 0
BBX 4 6 1 0
BITMAP
F0
90
90
90
90
90
ENDCHAR
STARTCHAR uni0440
ENCODING 1088
SWIDTH 580 0
DWIDTH 6 0
BBX 4 8 1 -2
BITMAP
F0
90
90
90
90
F0
80
80
ENDCHAR
STARTCHAR uni0441
ENCODING 1089
SWIDTH 552 0
DWIDTH 6 0
BBX 4 6 1 0
BITMAP
E0
90
80
80
90
F0
ENDCHAR
STARTCHAR uni0442
ENCODING 1090
SWIDTH 510 0
DWIDTH 5 0
BBX 4 6 1 0
BITMAP
F0
40
40
40
40
40
ENDCHAR
STARTCHAR uni0443
ENCODING 1091
SWIDTH 522 0
DWIDTH 5 0
BBX 4 8 1 -2
BITMAP
90
90
A0
A0
40
40
40
80
ENDCHAR
STARTCHAR uni0444
ENCODING 1092
SWIDTH 713 0
DWIDTH 7 0
BBX 5 10 1 -2
BITMAP
20
20
70
A8
A8
A8
A8
78
20
20
ENDCHAR
STARTCHAR uni0445
ENCODING 1093
SWIDTH 500 0
DWIDTH 5 0
BBX 3 6 1 0
BITMAP
A0
A0
40
40
A0
A0
ENDCHAR
STARTCHAR uni0446
ENCODING 1094
SWIDTH 548 0
DWIDTH 5 0
BBX 4 8 1 -2
BITMAP
90
90
90
90
90
F0
10
10
ENDCHAR
STARTCHAR uni0447
ENCODING 1095
SWIDTH 562 0
DWIDTH 6 0
BBX 4 6 1 0
BITMAP
90
90
90
70
10
10
ENDCHAR
STARTCHAR uni0448
ENCODING 1096
SWIDTH 781 0
DWIDTH 8 0
BBX 6 6 1 0
BITMAP
A4
A4
A4
A4
A4
FC
ENDCHAR
STARTCHAR uni0449
ENCODING 1097
SWIDTH 772 0
DWIDTH 8 0
BBX 6 7 1 -1
BITMAP
A4
A4
A4
A4
A4
FC
04
ENDCHAR
STARTCHAR uni044A
ENCODING 1098
SWIDTH 606 0
DWIDTH 6 0
BBX 5 6 0 0
BITMAP
C0
40
30
48
48
78
ENDCHAR
STARTCHAR uni044B
ENCODING 1099
SWIDTH 684 0
DWIDTH 7 0
BBX 5 6 1 0
BITMAP
88
88
E8
98
98
E8
ENDCHAR
STARTCHAR uni044C
ENCODING 1100
SWIDTH 521 0
DWIDTH 5 0
BBX 4 6 1 0
BITMAP
80
80
E0
90
90
E0
ENDCHAR
STARTCHAR uni044D
ENCODING 1101
SWIDTH 528 0
DWIDTH 5 0
BBX 4 6 1 0
BITMAP
E0
10
70
10
90
E0
ENDCHAR
STARTCHAR uni044E
ENCODING 1102
SWIDTH 794 0
DWIDTH 8 0
BBX 7 6 0 0
BITMAP
9C
92
A2
E2
92
9E
ENDCHAR
STARTCHAR uni044F
ENCODING 1103
SWIDTH 546 0
DWIDTH 5 0
BBX 4 6 0 0
BITMAP
70
50
50
30
50
90
ENDCHAR
STARTCHAR uni0450
ENCODING 1104
SWIDTH 576 0
DWIDTH 6 0
BBX 4 9 1 0
BITMAP
80
40
00
F0
90
F0
80
80
F0
ENDCHAR
STARTCHAR uni0451
ENCODING 1105
SWIDTH 576 0
DWIDTH 6 0
BBX 4 8 1 0
BITMAP
60
00
F0
90
F0
80
80
F0
ENDCHAR
STARTCHAR uni0452
ENCODING 1106
SWIDTH 568 0
DWIDTH 6 0
BBX 5 10 0 -2
BITMAP
C0
40
70
48
48
48
48
48
08
18
ENDCHAR
STARTCHAR uni0453
ENCODING 1107
SWIDTH 454 0
DWIDTH 5 0
BBX 3 9 1 0
BITMAP
20
40
00
E0
80
80
80
80
80
ENDCHAR
STARTCHAR uni0454
ENCODING 1108
SWIDTH 464 0
DWIDTH 5 0
BBX 4 6 0 0
BITMAP
70
90
80
C0
80
70
ENDCHAR
STARTCHAR uni0455
ENCODING 1109
SWIDTH 492 0
DWIDTH 5 0
BBX 3 6 1 0
BITMAP
E0
80
C0
20
20
E0
ENDCHAR
STARTCHAR uni0456
ENCODING 1110
SWIDTH 221 0
DWIDTH 2 0
BBX 1 8 1 0
BITMAP
80
00
80
80
80
80
80
80
ENDCHAR
STARTCHAR uni0457
ENCODING 1111
SWIDTH 221 0
DWIDTH 2 0
BBX 2 8 0 0
BITMAP
C0
00
40
40
40
40
40
40
ENDCHAR
STARTCHAR uni0458
ENCODING 1112
SWIDTH 221 0
DWIDTH 2 0
BBX 1 10 0 -2
BITMAP
80
00
80
80
80
80
80
80
80
80
ENDCHAR
STARTCHAR uni0459
ENCODING 1113
SWIDTH 896 0
DWIDTH 9 0
BBX 8 6 0 0
BITMAP
78
48
46
49
49
CF
ENDCHAR
STARTCHAR uni045A
ENCODING 1114
SWIDTH 885 0
DWIDTH 9 0
BBX 7 6 1 0
BITMAP
90
90
FC
92
92
9E
ENDCHAR
STARTCHAR uni045B
ENCODING 1115
SWIDTH 568 0
DWIDTH 6 0
BBX 5 8 0 0
BITMAP
C0
40
70
48
48
48
48
48
ENDCHAR
STARTCHAR uni045C
ENCODING 1116
SWIDTH 474 0
DWIDTH 5 0
BBX 3 9 1 0
BITMAP
20
40
00
A0
A0
C0
80
C0
A0
ENDCHAR
STARTCHAR uni045D
ENCODING 1117
SWIDTH 588 0
DWIDTH 6 0
BBX 4 9 1 0
BITMAP
80
40
00
90
B0
B0
D0
90
90
ENDCHAR
STARTCHAR uni045E
ENCODING 1118
SWIDTH 522 0
DWIDTH 5 0
BBX 4 10 1 -2
BITMAP
40
00
90
90
A0
A0
40
40
40
80
ENDCHAR
STARTCHAR uni045F
ENCODING 1119
SWIDTH 567 0
DWIDTH 6 0
BBX 4 8 1 -2
BITMAP
90
90
90
90
90
B0
40
40
ENDCHAR
STARTCHAR uni0460
ENCODING 1120
SWIDTH 791 0
DWIDTH 8 0
BBX 6 8 1 0
BITMAP
A4
A4
A4
A4
A4
A4
A4
FC
ENDCHAR
STARTCHAR uni0461
ENCODING 1121
SWIDTH 725 0
DWIDTH 7 0
BBX 5 6 1 0
BITMAP
A8
A8
A8
A8
A8
F8
ENDCHAR
STARTCHAR uni0462
ENCODING 1122
SWIDTH 653 0
DWIDTH 7 0
BBX 6 8 0 0
BITMAP
40
E0
40
78
44
44
44
7C
ENDCHAR
STARTCHAR uni0463
ENCODING 1123
SWIDTH 531 0
DWIDTH 5 0
BBX 5 9 0 0
BITMAP
40
40
E0
40
40
70
48
48
78
ENDCHAR
STARTCHAR uni0464
ENCODING 1124
SWIDTH 888 0
DWIDTH 9 0
BBX 7 8 1 0
BITMAP
9C
A2
C0
F8
C0
C2
A2
9C
ENDCHAR
STARTCHAR uni0465
ENCODING 1125
SWIDTH 751 0
DWIDTH 8 0
BBX 6 6 1 0
BITMAP
B8
A4
C0
F0
C4
BC
ENDCHAR
STARTCHAR uni0466
ENCODING 1126
SWIDTH 518 0
DWIDTH 5 0
BBX 5 8 0 0
BITMAP
20
20
50
50
50
70
A8
A8
ENDCHAR
STARTCHAR uni0467
ENCODING 1127
SWIDTH 428 0
DWIDTH 4 0
BBX 4 6 0 0
BITMAP
20
20
60
50
F0
B0
ENDCHAR
STARTCHAR uni0468
ENCODING 1128
SWIDTH 775 0
DWIDTH 8 0
BBX 6 8 1 0
BITMAP
90
B0
A8
A8
A8
F8
94
94
ENDCHAR
STARTCHAR uni0469
ENCODING 1129
SWIDTH 656 0
DWIDTH 7 0
BBX 5 6 1 0
BITMAP
A0
E0
D0
90
F0
A8
ENDCHAR
STARTCHAR uni046A
ENCODING 1130
SWIDTH 689 0
DWIDTH 7 0
BBX 7 8 0 0
BITMAP
7C
28
28
7C
92
92
92
92
ENDCHAR
STARTCHAR uni046B
ENCODING 1131
SWIDTH 679 0
DWIDTH 7 0
BBX 5 6 1 0
BITMAP
F0
50
60
70
A8
A8
ENDCHAR
STARTCHAR uni046C
ENCODING 1132
SWIDTH 854 0
DWIDTH 9 0
BBX 8 8 0 0
BITMAP
9F
92
8C
FE
A5
C5
C5
C5
ENDCHAR
STARTCHAR uni046D
ENCODING 1133
SWIDTH 889 0
DWIDTH 9 0
BBX 7 6 1 0
BITMAP
BE
94
88
FC
AA
CA
ENDCHAR
STARTCHAR uni046E
ENCODING 1134
SWIDTH 507 0
DWIDTH 5 0
BBX 3 13 1 -2
BITMAP
20
40
00
E0
20
20
C0
20
20
20
60
80
80
ENDCHAR
STARTCHAR uni046F
ENCODING 1135
SWIDTH 431 0
DWIDTH 4 0
BBX 4 11 0 -2
BITMAP
A0
40
00
F0
10
60
10
10
60
80
80
ENDCHAR
STARTCHAR uni0470
ENCODING 1136
SWIDTH 731 0
DWIDTH 7 0
BBX 5 8 1 0
BITMAP
A8
A8
A8
A8
A8
A8
70
20
ENDCHAR
STARTCHAR uni0471
ENCODING 1137
SWIDTH 692 0
DWIDTH 7 0
BBX 5 8 1 -2
BITMAP
A8
A8
A8
A8
A8
78
20
20
ENDCHAR
STARTCHAR uni0472
ENCODING 1138
SWIDTH 747 0
DWIDTH 7 0
BBX 6 8 1 0
BITMAP
78
84
84
FC
84
84
88
78
ENDCHAR
STARTCHAR uni0473
ENCODING 1139
SWIDTH 579 0
DWIDTH 6 0
BBX 4 6 1 0
BITMAP
E0
90
F0
90
90
E0
ENDCHAR
STARTCHAR uni0474
ENCODING 1140
SWIDTH 649 0
DWIDTH 6 0
BBX 6 8 0 0
BITMAP
84
84
48
48
48
30
30
20
ENDCHAR
STARTCHAR uni0475
ENCODING 1141
SWIDTH 585 0
DWIDTH 6 0
BBX 4 6 1 0
BITMAP
90
90
A0
A0
40
40
ENDCHAR
STARTCHAR uni0476
ENCODING 1142
SWIDTH 649 0
DWIDTH 6 0
BBX 6 10 0 0
BITMAP
20
10
84
84
48
48
48
30
30
20
ENDCHAR
STARTCHAR uni0477
ENCODING 1143
SWIDTH 585 0
DWIDTH 6 0
BBX 4 9 1 0
BITMAP
C0
60
00
90
90
A0
A0
40
40
ENDCHAR
STARTCHAR uni0478
ENCODING 1144
SWIDTH 1269 0
DWIDTH 13 0
BBX 11 10 1 -2
BITMAP
7800
8400
8520
8520
8520
84C0
84C0
7880
0080
0180
ENDCHAR
STARTCHAR uni0479
ENCODING 1145
SWIDTH 1082 0
DWIDTH 11 0
BBX 9 8 1 -2
BITMAP
E480
9480
8A80
8A80
9300
F100
0100
0600
ENDCHAR
STARTCHAR uni047A
ENCODING 1146
SWIDTH 741 0
DWIDTH 7 0
BBX 6 10 1 -1
BITMAP
20
78
84
84
84
84
84
84
78
20
ENDCHAR
STARTCHAR uni047B
ENCODING 1147
SWIDTH 648 0
DWIDTH 6 0
BBX 4 7 1 0
BITMAP
40
F0
90
90
90
90
F0
ENDCHAR
STARTCHAR uni047C
ENCODING 1148
SWIDTH 731 0
DWIDTH 7 0
BBX 5 10 1 0
BITMAP
78
20
A8
88
88
A8
A8
A8
A8
F8
ENDCHAR
STARTCHAR uni047D
ENCODING 1149
SWIDTH 605 0
DWIDTH 6 0
BBX 6 8 0 0
BITMAP
78
10
C4
84
84
94
94
FC
ENDCHAR
STARTCHAR uni047E
ENCODING 1150
SWIDTH 791 0
DWIDTH 8 0
BBX 6 10 1 0
BITMAP
78
20
84
84
84
84
A4
A4
A4
FC
ENDCHAR
STARTCHAR uni047F
ENCODING 1151
SWIDTH 525 0
DWIDTH 5 0
BBX 5 8 0 0
BITMAP
70
00
A8
A8
A8
A8
A8
F8
ENDCHAR
STARTCHAR uni0480
ENCODING 1152
SWIDTH 591 0
DWIDTH 6 0
BBX 6 10 0 -2
BITMAP
78
84
80
80
80
80
80
40
20
20
ENDCHAR
STARTCHAR uni0481
ENCODING 1153
SWIDTH 504 0
DWIDTH 5 0
BBX 4 8 1 -2
BITMAP
E0
90
80
80
80
80
40
40
ENDCHAR
STARTCHAR uni0482
ENCODING 1154
SWIDTH 589 0
DWIDTH 6 0
BBX 4 7 1 0
BITMAP
10
60
30
40
C0
A0
80
ENDCHAR
STARTCHAR uni0483
ENCODING 1155
SWIDTH 0 0
DWIDTH 0 0
BBX 3 1 -4 7
BITMAP
E0
ENDCHAR
STARTCHAR uni0484
ENCODING 1156
SWIDTH 0 0
DWIDTH 0 0
BBX 3 2 -4 7
BITMAP
60
A0
ENDCHAR
STARTCHAR uni0485
ENCODING 1157
SWIDTH 0 0
DWIDTH 0 0
BBX 1 1 -3 7
BITMAP
80
ENDCHAR
STARTCHAR uni0486
ENCODING 1158
SWIDTH 0 0
DWIDTH 0 0
BBX 1 1 -3 7
BITMAP
80
ENDCHAR
STARTCHAR uni0487
ENCODING 1159
SWIDTH 0 0
DWIDTH 0 0
BBX 3 2 -4 7
BITMAP
40
A0
ENDCHAR
STARTCHAR uni0488
ENCODING 1160
SWIDTH 0 0
DWIDTH 0 0
BBX 9 9 -7 -1
BITMAP
0C00
6100
0000
0000
C080
0000
0000
6100
0C00
ENDCHAR
STARTCHAR uni0489
ENCODING 1161
SWIDTH 0 0
DWIDTH 0 0
BBX 9 10 -7 -2
BITMAP
0800
4800
4300
0000
8100
4080
0000
4200
0900
0800
ENDCHAR
STARTCHAR uni048A
ENCODING 1162
SWIDTH 772 0
DWIDTH 8 0
BBX 6 12 1 -2
BITMAP
30
00
84
8C
94
94
A4
C4
84
84
04
04
ENDCHAR
STARTCHAR uni048B
ENCODING 1163
SWIDTH 588 0
DWIDTH 6 0
BBX 4 10 1 -2
BITMAP
60
00
90
B0
B0
D0
90
90
10
10
ENDCHAR
STARTCHAR uni048C
ENCODING 1164
SWIDTH 653 0
DWIDTH 7 0
BBX 6 8 0 0
BITMAP
40
E0
40
78
44
44
44
7C
ENDCHAR
STARTCHAR uni048D
ENCODING 1165
SWIDTH 531 0
DWIDTH 5 0
BBX 5 9 0 0
BITMAP
40
E0
40
40
40
70
48
48
78
ENDCHAR
STARTCHAR uni048E
ENCODING 1166
SWIDTH 608 0
DWIDTH 6 0
BBX 4 8 1 0
BITMAP
F0
90
90
90
F0
80
80
80
ENDCHAR
STARTCHAR uni048F
ENCODING 1167
SWIDTH 607 0
DWIDTH 6 0
BBX 4 8 1 -2
BITMAP
F0
90
90
90
90
F0
80
80
ENDCHAR
STARTCHAR uni0490
ENCODING 1168
SWIDTH 568 0
DWIDTH 6 0
BBX 4 10 1 0
BITMAP
10
10
E0
80
80
80
80
80
80
80
ENDCHAR
STARTCHAR uni0491
ENCODING 1169
SWIDTH 455 0
DWIDTH 5 0
BBX 3 7 1 0
BITMAP
20
C0
80
80
80
80
80
ENDCHAR
STARTCHAR uni0492
ENCODING 1170
SWIDTH 571 0
DWIDTH 6 0
BBX 5 8 0 0
BITMAP
78
40
40
E0
40
40
40
40
ENDCHAR
STARTCHAR uni0493
ENCODING 1171
SWIDTH 454 0
DWIDTH 5 0
BBX 4 6 0 0
BITMAP
70
40
40
C0
40
40
ENDCHAR
STARTCHAR uni0494
ENCODING 1172
SWIDTH 596 0
DWIDTH 6 0
BBX 4 10 1 -2
BITMAP
F0
80
80
E0
90
90
90
90
10
20
ENDCHAR
STARTCHAR uni0495
ENCODING 1173
SWIDTH 500 0
DWIDTH 5 0
BBX 3 8 1 -2
BITMAP
E0
80
C0
A0
A0
A0
20
40
ENDCHAR
STARTCHAR uni0496
ENCODING 1174
SWIDTH 812 0
DWIDTH 8 0
BBX 8 10 0 -2
BITMAP
89
4A
4A
2C
1C
2A
4A
89
01
01
ENDCHAR
STARTCHAR uni0497
ENCODING 1175
SWIDTH 786 0
DWIDTH 8 0
BBX 6 8 1 -2
BITMAP
A4
A8
68
30
68
A4
04
04
ENDCHAR
STARTCHAR uni0498
ENCODING 1176
SWIDTH 613 0
DWIDTH 6 0
BBX 4 10 1 -2
BITMAP
F0
90
10
20
10
10
90
D0
20
20
ENDCHAR
STARTCHAR uni0499
ENCODING 1177
SWIDTH 484 0
DWIDTH 5 0
BBX 3 8 1 -2
BITMAP
E0
20
40
20
A0
A0
40
60
ENDCHAR
STARTCHAR uni049A
ENCODING 1178
SWIDTH 596 0
DWIDTH 6 0
BBX 5 9 1 -1
BITMAP
90
A0
A0
C0
A0
A0
90
88
08
ENDCHAR
STARTCHAR uni049B
ENCODING 1179
SWIDTH 474 0
DWIDTH 5 0
BBX 3 8 1 -2
BITMAP
A0
A0
C0
80
C0
A0
20
20
ENDCHAR
STARTCHAR uni049C
ENCODING 1180
SWIDTH 622 0
DWIDTH 6 0
BBX 5 8 1 0
BITMAP
88
90
E0
E0
E0
90
90
88
ENDCHAR
STARTCHAR uni049D
ENCODING 1181
SWIDTH 545 0
DWIDTH 5 0
BBX 4 6 1 0
BITMAP
90
A0
A0
C0
A0
90
ENDCHAR
STARTCHAR uni04A0
ENCODING 1184
SWIDTH 642 0
DWIDTH 6 0
BBX 6 8 0 0
BITMAP
E4
28
28
30
28
28
24
24
ENDCHAR
STARTCHAR uni04A1
ENCODING 1185
SWIDTH 634 0
DWIDTH 6 0
BBX 5 6 1 0
BITMAP
C8
50
50
20
50
48
ENDCHAR
STARTCHAR uni04A2
ENCODING 1186
SWIDTH 742 0
DWIDTH 7 0
BBX 5 10 1 -2
BITMAP
88
88
88
88
F8
88
88
88
08
08
ENDCHAR
STARTCHAR uni04A3
ENCODING 1187
SWIDTH 556 0
DWIDTH 6 0
BBX 4 8 1 -2
BITMAP
90
90
90
F0
90
90
10
10
ENDCHAR
STARTCHAR uni04A4
ENCODING 1188
SWIDTH 965 0
DWIDTH 10 0
BBX 8 8 1 0
BITMAP
87
84
84
84
F8
84
84
84
ENDCHAR
STARTCHAR uni04A5
ENCODING 1189
SWIDTH 715 0
DWIDTH 7 0
BBX 6 6 1 0
BITMAP
9C
90
90
F0
90
90
ENDCHAR
STARTCHAR uni04A6
ENCODING 1190
SWIDTH 973 0
DWIDTH 10 0
BBX 8 10 1 -2
BITMAP
F8
88
88
8E
89
89
89
89
01
02
ENDCHAR
STARTCHAR uni04A7
ENCODING 1191
SWIDTH 888 0
DWIDTH 9 0
BBX 7 7 1 -1
BITMAP
F0
90
90
8C
92
92
04
ENDCHAR
STARTCHAR uni04A8
ENCODING 1192
SWIDTH 761 0
DWIDTH 8 0
BBX 6 8 1 0
BITMAP
F8
A4
A4
A4
A4
A4
A8
7C
ENDCHAR
STARTCHAR uni04A9
ENCODING 1193
SWIDTH 513 0
DWIDTH 5 0
BBX 5 6 0 0
BITMAP
F0
C8
C8
C8
A8
78
ENDCHAR
STARTCHAR uni04AA
ENCODING 1194
SWIDTH 723 0
DWIDTH 7 0
BBX 6 10 1 -2
BITMAP
78
84
84
80
80
84
84
68
10
10
ENDCHAR
STARTCHAR uni04AB
ENCODING 1195
SWIDTH 552 0
DWIDTH 6 0
BBX 4 8 1 -2
BITMAP
F0
90
80
80
90
D0
20
20
ENDCHAR
STARTCHAR uni04AC
ENCODING 1196
SWIDTH 613 0
DWIDTH 6 0
BBX 5 10 1 -2
BITMAP
F8
20
20
20
20
20
20
20
20
20
ENDCHAR
STARTCHAR uni04AD
ENCODING 1197
SWIDTH 510 0
DWIDTH 5 0
BBX 4 8 1 -2
BITMAP
F0
40
40
40
40
40
40
40
ENDCHAR
STARTCHAR uni04AE
ENCODING 1198
SWIDTH 613 0
DWIDTH 6 0
BBX 6 8 0 0
BITMAP
84
48
28
30
10
10
10
10
ENDCHAR
STARTCHAR uni04AF
ENCODING 1199
SWIDTH 521 0
DWIDTH 5 0
BBX 4 8 1 -2
BITMAP
90
90
A0
A0
40
40
40
40
ENDCHAR
STARTCHAR uni04B0
ENCODING 1200
SWIDTH 613 0
DWIDTH 6 0
BBX 6 8 0 0
BITMAP
84
48
28
30
30
10
10
10
ENDCHAR
STARTCHAR uni04B1
ENCODING 1201
SWIDTH 521 0
DWIDTH 5 0
BBX 4 8 1 -2
BITMAP
90
90
A0
A0
40
E0
40
40
ENDCHAR
STARTCHAR uni04B2
ENCODING 1202
SWIDTH 585 0
DWIDTH 6 0
BBX 6 10 0 -2
BITMAP
84
48
50
20
20
30
48
84
04
04
ENDCHAR
STARTCHAR uni04B3
ENCODING 1203
SWIDTH 500 0
DWIDTH 5 0
BBX 3 8 1 -2
BITMAP
A0
A0
40
40
A0
A0
20
20
ENDCHAR
STARTCHAR uni04B4
ENCODING 1204
SWIDTH 845 0
DWIDTH 8 0
BBX 7 10 1 -2
BITMAP
F2
42
42
42
42
42
42
7E
02
02
ENDCHAR
STARTCHAR uni04B5
ENCODING 1205
SWIDTH 692 0
DWIDTH 7 0
BBX 6 7 0 -1
BITMAP
F4
24
24
24
24
3C
04
ENDCHAR
STARTCHAR uni04B6
ENCODING 1206
SWIDTH 683 0
DWIDTH 7 0
BBX 5 10 1 -2
BITMAP
88
88
88
88
78
08
08
08
08
08
ENDCHAR
STARTCHAR uni04B7
ENCODING 1207
SWIDTH 544 0
DWIDTH 5 0
BBX 4 8 1 -2
BITMAP
90
90
90
70
10
10
10
10
ENDCHAR
STARTCHAR uni04B8
ENCODING 1208
SWIDTH 675 0
DWIDTH 7 0
BBX 5 8 1 0
BITMAP
88
88
88
A8
78
28
08
08
ENDCHAR
STARTCHAR uni04B9
ENCODING 1209
SWIDTH 562 0
DWIDTH 6 0
BBX 4 6 1 0
BITMAP
90
90
D0
70
10
10
ENDCHAR
STARTCHAR uni04BA
ENCODING 1210
SWIDTH 683 0
DWIDTH 7 0
BBX 5 8 1 0
BITMAP
80
80
80
F0
88
88
88
88
ENDCHAR
STARTCHAR uni04BB
ENCODING 1211
SWIDTH 568 0
DWIDTH 6 0
BBX 4 8 1 0
BITMAP
80
80
E0
90
90
90
90
90
ENDCHAR
STARTCHAR uni04BC
ENCODING 1212
SWIDTH 769 0
DWIDTH 8 0
BBX 6 8 1 0
BITMAP
38
44
C4
7C
40
40
40
3C
ENDCHAR
STARTCHAR uni04BD
ENCODING 1213
SWIDTH 707 0
DWIDTH 7 0
BBX 5 6 1 0
BITMAP
38
C8
F8
40
40
38
ENDCHAR
STARTCHAR uni04BE
ENCODING 1214
SWIDTH 769 0
DWIDTH 8 0
BBX 6 10 1 -2
BITMAP
38
44
C4
7C
40
40
40
2C
10
10
ENDCHAR
STARTCHAR uni04BF
ENCODING 1215
SWIDTH 707 0
DWIDTH 7 0
BBX 5 8 1 -2
BITMAP
38
C8
F8
40
40
28
10
10
ENDCHAR
STARTCHAR uni04C0
ENCODING 1216
SWIDTH 250 0
DWIDTH 3 0
BBX 1 8 1 0
BITMAP
80
80
80
80
80
80
80
80
ENDCHAR
STARTCHAR uni04C1
ENCODING 1217
SWIDTH 812 0
DWIDTH 8 0
BBX 8 10 0 0
BITMAP
18
00
89
4A
2C
18
2C
4A
49
89
ENDCHAR
STARTCHAR uni04C2
ENCODING 1218
SWIDTH 786 0
DWIDTH 8 0
BBX 6 8 1 0
BITMAP
30
00
A4
A8
68
30
68
A4
ENDCHAR
STARTCHAR uni04C3
ENCODING 1219
SWIDTH 653 0
DWIDTH 7 0
BBX 5 10 1 -2
BITMAP
88
90
A0
F0
88
88
88
88
08
10
ENDCHAR
STARTCHAR uni04C4
ENCODING 1220
SWIDTH 550 0
DWIDTH 6 0
BBX 4 7 1 -1
BITMAP
90
A0
C0
E0
90
90
20
ENDCHAR
STARTCHAR uni04C5
ENCODING 1221
SWIDTH 703 0
DWIDTH 7 0
BBX 6 10 0 -2
BITMAP
3C
24
44
44
44
44
44
C4
04
04
ENDCHAR
STARTCHAR uni04C6
ENCODING 1222
SWIDTH 582 0
DWIDTH 6 0
BBX 5 8 0 -2
BITMAP
78
48
48
48
48
C8
08
08
ENDCHAR
STARTCHAR uni04C7
ENCODING 1223
SWIDTH 735 0
DWIDTH 7 0
BBX 5 10 1 -2
BITMAP
88
88
88
F8
88
88
88
88
08
08
ENDCHAR
STARTCHAR uni04C8
ENCODING 1224
SWIDTH 583 0
DWIDTH 6 0
BBX 4 8 1 -2
BITMAP
90
90
F0
90
90
90
10
10
ENDCHAR
STARTCHAR uni04C9
ENCODING 1225
SWIDTH 735 0
DWIDTH 7 0
BBX 5 10 1 -2
BITMAP
88
88
88
88
F8
88
88
88
08
08
ENDCHAR
STARTCHAR uni04CA
ENCODING 1226
SWIDTH 583 0
DWIDTH 6 0
BBX 4 8 1 -2
BITMAP
90
90
90
F0
90
90
10
10
ENDCHAR
STARTCHAR uni04CB
ENCODING 1227
SWIDTH 683 0
DWIDTH 7 0
BBX 5 10 1 -2
BITMAP
88
88
88
88
78
08
08
08
08
08
ENDCHAR
STARTCHAR uni04CC
ENCODING 1228
SWIDTH 556 0
DWIDTH 6 0
BBX 4 8 1 -2
BITMAP
90
90
90
70
10
10
10
10
ENDCHAR
STARTCHAR uni04CD
ENCODING 1229
SWIDTH 863 0
DWIDTH 9 0
BBX 7 10 1 -2
BITMAP
82
82
86
C6
CA
AA
B2
92
02
02
ENDCHAR
STARTCHAR uni04CE
ENCODING 1230
SWIDTH 714 0
DWIDTH 7 0
BBX 5 8 1 -2
BITMAP
88
88
98
D8
A8
A8
08
08
ENDCHAR
STARTCHAR uni04CF
ENCODING 1231
SWIDTH 250 0
DWIDTH 3 0
BBX 1 8 1 0
BITMAP
80
80
80
80
80
80
80
80
ENDCHAR
STARTCHAR uni04D0
ENCODING 1232
SWIDTH 616 0
DWIDTH 6 0
BBX 6 10 0 0
BITMAP
30
00
20
30
30
48
48
78
84
84
ENDCHAR
STARTCHAR uni04D1
ENCODING 1233
SWIDTH 541 0
DWIDTH 5 0
BBX 3 8 1 0
BITMAP
60
00
E0
20
60
A0
A0
E0
ENDCHAR
STARTCHAR uni04D2
ENCODING 1234
SWIDTH 616 0
DWIDTH 6 0
BBX 6 10 0 0
BITMAP
30
00
20
30
30
48
48
78
84
84
ENDCHAR
STARTCHAR uni04D3
ENCODING 1235
SWIDTH 541 0
DWIDTH 5 0
BBX 3 8 1 0
BITMAP
60
00
E0
20
60
A0
A0
E0
ENDCHAR
STARTCHAR uni04D4
ENCODING 1236
SWIDTH 958 0
DWIDTH 10 0
BBX 9 8 0 0
BITMAP
1F80
1800
1800
2800
2780
7800
4800
8F80
ENDCHAR
STARTCHAR uni04D5
ENCODING 1237
SWIDTH 921 0
DWIDTH 9 0
BBX 8 6 1 0
BITMAP
EE
11
7F
90
90
EE
ENDCHAR
STARTCHAR uni04D6
ENCODING 1238
SWIDTH 583 0
DWIDTH 6 0
BBX 4 10 1 0
BITMAP
60
00
F0
80
80
80
F0
80
80
F0
ENDCHAR
STARTCHAR uni04D7
ENCODING 1239
SWIDTH 576 0
DWIDTH 6 0
BBX 4 8 1 0
BITMAP
60
00
F0
90
F0
80
80
F0
ENDCHAR
STARTCHAR uni04D8
ENCODING 1240
SWIDTH 676 0
DWIDTH 7 0
BBX 5 8 1 0
BITMAP
F0
08
08
08
F8
88
88
70
ENDCHAR
STARTCHAR uni04D9
ENCODING 1241
SWIDTH 576 0
DWIDTH 6 0
BBX 4 6 1 0
BITMAP
E0
10
10
F0
90
E0
ENDCHAR
STARTCHAR uni04DA
ENCODING 1242
SWIDTH 676 0
DWIDTH 7 0
BBX 5 10 1 0
BITMAP
50
00
F0
08
08
08
F8
88
88
70
ENDCHAR
STARTCHAR uni04DB
ENCODING 1243
SWIDTH 576 0
DWIDTH 6 0
BBX 4 8 1 0
BITMAP
60
00
E0
10
10
F0
90
E0
ENDCHAR
STARTCHAR uni04DC
ENCODING 1244
SWIDTH 812 0
DWIDTH 8 0
BBX 8 10 0 0
BITMAP
18
00
89
4A
2C
18
2C
4A
49
89
ENDCHAR
STARTCHAR uni04DD
ENCODING 1245
SWIDTH 786 0
DWIDTH 8 0
BBX 6 8 1 0
BITMAP
30
00
A4
A8
68
30
68
A4
ENDCHAR
STARTCHAR uni04DE
ENCODING 1246
SWIDTH 613 0
DWIDTH 6 0
BBX 4 10 1 0
BITMAP
60
00
F0
90
10
20
10
10
90
F0
ENDCHAR
STARTCHAR uni04DF
ENCODING 1247
SWIDTH 484 0
DWIDTH 5 0
BBX 3 8 1 0
BITMAP
A0
00
E0
20
40
20
A0
E0
ENDCHAR
STARTCHAR uni04E0
ENCODING 1248
SWIDTH 599 0
DWIDTH 6 0
BBX 4 8 1 0
BITMAP
F0
20
20
60
10
10
90
F0
ENDCHAR
STARTCHAR uni04E1
ENCODING 1249
SWIDTH 599 0
DWIDTH 6 0
BBX 4 8 1 -2
BITMAP
F0
20
20
60
10
10
90
F0
ENDCHAR
STARTCHAR uni04E2
ENCODING 1250
SWIDTH 772 0
DWIDTH 8 0
BBX 6 10 1 0
BITMAP
30
00
84
8C
94
94
A4
C4
84
84
ENDCHAR
STARTCHAR uni04E3
ENCODING 1251
SWIDTH 588 0
DWIDTH 6 0
BBX 4 8 1 0
BITMAP
60
00
90
B0
B0
D0
90
90
ENDCHAR
STARTCHAR uni04E4
ENCODING 1252
SWIDTH 772 0
DWIDTH 8 0
BBX 6 10 1 0
BITMAP
30
00
84
8C
94
94
A4
C4
84
84
ENDCHAR
STARTCHAR uni04E5
ENCODING 1253
SWIDTH 588 0
DWIDTH 6 0
BBX 4 8 1 0
BITMAP
60
00
90
B0
B0
D0
90
90
ENDCHAR
STARTCHAR uni04E6
ENCODING 1254
SWIDTH 747 0
DWIDTH 7 0
BBX 6 10 1 0
BITMAP
30
00
78
84
84
84
84
84
84
78
ENDCHAR
STARTCHAR uni04E7
ENCODING 1255
SWIDTH 579 0
DWIDTH 6 0
BBX 4 8 1 0
BITMAP
60
00
E0
90
90
90
90
F0
ENDCHAR
STARTCHAR uni04E8
ENCODING 1256
SWIDTH 747 0
DWIDTH 7 0
BBX 6 8 1 0
BITMAP
78
84
84
FC
84
84
88
78
ENDCHAR
STARTCHAR uni04E9
ENCODING 1257
SWIDTH 579 0
DWIDTH 6 0
BBX 4 6 1 0
BITMAP
E0
90
F0
90
90
E0
ENDCHAR
STARTCHAR uni04EA
ENCODING 1258
SWIDTH 747 0
DWIDTH 7 0
BBX 6 10 1 0
BITMAP
30
00
78
84
84
FC
84
84
88
78
ENDCHAR
STARTCHAR uni04EB
ENCODING 1259
SWIDTH 579 0
DWIDTH 6 0
BBX 4 8 1 0
BITMAP
60
00
E0
90
F0
90
90
E0
ENDCHAR
STARTCHAR uni04EC
ENCODING 1260
SWIDTH 642 0
DWIDTH 6 0
BBX 5 10 1 0
BITMAP
60
00
F0
88
08
78
08
88
88
F0
ENDCHAR
STARTCHAR uni04ED
ENCODING 1261
SWIDTH 528 0
DWIDTH 5 0
BBX 4 8 1 0
BITMAP
A0
00
E0
10
70
10
90
E0
ENDCHAR
STARTCHAR uni04EE
ENCODING 1262
SWIDTH 573 0
DWIDTH 6 0
BBX 5 10 0 0
BITMAP
30
00
88
48
48
50
30
20
20
60
ENDCHAR
STARTCHAR uni04EF
ENCODING 1263
SWIDTH 522 0
DWIDTH 5 0
BBX 4 10 1 -2
BITMAP
E0
00
90
90
A0
A0
40
40
40
80
ENDCHAR
STARTCHAR uni04F0
ENCODING 1264
SWIDTH 573 0
DWIDTH 6 0
BBX 5 10 0 0
BITMAP
30
00
88
48
48
50
30
20
20
60
ENDCHAR
STARTCHAR uni04F1
ENCODING 1265
SWIDTH 522 0
DWIDTH 5 0
BBX 4 10 1 -2
BITMAP
A0
00
90
90
A0
A0
40
40
40
80
ENDCHAR
STARTCHAR uni04F2
ENCODING 1266
SWIDTH 573 0
DWIDTH 6 0
BBX 5 10 0 0
BITMAP
28
30
88
48
48
50
30
20
20
60
ENDCHAR
STARTCHAR uni04F3
ENCODING 1267
SWIDTH 522 0
DWIDTH 5 0
BBX 4 11 1 -2
BITMAP
50
60
00
90
90
A0
A0
40
40
40
80
ENDCHAR
STARTCHAR uni04F4
ENCODING 1268
SWIDTH 683 0
DWIDTH 7 0
BBX 5 10 1 0
BITMAP
50
00
88
88
88
88
78
08
08
08
ENDCHAR
STARTCHAR uni04F5
ENCODING 1269
SWIDTH 562 0
DWIDTH 6 0
BBX 4 8 1 0
BITMAP
60
00
90
90
90
70
10
10
ENDCHAR
STARTCHAR uni04F6
ENCODING 1270
SWIDTH 571 0
DWIDTH 6 0
BBX 4 10 1 -2
BITMAP
F0
80
80
80
80
80
80
80
80
80
ENDCHAR
STARTCHAR uni04F7
ENCODING 1271
SWIDTH 454 0
DWIDTH 5 0
BBX 3 8 1 -2
BITMAP
E0
80
80
80
80
80
80
80
ENDCHAR
STARTCHAR uni04F8
ENCODING 1272
SWIDTH 711 0
DWIDTH 7 0
BBX 6 9 1 0
BITMAP
30
84
84
84
F4
8C
8C
8C
F4
ENDCHAR
STARTCHAR uni04F9
ENCODING 1273
SWIDTH 684 0
DWIDTH 7 0
BBX 5 8 1 0
BITMAP
50
00
88
88
E8
98
98
E8
ENDCHAR
STARTCHAR uni04FA
ENCODING 1274
SWIDTH 571 0
DWIDTH 6 0
BBX 5 10 0 -2
BITMAP
78
40
40
E0
40
40
40
40
40
C0
ENDCHAR
STARTCHAR uni04FB
ENCODING 1275
SWIDTH 452 0
DWIDTH 5 0
BBX 4 8 0 -2
BITMAP
70
40
C0
40
40
40
40
80
ENDCHAR
STARTCHAR uni04FC
ENCODING 1276
SWIDTH 585 0
DWIDTH 6 0
BBX 6 10 0 -2
BITMAP
84
48
50
20
20
30
48
84
04
0C
ENDCHAR
STARTCHAR uni04FD
ENCODING 1277
SWIDTH 512 0
DWIDTH 5 0
BBX 4 8 1 -2
BITMAP
A0
A0
40
40
A0
A0
10
30
ENDCHAR
STARTCHAR uni04FE
ENCODING 1278
SWIDTH 585 0
DWIDTH 6 0
BBX 6 8 0 0
BITMAP
84
48
48
30
30
30
48
84
ENDCHAR
STARTCHAR uni04FF
ENCODING 1279
SWIDTH 500 0
DWIDTH 5 0
BBX 3 6 1 0
BITMAP
A0
A0
C0
E0
A0
A0
ENDCHAR
STARTCHAR uni052F
ENCODING 1327
SWIDTH 559 0
DWIDTH 6 0
BBX 5 7 0 -1
BITMAP
78
48
48
48
48
C8
08
ENDCHAR
STARTCHAR uni0E3F
ENCODING 3647
SWIDTH 640 0
DWIDTH 6 0
BBX 5 9 1 -1
BITMAP
F0
A8
A8
B0
F0
A8
A8
F0
20
ENDCHAR
STARTCHAR uni1D43
ENCODING 7491
SWIDTH 363 0
DWIDTH 4 0
BBX 3 4 0 4
BITMAP
E0
60
A0
E0
ENDCHAR
STARTCHAR uni1D47
ENCODING 7495
SWIDTH 400 0
DWIDTH 4 0
BBX 3 5 1 4
BITMAP
80
C0
A0
A0
C0
ENDCHAR
STARTCHAR uni1D48
ENCODING 7496
SWIDTH 400 0
DWIDTH 4 0
BBX 3 5 0 4
BITMAP
20
E0
A0
A0
E0
ENDCHAR
STARTCHAR uni1D49
ENCODING 7497
SWIDTH 384 0
DWIDTH 4 0
BBX 3 4 0 4
BITMAP
60
E0
80
60
ENDCHAR
STARTCHAR uni1D4D
ENCODING 7501
SWIDTH 392 0
DWIDTH 4 0
BBX 3 6 0 2
BITMAP
E0
A0
A0
E0
20
E0
ENDCHAR
STARTCHAR uni1D4F
ENCODING 7503
SWIDTH 330 0
DWIDTH 3 0
BBX 2 5 1 4
BITMAP
80
C0
80
80
C0
ENDCHAR
STARTCHAR uni1D50
ENCODING 7504
SWIDTH 561 0
DWIDTH 6 0
BBX 4 4 1 4
BITMAP
F0
D0
D0
D0
ENDCHAR
STARTCHAR uni1D52
ENCODING 7506
SWIDTH 387 0
DWIDTH 4 0
BBX 3 4 0 4
BITMAP
60
A0
A0
60
ENDCHAR
STARTCHAR uni1D56
ENCODING 7510
SWIDTH 389 0
DWIDTH 4 0
BBX 2 6 1 2
BITMAP
C0
C0
C0
C0
80
80
ENDCHAR
STARTCHAR uni1D57
ENCODING 7511
SWIDTH 232 0
DWIDTH 2 0
BBX 2 5 0 4
BITMAP
80
C0
80
80
40
ENDCHAR
STARTCHAR uni1D58
ENCODING 7512
SWIDTH 380 0
DWIDTH 4 0
BBX 2 4 1 4
BITMAP
C0
C0
C0
C0
ENDCHAR
STARTCHAR uni1D5B
ENCODING 7515
SWIDTH 352 0
DWIDTH 4 0
BBX 3 4 0 4
BITMAP
A0
A0
40
40
ENDCHAR
STARTCHAR uni1D62
ENCODING 7522
SWIDTH 149 0
DWIDTH 1 0
BBX 1 5 0 -2
BITMAP
80
80
80
80
80
ENDCHAR
STARTCHAR uni1D63
ENCODING 7523
SWIDTH 244 0
DWIDTH 2 0
BBX 1 5 1 -2
BITMAP
80
80
80
80
80
ENDCHAR
STARTCHAR uni1D64
ENCODING 7524
SWIDTH 380 0
DWIDTH 4 0
BBX 2 5 1 -2
BITMAP
C0
C0
C0
C0
C0
ENDCHAR
STARTCHAR uni1D65
ENCODING 7525
SWIDTH 352 0
DWIDTH 4 0
BBX 3 5 0 -2
BITMAP
A0
A0
60
40
40
ENDCHAR
STARTCHAR uni1D9C
ENCODING 7580
SWIDTH 369 0
DWIDTH 4 0
BBX 3 4 0 4
BITMAP
60
80
80
60
ENDCHAR
STARTCHAR uni1DA0
ENCODING 7584
SWIDTH 224 0
DWIDTH 2 0
BBX 2 6 0 4
BITMAP
40
40
C0
40
40
40
ENDCHAR
STARTCHAR uni1DBB
ENCODING 7611
SWIDTH 343 0
DWIDTH 3 0
BBX 3 4 0 4
BITMAP
60
20
40
E0
ENDCHAR
STARTCHAR uni1DBF
ENCODING 7615
SWIDTH 416 0
DWIDTH 4 0
BBX 4 6 0 3
BITMAP
70
90
F0
90
90
60
ENDCHAR
STARTCHAR uni1DC0
ENCODING 7616
SWIDTH 0 0
DWIDTH 0 0
BBX 2 2 -4 6
BITMAP
80
C0
ENDCHAR
STARTCHAR uni1DC1
ENCODING 7617
SWIDTH 0 0
DWIDTH 0 0
BBX 2 1 -4 6
BITMAP
C0
ENDCHAR
STARTCHAR uni1DC2
ENCODING 7618
SWIDTH 0 0
DWIDTH 0 0
BBX 1 3 -3 -3
BITMAP
80
80
80
ENDCHAR
STARTCHAR uni1DC3
ENCODING 7619
SWIDTH 0 0
DWIDTH 0 0
BBX 2 1 -3 6
BITMAP
C0
ENDCHAR
STARTCHAR uni1DC4
ENCODING 7620
SWIDTH 0 0
DWIDTH 0 0
BBX 2 2 -3 6
BITMAP
40
80
ENDCHAR
STARTCHAR uni1DC5
ENCODING 7621
SWIDTH 0 0
DWIDTH 0 0
BBX 3 2 -4 6
BITMAP
80
60
ENDCHAR
STARTCHAR uni1DC6
ENCODING 7622
SWIDTH 0 0
DWIDTH 0 0
BBX 2 2 -3 7
BITMAP
80
40
ENDCHAR
STARTCHAR uni1DC7
ENCODING 7623
SWIDTH 0 0
DWIDTH 0 0
BBX 2 2 -3 7
BITMAP
C0
80
ENDCHAR
STARTCHAR uni1DC8
ENCODING 7624
SWIDTH 0 0
DWIDTH 0 0
BBX 2 2 -3 7
BITMAP
80
C0
ENDCHAR
STARTCHAR uni1DC9
ENCODING 7625
SWIDTH 0 0
DWIDTH 0 0
BBX 3 2 -3 7
BITMAP
A0
C0
ENDCHAR
STARTCHAR uni1DCA
ENCODING 7626
SWIDTH 0 0
DWIDTH 0 0
BBX 1 3 -3 -3
BITMAP
80
80
80
ENDCHAR
STARTCHAR uni1DCB
ENCODING 7627
SWIDTH 0 0
DWIDTH 0 0
BBX 5 2 -5 6
BITMAP
B8
C0
ENDCHAR
STARTCHAR uni1DCC
ENCODING 7628
SWIDTH 0 0
DWIDTH 0 0
BBX 5 2 -5 6
BITMAP
E8
18
ENDCHAR
STARTCHAR uni1DCD
ENCODING 7629
SWIDTH 0 0
DWIDTH 0 0
BBX 10 1 -5 7
BITMAP
FFC0
ENDCHAR
STARTCHAR uni1DCE
ENCODING 7630
SWIDTH 0 0
DWIDTH 0 0
BBX 2 3 -3 5
BITMAP
C0
40
40
ENDCHAR
STARTCHAR uni1DCF
ENCODING 7631
SWIDTH 0 0
DWIDTH 0 0
BBX 1 3 -3 -3
BITMAP
80
80
80
ENDCHAR
STARTCHAR uni1DD0
ENCODING 7632
SWIDTH 0 0
DWIDTH 0 0
BBX 2 2 -3 -3
BITMAP
80
C0
ENDCHAR
STARTCHAR uni1DD1
ENCODING 7633
SWIDTH 0 0
DWIDTH 0 0
BBX 3 2 -4 6
BITMAP
A0
E0
ENDCHAR
STARTCHAR uni1DD2
ENCODING 7634
SWIDTH 0 0
DWIDTH 0 0
BBX 3 4 -4 6
BITMAP
40
A0
60
40
ENDCHAR
STARTCHAR uni1DD3
ENCODING 7635
SWIDTH 0 0
DWIDTH 0 0
BBX 3 1 -4 6
BITMAP
E0
ENDCHAR
STARTCHAR uni1DD4
ENCODING 7636
SWIDTH 0 0
DWIDTH 0 0
BBX 4 4 -5 6
BITMAP
50
B0
F0
50
ENDCHAR
STARTCHAR uni1DD5
ENCODING 7637
SWIDTH 0 0
DWIDTH 0 0
BBX 4 4 -4 6
BITMAP
A0
D0
D0
A0
ENDCHAR
STARTCHAR uni1DD6
ENCODING 7638
SWIDTH 0 0
DWIDTH 0 0
BBX 3 4 -4 6
BITMAP
A0
C0
C0
C0
ENDCHAR
STARTCHAR uni1DD7
ENCODING 7639
SWIDTH 0 0
DWIDTH 0 0
BBX 3 5 -4 5
BITMAP
40
A0
A0
40
40
ENDCHAR
STARTCHAR uni1DD8
ENCODING 7640
SWIDTH 0 0
DWIDTH 0 0
BBX 3 5 -4 6
BITMAP
40
40
A0
A0
40
ENDCHAR
STARTCHAR uni1DD9
ENCODING 7641
SWIDTH 0 0
DWIDTH 0 0
BBX 3 5 -4 6
BITMAP
40
40
A0
A0
40
ENDCHAR
STARTCHAR uni1DDA
ENCODING 7642
SWIDTH 0 0
DWIDTH 0 0
BBX 3 5 -4 5
BITMAP
60
A0
A0
60
C0
ENDCHAR
STARTCHAR uni1DDB
ENCODING 7643
SWIDTH 0 0
DWIDTH 0 0
BBX 3 4 -4 6
BITMAP
40
A0
E0
40
ENDCHAR
STARTCHAR uni1DDC
ENCODING 7644
SWIDTH 0 0
DWIDTH 0 0
BBX 2 5 -4 6
BITMAP
80
80
C0
80
C0
ENDCHAR
STARTCHAR uni1DDD
ENCODING 7645
SWIDTH 0 0
DWIDTH 0 0
BBX 1 4 -3 6
BITMAP
80
80
80
80
ENDCHAR
STARTCHAR uni1DDE
ENCODING 7646
SWIDTH 0 0
DWIDTH 0 0
BBX 1 3 -3 6
BITMAP
80
80
80
ENDCHAR
STARTCHAR uni1DDF
ENCODING 7647
SWIDTH 0 0
DWIDTH 0 0
BBX 3 3 -4 6
BITMAP
A0
A0
E0
ENDCHAR
STARTCHAR uni1DE0
ENCODING 7648
SWIDTH 0 0
DWIDTH 0 0
BBX 2 3 -4 7
BITMAP
C0
C0
C0
ENDCHAR
STARTCHAR uni1DE1
ENCODING 7649
SWIDTH 0 0
DWIDTH 0 0
BBX 2 3 -4 6
BITMAP
C0
C0
C0
ENDCHAR
STARTCHAR uni1DE2
ENCODING 7650
SWIDTH 0 0
DWIDTH 0 0
BBX 2 4 -4 6
BITMAP
C0
C0
C0
C0
ENDCHAR
STARTCHAR uni1DE3
ENCODING 7651
SWIDTH 0 0
DWIDTH 0 0
BBX 1 4 -3 6
BITMAP
80
80
80
80
ENDCHAR
STARTCHAR uni1DE4
ENCODING 7652
SWIDTH 0 0
DWIDTH 0 0
BBX 2 4 -4 6
BITMAP
40
80
40
C0
ENDCHAR
STARTCHAR uni1DE5
ENCODING 7653
SWIDTH 0 0
DWIDTH 0 0
BBX 1 5 -3 6
BITMAP
80
80
80
80
80
ENDCHAR
STARTCHAR uni1DE6
ENCODING 7654
SWIDTH 0 0
DWIDTH 0 0
BBX 2 4 -4 6
BITMAP
C0
40
40
C0
ENDCHAR
STARTCHAR uni1DE7
ENCODING 7655
SWIDTH 0 0
DWIDTH 0 0
BBX 3 4 -4 6
BITMAP
40
A0
A0
60
ENDCHAR
STARTCHAR uni1DE8
ENCODING 7656
SWIDTH 0 0
DWIDTH 0 0
BBX 3 5 -4 6
BITMAP
80
C0
A0
A0
C0
ENDCHAR
STARTCHAR uni1DE9
ENCODING 7657
SWIDTH 0 0
DWIDTH 0 0
BBX 3 6 -4 5
BITMAP
40
A0
C0
A0
C0
80
ENDCHAR
STARTCHAR uni1DEA
ENCODING 7658
SWIDTH 0 0
DWIDTH 0 0
BBX 3 4 -4 6
BITMAP
40
A0
E0
40
ENDCHAR
STARTCHAR uni1DEB
ENCODING 7659
SWIDTH 0 0
DWIDTH 0 0
BBX 1 4 -3 7
BITMAP
80
80
80
80
ENDCHAR
STARTCHAR uni1DEC
ENCODING 7660
SWIDTH 0 0
DWIDTH 0 0
BBX 1 4 -3 6
BITMAP
80
80
80
80
ENDCHAR
STARTCHAR uni1DED
ENCODING 7661
SWIDTH 0 0
DWIDTH 0 0
BBX 3 4 -4 6
BITMAP
40
A0
A0
C0
ENDCHAR
STARTCHAR uni1DEE
ENCODING 7662
SWIDTH 0 0
DWIDTH 0 0
BBX 2 5 -4 5
BITMAP
C0
C0
C0
C0
80
ENDCHAR
STARTCHAR uni1DEF
ENCODING 7663
SWIDTH 0 0
DWIDTH 0 0
BBX 2 6 -4 5
BITMAP
40
40
40
40
40
80
ENDCHAR
STARTCHAR uni1DF0
ENCODING 7664
SWIDTH 0 0
DWIDTH 0 0
BBX 2 3 -4 6
BITMAP
C0
C0
C0
ENDCHAR
STARTCHAR uni1DF1
ENCODING 7665
SWIDTH 0 0
DWIDTH 0 0
BBX 3 3 -4 6
BITMAP
E0
E0
A0
ENDCHAR
STARTCHAR uni1DF2
ENCODING 7666
SWIDTH 0 0
DWIDTH 0 0
BBX 2 5 -3 6
BITMAP
80
80
C0
C0
C0
ENDCHAR
STARTCHAR uni1DF3
ENCODING 7667
SWIDTH 0 0
DWIDTH 0 0
BBX 3 5 -4 6
BITMAP
C0
40
A0
A0
40
ENDCHAR
STARTCHAR uni1DF4
ENCODING 7668
SWIDTH 0 0
DWIDTH 0 0
BBX 2 5 -4 6
BITMAP
C0
C0
C0
C0
40
ENDCHAR
STARTCHAR uni1DF5
ENCODING 7669
SWIDTH 0 0
DWIDTH 0 0
BBX 2 2 -3 6
BITMAP
80
C0
ENDCHAR
STARTCHAR uni1DFC
ENCODING 7676
SWIDTH 0 0
DWIDTH 0 0
BBX 6 2 -3 -2
BITMAP
78
84
ENDCHAR
STARTCHAR uni1DFD
ENCODING 7677
SWIDTH 0 0
DWIDTH 0 0
BBX 3 3 -4 -3
BITMAP
E0
A0
E0
ENDCHAR
STARTCHAR uni1DFE
ENCODING 7678
SWIDTH 0 0
DWIDTH 0 0
BBX 4 3 -4 6
BITMAP
70
80
70
ENDCHAR
STARTCHAR uni1DFF
ENCODING 7679
SWIDTH 0 0
DWIDTH 0 0
BBX 7 3 -6 -3
BITMAP
92
7C
C4
ENDCHAR
STARTCHAR uni1E00
ENCODING 7680
SWIDTH 616 0
DWIDTH 6 0
BBX 6 10 0 -2
BITMAP
20
30
30
48
78
48
84
84
10
30
ENDCHAR
STARTCHAR uni1E01
ENCODING 7681
SWIDTH 541 0
DWIDTH 5 0
BBX 3 8 1 -2
BITMAP
E0
20
60
A0
A0
A0
40
60
ENDCHAR
STARTCHAR uni1E02
ENCODING 7682
SWIDTH 640 0
DWIDTH 6 0
BBX 5 10 1 0
BITMAP
20
00
F0
88
88
F0
88
88
88
F0
ENDCHAR
STARTCHAR uni1E03
ENCODING 7683
SWIDTH 598 0
DWIDTH 6 0
BBX 4 8 1 0
BITMAP
80
80
F0
90
90
90
90
F0
ENDCHAR
STARTCHAR uni1E04
ENCODING 7684
SWIDTH 640 0
DWIDTH 6 0
BBX 5 10 1 -2
BITMAP
F0
88
88
F0
88
88
88
F0
00
20
ENDCHAR
STARTCHAR uni1E05
ENCODING 7685
SWIDTH 598 0
DWIDTH 6 0
BBX 4 10 1 -2
BITMAP
80
80
F0
90
90
90
90
F0
00
20
ENDCHAR
STARTCHAR uni1E06
ENCODING 7686
SWIDTH 640 0
DWIDTH 6 0
BBX 5 10 1 -2
BITMAP
F0
88
88
F0
88
88
88
F0
00
60
ENDCHAR
STARTCHAR uni1E07
ENCODING 7687
SWIDTH 598 0
DWIDTH 6 0
BBX 4 10 1 -2
BITMAP
80
80
F0
90
90
90
90
F0
00
60
ENDCHAR
STARTCHAR uni1E08
ENCODING 7688
SWIDTH 723 0
DWIDTH 7 0
BBX 6 12 1 -2
BITMAP
10
00
78
84
84
80
80
84
84
68
10
10
ENDCHAR
STARTCHAR uni1E09
ENCODING 7689
SWIDTH 552 0
DWIDTH 6 0
BBX 4 11 1 -2
BITMAP
20
20
00
F0
90
80
80
90
D0
20
20
ENDCHAR
STARTCHAR uni1E0A
ENCODING 7690
SWIDTH 714 0
DWIDTH 7 0
BBX 5 10 1 0
BITMAP
20
00
F0
88
88
88
88
88
88
F0
ENDCHAR
STARTCHAR uni1E0B
ENCODING 7691
SWIDTH 598 0
DWIDTH 6 0
BBX 4 9 1 0
BITMAP
40
10
10
F0
90
90
90
90
F0
ENDCHAR
STARTCHAR uni1E0C
ENCODING 7692
SWIDTH 714 0
DWIDTH 7 0
BBX 5 10 1 -2
BITMAP
F0
88
88
88
88
88
88
F0
00
40
ENDCHAR
STARTCHAR uni1E0D
ENCODING 7693
SWIDTH 598 0
DWIDTH 6 0
BBX 4 10 1 -2
BITMAP
10
10
F0
90
90
90
90
F0
00
40
ENDCHAR
STARTCHAR uni1E0E
ENCODING 7694
SWIDTH 714 0
DWIDTH 7 0
BBX 5 10 1 -2
BITMAP
F0
88
88
88
88
88
88
F0
00
60
ENDCHAR
STARTCHAR uni1E0F
ENCODING 7695
SWIDTH 598 0
DWIDTH 6 0
BBX 4 10 1 -2
BITMAP
10
10
F0
90
90
90
90
F0
00
60
ENDCHAR
STARTCHAR uni1E10
ENCODING 7696
SWIDTH 714 0
DWIDTH 7 0
BBX 5 10 1 -2
BITMAP
F0
88
88
88
88
88
88
B0
40
40
ENDCHAR
STARTCHAR uni1E11
ENCODING 7697
SWIDTH 598 0
DWIDTH 6 0
BBX 4 10 1 -2
BITMAP
10
10
F0
90
90
90
90
B0
40
40
ENDCHAR
STARTCHAR uni1E12
ENCODING 7698
SWIDTH 714 0
DWIDTH 7 0
BBX 5 10 1 -2
BITMAP
F0
88
88
88
88
88
88
F0
00
60
ENDCHAR
STARTCHAR uni1E13
ENCODING 7699
SWIDTH 598 0
DWIDTH 6 0
BBX 4 10 1 -2
BITMAP
10
10
F0
90
90
90
90
F0
00
60
ENDCHAR
STARTCHAR uni1E14
ENCODING 7700
SWIDTH 583 0
DWIDTH 6 0
BBX 4 10 1 0
BITMAP
40
60
90
80
80
80
F0
80
80
F0
ENDCHAR
STARTCHAR uni1E15
ENCODING 7701
SWIDTH 576 0
DWIDTH 6 0
BBX 4 9 1 0
BITMAP
40
60
00
F0
90
F0
80
80
F0
ENDCHAR
STARTCHAR uni1E16
ENCODING 7702
SWIDTH 583 0
DWIDTH 6 0
BBX 4 10 1 0
BITMAP
20
60
90
80
80
80
F0
80
80
F0
ENDCHAR
STARTCHAR uni1E17
ENCODING 7703
SWIDTH 576 0
DWIDTH 6 0
BBX 4 10 1 0
BITMAP
20
40
60
00
F0
90
F0
80
80
F0
ENDCHAR
STARTCHAR uni1E18
ENCODING 7704
SWIDTH 583 0
DWIDTH 6 0
BBX 4 10 1 -2
BITMAP
F0
80
80
F0
80
80
80
F0
00
60
ENDCHAR
STARTCHAR uni1E19
ENCODING 7705
SWIDTH 576 0
DWIDTH 6 0
BBX 4 8 1 -2
BITMAP
F0
90
F0
80
80
F0
00
60
ENDCHAR
STARTCHAR uni1E1A
ENCODING 7706
SWIDTH 583 0
DWIDTH 6 0
BBX 4 10 1 -2
BITMAP
F0
80
80
80
F0
80
80
A0
50
A0
ENDCHAR
STARTCHAR uni1E1B
ENCODING 7707
SWIDTH 576 0
DWIDTH 6 0
BBX 4 8 1 -2
BITMAP
F0
90
F0
80
80
B0
50
A0
ENDCHAR
STARTCHAR uni1E1C
ENCODING 7708
SWIDTH 583 0
DWIDTH 6 0
BBX 4 12 1 -2
BITMAP
60
00
F0
80
80
80
F0
80
80
D0
20
20
ENDCHAR
STARTCHAR uni1E1D
ENCODING 7709
SWIDTH 576 0
DWIDTH 6 0
BBX 4 10 1 -2
BITMAP
60
00
F0
90
F0
80
80
D0
20
20
ENDCHAR
STARTCHAR uni1E1E
ENCODING 7710
SWIDTH 585 0
DWIDTH 6 0
BBX 4 10 1 0
BITMAP
20
00
F0
80
80
80
F0
80
80
80
ENDCHAR
STARTCHAR uni1E1F
ENCODING 7711
SWIDTH 330 0
DWIDTH 3 0
BBX 2 10 1 0
BITMAP
80
00
C0
80
C0
80
80
80
80
80
ENDCHAR
STARTCHAR uni1E20
ENCODING 7712
SWIDTH 738 0
DWIDTH 7 0
BBX 6 10 1 0
BITMAP
30
00
78
84
84
80
9C
84
84
78
ENDCHAR
STARTCHAR uni1E21
ENCODING 7713
SWIDTH 583 0
DWIDTH 6 0
BBX 4 10 1 -2
BITMAP
60
00
F0
90
90
90
90
F0
10
F0
ENDCHAR
STARTCHAR uni1E22
ENCODING 7714
SWIDTH 735 0
DWIDTH 7 0
BBX 5 10 1 0
BITMAP
20
00
88
88
88
88
F8
88
88
88
ENDCHAR
STARTCHAR uni1E23
ENCODING 7715
SWIDTH 568 0
DWIDTH 6 0
BBX 4 10 1 0
BITMAP
80
00
80
80
E0
90
90
90
90
90
ENDCHAR
STARTCHAR uni1E24
ENCODING 7716
SWIDTH 735 0
DWIDTH 7 0
BBX 5 10 1 -2
BITMAP
88
88
88
88
F8
88
88
88
00
20
ENDCHAR
STARTCHAR uni1E25
ENCODING 7717
SWIDTH 568 0
DWIDTH 6 0
BBX 4 10 1 -2
BITMAP
80
80
E0
90
90
90
90
90
00
40
ENDCHAR
STARTCHAR uni1E26
ENCODING 7718
SWIDTH 735 0
DWIDTH 7 0
BBX 5 10 1 0
BITMAP
50
00
88
88
88
88
F8
88
88
88
ENDCHAR
STARTCHAR uni1E27
ENCODING 7719
SWIDTH 568 0
DWIDTH 6 0
BBX 5 10 0 0
BITMAP
C0
00
40
40
70
48
48
48
48
48
ENDCHAR
STARTCHAR uni1E28
ENCODING 7720
SWIDTH 735 0
DWIDTH 7 0
BBX 5 10 1 -2
BITMAP
88
88
88
88
F8
88
88
88
80
80
ENDCHAR
STARTCHAR uni1E29
ENCODING 7721
SWIDTH 568 0
DWIDTH 6 0
BBX 4 10 1 -2
BITMAP
80
80
E0
90
90
90
90
90
80
80
ENDCHAR
STARTCHAR uni1E2A
ENCODING 7722
SWIDTH 735 0
DWIDTH 7 0
BBX 5 10 1 -2
BITMAP
88
88
88
88
F8
88
88
88
00
20
ENDCHAR
STARTCHAR uni1E2B
ENCODING 7723
SWIDTH 568 0
DWIDTH 6 0
BBX 4 10 1 -2
BITMAP
80
80
E0
90
90
90
90
90
20
40
ENDCHAR
STARTCHAR uni1E2C
ENCODING 7724
SWIDTH 250 0
DWIDTH 3 0
BBX 3 10 0 -2
BITMAP
40
40
40
40
40
40
40
40
A0
C0
ENDCHAR
STARTCHAR uni1E2D
ENCODING 7725
SWIDTH 221 0
DWIDTH 2 0
BBX 4 8 -1 -2
BITMAP
20
20
20
20
20
20
50
A0
ENDCHAR
STARTCHAR uni1E2E
ENCODING 7726
SWIDTH 250 0
DWIDTH 3 0
BBX 2 10 0 0
BITMAP
40
C0
40
40
40
40
40
40
40
40
ENDCHAR
STARTCHAR uni1E2F
ENCODING 7727
SWIDTH 221 0
DWIDTH 2 0
BBX 2 10 0 0
BITMAP
40
40
80
00
40
40
40
40
40
40
ENDCHAR
STARTCHAR uni1E30
ENCODING 7728
SWIDTH 616 0
DWIDTH 6 0
BBX 5 10 1 0
BITMAP
20
00
88
90
A0
C0
C0
A0
90
88
ENDCHAR
STARTCHAR uni1E31
ENCODING 7729
SWIDTH 487 0
DWIDTH 5 0
BBX 4 10 1 0
BITMAP
80
00
80
80
A0
C0
80
C0
A0
90
ENDCHAR
STARTCHAR uni1E32
ENCODING 7730
SWIDTH 616 0
DWIDTH 6 0
BBX 5 10 1 -2
BITMAP
88
90
A0
C0
C0
A0
90
88
00
20
ENDCHAR
STARTCHAR uni1E33
ENCODING 7731
SWIDTH 487 0
DWIDTH 5 0
BBX 4 10 1 -2
BITMAP
80
80
A0
C0
80
C0
A0
90
00
40
ENDCHAR
STARTCHAR uni1E34
ENCODING 7732
SWIDTH 616 0
DWIDTH 6 0
BBX 5 10 1 -2
BITMAP
88
90
A0
C0
C0
A0
90
88
00
60
ENDCHAR
STARTCHAR uni1E35
ENCODING 7733
SWIDTH 487 0
DWIDTH 5 0
BBX 4 10 1 -2
BITMAP
80
80
A0
C0
80
C0
A0
90
00
E0
ENDCHAR
STARTCHAR uni1E36
ENCODING 7734
SWIDTH 562 0
DWIDTH 6 0
BBX 4 10 1 -2
BITMAP
80
80
80
80
80
80
80
F0
00
20
ENDCHAR
STARTCHAR uni1E37
ENCODING 7735
SWIDTH 215 0
DWIDTH 2 0
BBX 1 10 1 -2
BITMAP
80
80
80
80
80
80
80
80
00
80
ENDCHAR
STARTCHAR uni1E38
ENCODING 7736
SWIDTH 562 0
DWIDTH 6 0
BBX 5 12 0 -2
BITMAP
C0
00
40
40
40
40
40
40
40
78
00
10
ENDCHAR
STARTCHAR uni1E39
ENCODING 7737
SWIDTH 215 0
DWIDTH 2 0
BBX 2 12 0 -2
BITMAP
C0
00
40
40
40
40
40
40
40
40
00
40
ENDCHAR
STARTCHAR uni1E3A
ENCODING 7738
SWIDTH 562 0
DWIDTH 6 0
BBX 4 10 1 -2
BITMAP
80
80
80
80
80
80
80
F0
00
60
ENDCHAR
STARTCHAR uni1E3B
ENCODING 7739
SWIDTH 215 0
DWIDTH 2 0
BBX 2 10 0 -2
BITMAP
40
40
40
40
40
40
40
40
00
C0
ENDCHAR
STARTCHAR uni1E3C
ENCODING 7740
SWIDTH 562 0
DWIDTH 6 0
BBX 4 10 1 -2
BITMAP
80
80
80
80
80
80
80
F0
00
60
ENDCHAR
STARTCHAR uni1E3D
ENCODING 7741
SWIDTH 215 0
DWIDTH 2 0
BBX 2 10 0 -2
BITMAP
40
40
40
40
40
40
40
40
00
C0
ENDCHAR
STARTCHAR uni1E3E
ENCODING 7742
SWIDTH 863 0
DWIDTH 9 0
BBX 7 10 1 0
BITMAP
10
00
82
82
86
C6
CA
AA
B2
92
ENDCHAR
STARTCHAR uni1E3F
ENCODING 7743
SWIDTH 835 0
DWIDTH 8 0
BBX 6 9 1 0
BITMAP
08
10
00
FC
94
94
94
94
94
ENDCHAR
STARTCHAR uni1E40
ENCODING 7744
SWIDTH 863 0
DWIDTH 9 0
BBX 7 10 1 0
BITMAP
10
00
82
82
86
C6
CA
AA
B2
92
ENDCHAR
STARTCHAR uni1E41
ENCODING 7745
SWIDTH 835 0
DWIDTH 8 0
BBX 6 6 1 0
BITMAP
FC
94
94
94
94
94
ENDCHAR
STARTCHAR uni1E42
ENCODING 7746
SWIDTH 863 0
DWIDTH 9 0
BBX 7 10 1 -2
BITMAP
82
82
86
C6
CA
AA
B2
92
00
10
ENDCHAR
STARTCHAR uni1E43
ENCODING 7747
SWIDTH 835 0
DWIDTH 8 0
BBX 6 8 1 -2
BITMAP
FC
94
94
94
94
94
00
10
ENDCHAR
STARTCHAR uni1E44
ENCODING 7748
SWIDTH 772 0
DWIDTH 8 0
BBX 6 10 1 0
BITMAP
20
00
84
84
C4
A4
94
94
8C
84
ENDCHAR
STARTCHAR uni1E45
ENCODING 7749
SWIDTH 568 0
DWIDTH 6 0
BBX 4 6 1 0
BITMAP
E0
90
90
90
90
90
ENDCHAR
STARTCHAR uni1E46
ENCODING 7750
SWIDTH 772 0
DWIDTH 8 0
BBX 6 10 1 -2
BITMAP
84
84
C4
A4
94
94
8C
84
00
20
ENDCHAR
STARTCHAR uni1E47
ENCODING 7751
SWIDTH 568 0
DWIDTH 6 0
BBX 4 8 1 -2
BITMAP
E0
90
90
90
90
90
00
40
ENDCHAR
STARTCHAR uni1E48
ENCODING 7752
SWIDTH 772 0
DWIDTH 8 0
BBX 6 10 1 -2
BITMAP
84
84
C4
A4
94
94
8C
84
00
30
ENDCHAR
STARTCHAR uni1E49
ENCODING 7753
SWIDTH 568 0
DWIDTH 6 0
BBX 4 8 1 -2
BITMAP
E0
90
90
90
90
90
00
60
ENDCHAR
STARTCHAR uni1E4A
ENCODING 7754
SWIDTH 772 0
DWIDTH 8 0
BBX 6 10 1 -2
BITMAP
84
84
C4
A4
94
94
8C
84
00
30
ENDCHAR
STARTCHAR uni1E4B
ENCODING 7755
SWIDTH 568 0
DWIDTH 6 0
BBX 4 8 1 -2
BITMAP
E0
90
90
90
90
90
00
E0
ENDCHAR
STARTCHAR uni1E4C
ENCODING 7756
SWIDTH 747 0
DWIDTH 7 0
BBX 6 10 1 0
BITMAP
38
50
68
84
84
84
84
84
84
78
ENDCHAR
STARTCHAR uni1E4D
ENCODING 7757
SWIDTH 579 0
DWIDTH 6 0
BBX 4 10 1 0
BITMAP
20
00
F0
00
E0
90
90
90
90
F0
ENDCHAR
STARTCHAR uni1E4E
ENCODING 7758
SWIDTH 747 0
DWIDTH 7 0
BBX 6 11 1 0
BITMAP
50
70
00
78
84
84
84
84
84
84
78
ENDCHAR
STARTCHAR uni1E4F
ENCODING 7759
SWIDTH 579 0
DWIDTH 6 0
BBX 4 9 1 0
BITMAP
A0
E0
00
E0
90
90
90
90
F0
ENDCHAR
STARTCHAR uni1E50
ENCODING 7760
SWIDTH 747 0
DWIDTH 7 0
BBX 6 10 1 0
BITMAP
20
30
48
84
84
84
84
84
84
78
ENDCHAR
STARTCHAR uni1E51
ENCODING 7761
SWIDTH 579 0
DWIDTH 6 0
BBX 4 9 1 0
BITMAP
40
60
00
E0
90
90
90
90
F0
ENDCHAR
STARTCHAR uni1E52
ENCODING 7762
SWIDTH 747 0
DWIDTH 7 0
BBX 6 10 1 0
BITMAP
10
30
48
84
84
84
84
84
84
78
ENDCHAR
STARTCHAR uni1E53
ENCODING 7763
SWIDTH 579 0
DWIDTH 6 0
BBX 4 10 1 0
BITMAP
20
40
60
00
E0
90
90
90
90
F0
ENDCHAR
STARTCHAR uni1E54
ENCODING 7764
SWIDTH 606 0
DWIDTH 6 0
BBX 4 10 1 0
BITMAP
20
00
F0
90
90
90
E0
80
80
80
ENDCHAR
STARTCHAR uni1E55
ENCODING 7765
SWIDTH 580 0
DWIDTH 6 0
BBX 4 11 1 -2
BITMAP
10
20
00
F0
90
90
90
90
F0
80
80
ENDCHAR
STARTCHAR uni1E56
ENCODING 7766
SWIDTH 606 0
DWIDTH 6 0
BBX 4 10 1 0
BITMAP
20
00
F0
90
90
90
E0
80
80
80
ENDCHAR
STARTCHAR uni1E57
ENCODING 7767
SWIDTH 580 0
DWIDTH 6 0
BBX 4 8 1 -2
BITMAP
F0
90
90
90
90
F0
80
80
ENDCHAR
STARTCHAR uni1E58
ENCODING 7768
SWIDTH 615 0
DWIDTH 6 0
BBX 5 10 1 0
BITMAP
20
00
F0
88
88
90
E0
90
90
88
ENDCHAR
STARTCHAR uni1E59
ENCODING 7769
SWIDTH 325 0
DWIDTH 3 0
BBX 2 6 1 0
BITMAP
C0
80
80
80
80
80
ENDCHAR
STARTCHAR uni1E5A
ENCODING 7770
SWIDTH 615 0
DWIDTH 6 0
BBX 5 10 1 -2
BITMAP
F0
88
88
90
E0
90
90
88
00
20
ENDCHAR
STARTCHAR uni1E5B
ENCODING 7771
SWIDTH 325 0
DWIDTH 3 0
BBX 2 8 1 -2
BITMAP
C0
80
80
80
80
80
00
80
ENDCHAR
STARTCHAR uni1E5C
ENCODING 7772
SWIDTH 615 0
DWIDTH 6 0
BBX 5 12 1 -2
BITMAP
60
00
F0
88
88
90
E0
90
90
88
00
20
ENDCHAR
STARTCHAR uni1E5D
ENCODING 7773
SWIDTH 325 0
DWIDTH 3 0
BBX 2 10 1 -2
BITMAP
C0
00
C0
80
80
80
80
80
00
80
ENDCHAR
STARTCHAR uni1E5E
ENCODING 7774
SWIDTH 615 0
DWIDTH 6 0
BBX 5 10 1 -2
BITMAP
F0
88
88
90
E0
90
90
88
00
60
ENDCHAR
STARTCHAR uni1E5F
ENCODING 7775
SWIDTH 325 0
DWIDTH 3 0
BBX 3 8 0 -2
BITMAP
60
40
40
40
40
40
00
C0
ENDCHAR
STARTCHAR uni1E60
ENCODING 7776
SWIDTH 612 0
DWIDTH 6 0
BBX 4 10 1 0
BITMAP
20
00
F0
90
80
40
30
10
90
F0
ENDCHAR
STARTCHAR uni1E61
ENCODING 7777
SWIDTH 492 0
DWIDTH 5 0
BBX 3 8 1 0
BITMAP
40
00
E0
80
C0
20
20
E0
ENDCHAR
STARTCHAR uni1E62
ENCODING 7778
SWIDTH 612 0
DWIDTH 6 0
BBX 4 10 1 -2
BITMAP
F0
90
80
40
30
10
90
F0
00
20
ENDCHAR
STARTCHAR uni1E63
ENCODING 7779
SWIDTH 492 0
DWIDTH 5 0
BBX 3 8 1 -2
BITMAP
E0
80
C0
20
20
E0
00
40
ENDCHAR
STARTCHAR uni1E64
ENCODING 7780
SWIDTH 612 0
DWIDTH 6 0
BBX 4 11 1 0
BITMAP
40
20
00
F0
90
80
40
30
10
90
F0
ENDCHAR
STARTCHAR uni1E65
ENCODING 7781
SWIDTH 492 0
DWIDTH 5 0
BBX 3 10 1 0
BITMAP
40
20
40
00
E0
80
C0
20
20
E0
ENDCHAR
STARTCHAR uni1E66
ENCODING 7782
SWIDTH 612 0
DWIDTH 6 0
BBX 4 10 1 0
BITMAP
20
60
D0
90
80
40
30
10
90
F0
ENDCHAR
STARTCHAR uni1E67
ENCODING 7783
SWIDTH 492 0
DWIDTH 5 0
BBX 3 10 1 0
BITMAP
40
A0
40
00
E0
80
C0
20
20
E0
ENDCHAR
STARTCHAR uni1E68
ENCODING 7784
SWIDTH 612 0
DWIDTH 6 0
BBX 4 12 1 -2
BITMAP
20
00
F0
90
80
40
30
10
90
F0
00
20
ENDCHAR
STARTCHAR uni1E69
ENCODING 7785
SWIDTH 492 0
DWIDTH 5 0
BBX 3 10 1 -2
BITMAP
40
00
E0
80
C0
20
20
E0
00
40
ENDCHAR
STARTCHAR uni1E6A
ENCODING 7786
SWIDTH 613 0
DWIDTH 6 0
BBX 5 10 1 0
BITMAP
20
00
F8
20
20
20
20
20
20
20
ENDCHAR
STARTCHAR uni1E6B
ENCODING 7787
SWIDTH 348 0
DWIDTH 3 0
BBX 2 9 1 0
BITMAP
80
80
80
C0
80
80
80
80
C0
ENDCHAR
STARTCHAR uni1E6C
ENCODING 7788
SWIDTH 613 0
DWIDTH 6 0
BBX 5 10 1 -2
BITMAP
F8
20
20
20
20
20
20
20
00
20
ENDCHAR
STARTCHAR uni1E6D
ENCODING 7789
SWIDTH 348 0
DWIDTH 3 0
BBX 2 10 1 -2
BITMAP
80
80
C0
80
80
80
80
C0
00
40
ENDCHAR
STARTCHAR uni1E6E
ENCODING 7790
SWIDTH 613 0
DWIDTH 6 0
BBX 5 10 1 -2
BITMAP
F8
20
20
20
20
20
20
20
00
60
ENDCHAR
STARTCHAR uni1E6F
ENCODING 7791
SWIDTH 348 0
DWIDTH 3 0
BBX 2 10 1 -2
BITMAP
80
80
C0
80
80
80
80
C0
00
C0
ENDCHAR
STARTCHAR uni1E70
ENCODING 7792
SWIDTH 613 0
DWIDTH 6 0
BBX 5 10 1 -2
BITMAP
F8
20
20
20
20
20
20
20
00
60
ENDCHAR
STARTCHAR uni1E71
ENCODING 7793
SWIDTH 348 0
DWIDTH 3 0
BBX 2 10 1 -2
BITMAP
80
80
C0
80
80
80
80
C0
00
C0
ENDCHAR
STARTCHAR uni1E72
ENCODING 7794
SWIDTH 750 0
DWIDTH 8 0
BBX 5 10 1 -2
BITMAP
88
88
88
88
88
88
88
78
00
30
ENDCHAR
STARTCHAR uni1E73
ENCODING 7795
SWIDTH 568 0
DWIDTH 6 0
BBX 4 8 1 -2
BITMAP
90
90
90
90
90
F0
00
60
ENDCHAR
STARTCHAR uni1E74
ENCODING 7796
SWIDTH 750 0
DWIDTH 8 0
BBX 5 10 1 -2
BITMAP
88
88
88
88
88
88
88
58
28
50
ENDCHAR
STARTCHAR uni1E75
ENCODING 7797
SWIDTH 568 0
DWIDTH 6 0
BBX 4 8 1 -2
BITMAP
90
90
90
90
90
B0
50
A0
ENDCHAR
STARTCHAR uni1E76
ENCODING 7798
SWIDTH 750 0
DWIDTH 8 0
BBX 5 10 1 -2
BITMAP
88
88
88
88
88
88
88
78
00
70
ENDCHAR
STARTCHAR uni1E77
ENCODING 7799
SWIDTH 568 0
DWIDTH 6 0
BBX 4 8 1 -2
BITMAP
90
90
90
90
90
F0
00
E0
ENDCHAR
STARTCHAR uni1E78
ENCODING 7800
SWIDTH 750 0
DWIDTH 8 0
BBX 5 10 1 0
BITMAP
38
50
88
88
88
88
88
88
88
78
ENDCHAR
STARTCHAR uni1E79
ENCODING 7801
SWIDTH 568 0
DWIDTH 6 0
BBX 4 10 1 0
BITMAP
20
00
E0
00
90
90
90
90
90
F0
ENDCHAR
STARTCHAR uni1E7A
ENCODING 7802
SWIDTH 750 0
DWIDTH 8 0
BBX 5 10 1 0
BITMAP
30
00
88
88
88
88
88
88
88
78
ENDCHAR
STARTCHAR uni1E7B
ENCODING 7803
SWIDTH 568 0
DWIDTH 6 0
BBX 4 9 1 0
BITMAP
60
60
00
90
90
90
90
90
F0
ENDCHAR
STARTCHAR uni1E7C
ENCODING 7804
SWIDTH 616 0
DWIDTH 6 0
BBX 6 10 0 0
BITMAP
78
00
84
84
48
48
48
30
30
20
ENDCHAR
STARTCHAR uni1E7D
ENCODING 7805
SWIDTH 522 0
DWIDTH 5 0
BBX 4 8 1 0
BITMAP
E0
00
90
90
A0
A0
40
40
ENDCHAR
STARTCHAR uni1E7E
ENCODING 7806
SWIDTH 616 0
DWIDTH 6 0
BBX 6 10 0 -2
BITMAP
84
84
48
48
48
30
30
20
00
10
ENDCHAR
STARTCHAR uni1E7F
ENCODING 7807
SWIDTH 522 0
DWIDTH 5 0
BBX 4 8 1 -2
BITMAP
90
90
A0
A0
40
40
00
40
ENDCHAR
STARTCHAR uni1E80
ENCODING 7808
SWIDTH 892 0
DWIDTH 9 0
BBX 9 10 0 0
BITMAP
1000
0800
8880
8880
5500
5500
5500
5500
2200
2200
ENDCHAR
STARTCHAR uni1E81
ENCODING 7809
SWIDTH 789 0
DWIDTH 8 0
BBX 6 9 1 0
BITMAP
40
20
00
A4
A4
B4
D4
C8
48
ENDCHAR
STARTCHAR uni1E82
ENCODING 7810
SWIDTH 892 0
DWIDTH 9 0
BBX 9 10 0 0
BITMAP
0400
0800
8880
8880
5500
5500
5500
5500
2200
2200
ENDCHAR
STARTCHAR uni1E83
ENCODING 7811
SWIDTH 789 0
DWIDTH 8 0
BBX 6 9 1 0
BITMAP
10
10
00
A4
A4
B4
D4
C8
48
ENDCHAR
STARTCHAR uni1E84
ENCODING 7812
SWIDTH 892 0
DWIDTH 9 0
BBX 9 10 0 0
BITMAP
1400
0000
8880
8880
5500
5500
5500
5500
2200
2200
ENDCHAR
STARTCHAR uni1E85
ENCODING 7813
SWIDTH 789 0
DWIDTH 8 0
BBX 6 8 1 0
BITMAP
30
00
A4
A4
B4
D4
C8
48
ENDCHAR
STARTCHAR uni1E86
ENCODING 7814
SWIDTH 892 0
DWIDTH 9 0
BBX 9 10 0 0
BITMAP
0800
0000
8880
8880
5500
5500
5500
5500
2200
2200
ENDCHAR
STARTCHAR uni1E87
ENCODING 7815
SWIDTH 789 0
DWIDTH 8 0
BBX 6 6 1 0
BITMAP
A4
A4
B4
D4
C8
48
ENDCHAR
STARTCHAR uni1E88
ENCODING 7816
SWIDTH 892 0
DWIDTH 9 0
BBX 9 10 0 -2
BITMAP
8880
8880
5500
5500
5500
5500
2200
2200
0000
0800
ENDCHAR
STARTCHAR uni1E89
ENCODING 7817
SWIDTH 789 0
DWIDTH 8 0
BBX 6 8 1 -2
BITMAP
A4
A4
B4
D4
C8
48
00
20
ENDCHAR
STARTCHAR uni1E8A
ENCODING 7818
SWIDTH 585 0
DWIDTH 6 0
BBX 6 10 0 0
BITMAP
20
00
84
48
50
20
20
30
48
84
ENDCHAR
STARTCHAR uni1E8B
ENCODING 7819
SWIDTH 500 0
DWIDTH 5 0
BBX 3 8 1 0
BITMAP
40
00
A0
A0
40
40
A0
A0
ENDCHAR
STARTCHAR uni1E8C
ENCODING 7820
SWIDTH 585 0
DWIDTH 6 0
BBX 6 10 0 0
BITMAP
30
00
84
48
50
20
20
30
48
84
ENDCHAR
STARTCHAR uni1E8D
ENCODING 7821
SWIDTH 500 0
DWIDTH 5 0
BBX 3 6 1 0
BITMAP
A0
A0
40
40
A0
A0
ENDCHAR
STARTCHAR uni1E8E
ENCODING 7822
SWIDTH 613 0
DWIDTH 6 0
BBX 6 10 0 0
BITMAP
10
00
84
48
28
30
10
10
10
10
ENDCHAR
STARTCHAR uni1E8F
ENCODING 7823
SWIDTH 522 0
DWIDTH 5 0
BBX 4 10 1 -2
BITMAP
40
00
90
90
A0
A0
40
40
40
80
ENDCHAR
STARTCHAR uni1E90
ENCODING 7824
SWIDTH 605 0
DWIDTH 6 0
BBX 4 10 1 0
BITMAP
60
90
70
10
20
20
40
40
80
F0
ENDCHAR
STARTCHAR uni1E91
ENCODING 7825
SWIDTH 508 0
DWIDTH 5 0
BBX 3 8 1 0
BITMAP
40
A0
60
20
40
40
80
E0
ENDCHAR
STARTCHAR uni1E92
ENCODING 7826
SWIDTH 605 0
DWIDTH 6 0
BBX 4 10 1 -2
BITMAP
F0
10
20
20
40
40
80
F0
00
20
ENDCHAR
STARTCHAR uni1E93
ENCODING 7827
SWIDTH 508 0
DWIDTH 5 0
BBX 3 8 1 -2
BITMAP
E0
20
40
40
80
E0
00
40
ENDCHAR
STARTCHAR uni1E94
ENCODING 7828
SWIDTH 605 0
DWIDTH 6 0
BBX 4 10 1 -2
BITMAP
F0
10
20
20
40
40
80
F0
00
60
ENDCHAR
STARTCHAR uni1E95
ENCODING 7829
SWIDTH 508 0
DWIDTH 5 0
BBX 3 8 1 -2
BITMAP
E0
20
40
40
80
E0
00
E0
ENDCHAR
STARTCHAR uni1E96
ENCODING 7830
SWIDTH 568 0
DWIDTH 6 0
BBX 4 10 1 -2
BITMAP
80
80
E0
90
90
90
90
90
00
60
ENDCHAR
STARTCHAR uni1E97
ENCODING 7831
SWIDTH 348 0
DWIDTH 3 0
BBX 2 9 1 0
BITMAP
80
80
80
C0
80
80
80
80
C0
ENDCHAR
STARTCHAR uni1E98
ENCODING 7832
SWIDTH 789 0
DWIDTH 8 0
BBX 6 9 1 0
BITMAP
20
30
20
A4
A4
B4
D4
C8
48
ENDCHAR
STARTCHAR uni1E99
ENCODING 7833
SWIDTH 522 0
DWIDTH 5 0
BBX 4 11 1 -2
BITMAP
40
A0
40
90
90
A0
A0
40
40
40
80
ENDCHAR
STARTCHAR uni1E9A
ENCODING 7834
SWIDTH 541 0
DWIDTH 5 0
BBX 3 9 1 0
BITMAP
40
20
40
A0
20
60
A0
A0
E0
ENDCHAR
STARTCHAR uni1E9B
ENCODING 7835
SWIDTH 330 0
DWIDTH 3 0
BBX 2 10 1 0
BITMAP
80
00
C0
80
80
80
80
80
80
80
ENDCHAR
STARTCHAR uni1E9C
ENCODING 7836
SWIDTH 328 0
DWIDTH 3 0
BBX 2 8 1 0
BITMAP
C0
80
C0
80
80
80
80
80
ENDCHAR
STARTCHAR uni1E9D
ENCODING 7837
SWIDTH 284 0
DWIDTH 3 0
BBX 3 8 0 0
BITMAP
60
C0
40
40
40
40
40
40
ENDCHAR
STARTCHAR uni1E9E
ENCODING 7838
SWIDTH 610 0
DWIDTH 6 0
BBX 4 8 1 0
BITMAP
F0
90
A0
A0
90
90
90
F0
ENDCHAR
STARTCHAR uni1E9F
ENCODING 7839
SWIDTH 425 0
DWIDTH 4 0
BBX 5 8 -1 0
BITMAP
70
40
60
50
88
88
88
70
ENDCHAR
STARTCHAR uni1EA0
ENCODING 7840
SWIDTH 616 0
DWIDTH 6 0
BBX 6 10 0 -2
BITMAP
20
30
30
48
48
78
84
84
00
10
ENDCHAR
STARTCHAR uni1EA1
ENCODING 7841
SWIDTH 541 0
DWIDTH 5 0
BBX 3 8 1 -2
BITMAP
E0
20
60
A0
A0
E0
00
40
ENDCHAR
STARTCHAR uni1EA2
ENCODING 7842
SWIDTH 616 0
DWIDTH 6 0
BBX 6 11 0 0
BITMAP
10
10
00
20
30
30
48
48
78
84
84
ENDCHAR
STARTCHAR uni1EA3
ENCODING 7843
SWIDTH 541 0
DWIDTH 5 0
BBX 3 9 1 0
BITMAP
60
40
00
E0
20
60
A0
A0
E0
ENDCHAR
STARTCHAR uni1EA4
ENCODING 7844
SWIDTH 616 0
DWIDTH 6 0
BBX 6 11 0 0
BITMAP
0C
30
00
20
30
30
48
48
78
84
84
ENDCHAR
STARTCHAR uni1EA5
ENCODING 7845
SWIDTH 541 0
DWIDTH 5 0
BBX 4 9 1 0
BITMAP
50
A0
00
E0
10
70
90
90
E0
ENDCHAR
STARTCHAR uni1EA6
ENCODING 7846
SWIDTH 616 0
DWIDTH 6 0
BBX 6 12 0 0
BITMAP
80
40
30
00
20
30
30
48
48
78
84
84
ENDCHAR
STARTCHAR uni1EA7
ENCODING 7847
SWIDTH 541 0
DWIDTH 5 0
BBX 4 10 0 0
BITMAP
80
60
50
00
70
10
30
50
90
70
ENDCHAR
STARTCHAR uni1EA8
ENCODING 7848
SWIDTH 616 0
DWIDTH 6 0
BBX 6 12 0 0
BITMAP
08
04
38
00
20
30
30
48
48
78
84
84
ENDCHAR
STARTCHAR uni1EA9
ENCODING 7849
SWIDTH 541 0
DWIDTH 5 0
BBX 4 10 1 0
BITMAP
10
10
70
80
E0
10
70
90
90
E0
ENDCHAR
STARTCHAR uni1EAA
ENCODING 7850
SWIDTH 616 0
DWIDTH 6 0
BBX 6 12 0 0
BITMAP
28
50
30
48
20
30
30
48
48
78
84
84
ENDCHAR
STARTCHAR uni1EAB
ENCODING 7851
SWIDTH 541 0
DWIDTH 5 0
BBX 3 10 1 0
BITMAP
60
A0
40
A0
E0
20
60
A0
A0
E0
ENDCHAR
STARTCHAR uni1EAC
ENCODING 7852
SWIDTH 616 0
DWIDTH 6 0
BBX 6 12 0 -2
BITMAP
30
48
20
30
30
48
48
78
84
84
00
10
ENDCHAR
STARTCHAR uni1EAD
ENCODING 7853
SWIDTH 541 0
DWIDTH 5 0
BBX 3 10 1 -2
BITMAP
40
A0
E0
20
60
A0
A0
E0
00
40
ENDCHAR
STARTCHAR uni1EAE
ENCODING 7854
SWIDTH 616 0
DWIDTH 6 0
BBX 6 11 0 0
BITMAP
10
30
10
20
30
30
48
48
78
84
84
ENDCHAR
STARTCHAR uni1EAF
ENCODING 7855
SWIDTH 541 0
DWIDTH 5 0
BBX 3 9 1 0
BITMAP
40
40
00
E0
20
60
A0
A0
E0
ENDCHAR
STARTCHAR uni1EB0
ENCODING 7856
SWIDTH 616 0
DWIDTH 6 0
BBX 6 11 0 0
BITMAP
20
30
10
20
30
30
48
48
78
84
84
ENDCHAR
STARTCHAR uni1EB1
ENCODING 7857
SWIDTH 541 0
DWIDTH 5 0
BBX 3 9 1 0
BITMAP
40
40
00
E0
20
60
A0
A0
E0
ENDCHAR
STARTCHAR uni1EB2
ENCODING 7858
SWIDTH 616 0
DWIDTH 6 0
BBX 6 12 0 0
BITMAP
10
20
30
00
20
30
30
48
48
78
84
84
ENDCHAR
STARTCHAR uni1EB3
ENCODING 7859
SWIDTH 541 0
DWIDTH 5 0
BBX 3 10 1 0
BITMAP
40
40
40
00
E0
20
60
A0
A0
E0
ENDCHAR
STARTCHAR uni1EB4
ENCODING 7860
SWIDTH 616 0
DWIDTH 6 0
BBX 6 12 0 0
BITMAP
28
30
30
00
20
30
30
48
48
78
84
84
ENDCHAR
STARTCHAR uni1EB5
ENCODING 7861
SWIDTH 541 0
DWIDTH 5 0
BBX 3 10 1 0
BITMAP
60
A0
40
00
E0
20
60
A0
A0
E0
ENDCHAR
STARTCHAR uni1EB6
ENCODING 7862
SWIDTH 616 0
DWIDTH 6 0
BBX 6 12 0 -2
BITMAP
30
00
20
30
30
48
48
78
84
84
00
10
ENDCHAR
STARTCHAR uni1EB7
ENCODING 7863
SWIDTH 541 0
DWIDTH 5 0
BBX 3 10 1 -2
BITMAP
60
00
E0
20
60
A0
A0
E0
00
40
ENDCHAR
STARTCHAR uni1EB8
ENCODING 7864
SWIDTH 583 0
DWIDTH 6 0
BBX 4 10 1 -2
BITMAP
F0
80
80
80
F0
80
80
F0
00
40
ENDCHAR
STARTCHAR uni1EB9
ENCODING 7865
SWIDTH 576 0
DWIDTH 6 0
BBX 4 8 1 -2
BITMAP
F0
90
F0
80
80
F0
00
40
ENDCHAR
STARTCHAR uni1EBA
ENCODING 7866
SWIDTH 583 0
DWIDTH 6 0
BBX 4 11 1 0
BITMAP
20
20
00
F0
80
80
80
F0
80
80
F0
ENDCHAR
STARTCHAR uni1EBB
ENCODING 7867
SWIDTH 576 0
DWIDTH 6 0
BBX 4 9 1 0
BITMAP
20
40
00
F0
90
F0
80
80
F0
ENDCHAR
STARTCHAR uni1EBC
ENCODING 7868
SWIDTH 583 0
DWIDTH 6 0
BBX 4 10 1 0
BITMAP
F0
00
F0
80
80
80
F0
80
80
F0
ENDCHAR
STARTCHAR uni1EBD
ENCODING 7869
SWIDTH 576 0
DWIDTH 6 0
BBX 4 8 1 0
BITMAP
F0
00
F0
90
F0
80
80
F0
ENDCHAR
STARTCHAR uni1EBE
ENCODING 7870
SWIDTH 583 0
DWIDTH 6 0
BBX 5 11 1 0
BITMAP
18
60
10
F0
80
80
80
F0
80
80
F0
ENDCHAR
STARTCHAR uni1EBF
ENCODING 7871
SWIDTH 576 0
DWIDTH 6 0
BBX 4 9 1 0
BITMAP
10
60
00
F0
90
F0
80
80
F0
ENDCHAR
STARTCHAR uni1EC0
ENCODING 7872
SWIDTH 583 0
DWIDTH 6 0
BBX 4 12 1 0
BITMAP
80
80
60
00
F0
80
80
80
F0
80
80
F0
ENDCHAR
STARTCHAR uni1EC1
ENCODING 7873
SWIDTH 576 0
DWIDTH 6 0
BBX 4 10 1 0
BITMAP
80
80
60
00
F0
90
F0
80
80
F0
ENDCHAR
STARTCHAR uni1EC2
ENCODING 7874
SWIDTH 583 0
DWIDTH 6 0
BBX 5 12 1 0
BITMAP
10
08
70
00
F0
80
80
80
F0
80
80
F0
ENDCHAR
STARTCHAR uni1EC3
ENCODING 7875
SWIDTH 576 0
DWIDTH 6 0
BBX 4 10 1 0
BITMAP
10
10
70
00
F0
90
F0
80
80
F0
ENDCHAR
STARTCHAR uni1EC4
ENCODING 7876
SWIDTH 583 0
DWIDTH 6 0
BBX 4 12 1 0
BITMAP
50
A0
60
90
E0
80
80
80
F0
80
80
F0
ENDCHAR
STARTCHAR uni1EC5
ENCODING 7877
SWIDTH 576 0
DWIDTH 6 0
BBX 4 10 1 0
BITMAP
50
A0
40
A0
D0
90
F0
80
80
F0
ENDCHAR
STARTCHAR uni1EC6
ENCODING 7878
SWIDTH 583 0
DWIDTH 6 0
BBX 4 12 1 -2
BITMAP
60
90
E0
80
80
80
F0
80
80
F0
00
40
ENDCHAR
STARTCHAR uni1EC7
ENCODING 7879
SWIDTH 576 0
DWIDTH 6 0
BBX 4 10 1 -2
BITMAP
60
90
F0
90
F0
80
80
F0
00
40
ENDCHAR
STARTCHAR uni1EC8
ENCODING 7880
SWIDTH 250 0
DWIDTH 3 0
BBX 1 11 1 0
BITMAP
80
80
00
80
80
80
80
80
80
80
80
ENDCHAR
STARTCHAR uni1EC9
ENCODING 7881
SWIDTH 221 0
DWIDTH 2 0
BBX 1 9 1 0
BITMAP
80
80
00
80
80
80
80
80
80
ENDCHAR
STARTCHAR uni1ECA
ENCODING 7882
SWIDTH 250 0
DWIDTH 3 0
BBX 1 10 1 -2
BITMAP
80
80
80
80
80
80
80
80
00
80
ENDCHAR
STARTCHAR uni1ECB
ENCODING 7883
SWIDTH 221 0
DWIDTH 2 0
BBX 1 8 1 -2
BITMAP
80
80
80
80
80
80
00
80
ENDCHAR
STARTCHAR uni1ECC
ENCODING 7884
SWIDTH 747 0
DWIDTH 7 0
BBX 6 10 1 -2
BITMAP
78
84
84
84
84
84
84
78
00
20
ENDCHAR
STARTCHAR uni1ECD
ENCODING 7885
SWIDTH 579 0
DWIDTH 6 0
BBX 4 8 1 -2
BITMAP
E0
90
90
90
90
F0
00
40
ENDCHAR
STARTCHAR uni1ECE
ENCODING 7886
SWIDTH 747 0
DWIDTH 7 0
BBX 6 11 1 0
BITMAP
30
20
00
78
84
84
84
84
84
84
78
ENDCHAR
STARTCHAR uni1ECF
ENCODING 7887
SWIDTH 579 0
DWIDTH 6 0
BBX 4 9 1 0
BITMAP
20
40
00
E0
90
90
90
90
F0
ENDCHAR
STARTCHAR uni1ED0
ENCODING 7888
SWIDTH 747 0
DWIDTH 7 0
BBX 6 11 1 0
BITMAP
08
70
00
78
84
84
84
84
84
84
78
ENDCHAR
STARTCHAR uni1ED1
ENCODING 7889
SWIDTH 579 0
DWIDTH 6 0
BBX 4 9 1 0
BITMAP
10
60
00
E0
90
90
90
90
F0
ENDCHAR
STARTCHAR uni1ED2
ENCODING 7890
SWIDTH 747 0
DWIDTH 7 0
BBX 6 12 1 0
BITMAP
80
60
50
00
78
84
84
84
84
84
84
78
ENDCHAR
STARTCHAR uni1ED3
ENCODING 7891
SWIDTH 579 0
DWIDTH 6 0
BBX 4 10 1 0
BITMAP
80
80
60
00
E0
90
90
90
90
F0
ENDCHAR
STARTCHAR uni1ED4
ENCODING 7892
SWIDTH 747 0
DWIDTH 7 0
BBX 6 12 1 0
BITMAP
08
04
38
40
78
84
84
84
84
84
84
78
ENDCHAR
STARTCHAR uni1ED5
ENCODING 7893
SWIDTH 579 0
DWIDTH 6 0
BBX 4 10 1 0
BITMAP
10
10
70
00
E0
90
90
90
90
F0
ENDCHAR
STARTCHAR uni1ED6
ENCODING 7894
SWIDTH 747 0
DWIDTH 7 0
BBX 6 12 1 0
BITMAP
30
70
20
50
68
84
84
84
84
84
84
78
ENDCHAR
STARTCHAR uni1ED7
ENCODING 7895
SWIDTH 579 0
DWIDTH 6 0
BBX 4 10 1 0
BITMAP
50
A0
40
A0
E0
90
90
90
90
F0
ENDCHAR
STARTCHAR uni1ED8
ENCODING 7896
SWIDTH 747 0
DWIDTH 7 0
BBX 6 12 1 -2
BITMAP
20
50
68
84
84
84
84
84
84
78
00
20
ENDCHAR
STARTCHAR uni1ED9
ENCODING 7897
SWIDTH 579 0
DWIDTH 6 0
BBX 4 10 1 -2
BITMAP
60
90
E0
90
90
90
90
F0
00
40
ENDCHAR
STARTCHAR uni1EDA
ENCODING 7898
SWIDTH 735 0
DWIDTH 7 0
BBX 6 10 1 0
BITMAP
10
00
7C
84
84
84
84
84
84
78
ENDCHAR
STARTCHAR uni1EDB
ENCODING 7899
SWIDTH 563 0
DWIDTH 6 0
BBX 4 9 1 0
BITMAP
20
20
10
F0
90
90
90
90
F0
ENDCHAR
STARTCHAR uni1EDC
ENCODING 7900
SWIDTH 735 0
DWIDTH 7 0
BBX 6 10 1 0
BITMAP
20
00
7C
84
84
84
84
84
84
78
ENDCHAR
STARTCHAR uni1EDD
ENCODING 7901
SWIDTH 563 0
DWIDTH 6 0
BBX 4 9 1 0
BITMAP
80
40
10
F0
90
90
90
90
F0
ENDCHAR
STARTCHAR uni1EDE
ENCODING 7902
SWIDTH 735 0
DWIDTH 7 0
BBX 6 11 1 0
BITMAP
30
20
04
7C
84
84
84
84
84
84
78
ENDCHAR
STARTCHAR uni1EDF
ENCODING 7903
SWIDTH 563 0
DWIDTH 6 0
BBX 4 9 1 0
BITMAP
20
40
10
F0
90
90
90
90
F0
ENDCHAR
STARTCHAR uni1EE0
ENCODING 7904
SWIDTH 735 0
DWIDTH 7 0
BBX 6 10 1 0
BITMAP
70
04
7C
84
84
84
84
84
84
78
ENDCHAR
STARTCHAR uni1EE1
ENCODING 7905
SWIDTH 563 0
DWIDTH 6 0
BBX 4 8 1 0
BITMAP
F0
10
F0
90
90
90
90
F0
ENDCHAR
STARTCHAR uni1EE2
ENCODING 7906
SWIDTH 735 0
DWIDTH 7 0
BBX 6 11 1 -2
BITMAP
04
7C
84
84
84
84
84
84
78
00
20
ENDCHAR
STARTCHAR uni1EE3
ENCODING 7907
SWIDTH 563 0
DWIDTH 6 0
BBX 4 9 1 -2
BITMAP
10
F0
90
90
90
90
F0
00
40
ENDCHAR
STARTCHAR uni1EE4
ENCODING 7908
SWIDTH 750 0
DWIDTH 8 0
BBX 5 10 1 -2
BITMAP
88
88
88
88
88
88
88
78
00
20
ENDCHAR
STARTCHAR uni1EE5
ENCODING 7909
SWIDTH 568 0
DWIDTH 6 0
BBX 4 8 1 -2
BITMAP
90
90
90
90
90
F0
00
40
ENDCHAR
STARTCHAR uni1EE6
ENCODING 7910
SWIDTH 750 0
DWIDTH 8 0
BBX 5 11 1 0
BITMAP
30
20
00
88
88
88
88
88
88
88
78
ENDCHAR
STARTCHAR uni1EE7
ENCODING 7911
SWIDTH 568 0
DWIDTH 6 0
BBX 4 9 1 0
BITMAP
20
40
00
90
90
90
90
90
F0
ENDCHAR
STARTCHAR uni1EE8
ENCODING 7912
SWIDTH 815 0
DWIDTH 8 0
BBX 7 10 1 0
BITMAP
10
02
84
84
84
84
84
84
88
78
ENDCHAR
STARTCHAR uni1EE9
ENCODING 7913
SWIDTH 535 0
DWIDTH 5 0
BBX 5 9 1 0
BITMAP
20
20
00
98
90
90
90
90
F0
ENDCHAR
STARTCHAR uni1EEA
ENCODING 7914
SWIDTH 815 0
DWIDTH 8 0
BBX 7 10 1 0
BITMAP
20
02
84
84
84
84
84
84
88
78
ENDCHAR
STARTCHAR uni1EEB
ENCODING 7915
SWIDTH 535 0
DWIDTH 5 0
BBX 5 9 1 0
BITMAP
80
40
00
98
90
90
90
90
F0
ENDCHAR
STARTCHAR uni1EEC
ENCODING 7916
SWIDTH 815 0
DWIDTH 8 0
BBX 7 11 1 0
BITMAP
30
20
02
84
84
84
84
84
84
88
78
ENDCHAR
STARTCHAR uni1EED
ENCODING 7917
SWIDTH 535 0
DWIDTH 5 0
BBX 5 9 1 0
BITMAP
60
40
00
98
90
90
90
90
F0
ENDCHAR
STARTCHAR uni1EEE
ENCODING 7918
SWIDTH 815 0
DWIDTH 8 0
BBX 7 10 1 0
BITMAP
70
02
84
84
84
84
84
84
88
78
ENDCHAR
STARTCHAR uni1EEF
ENCODING 7919
SWIDTH 535 0
DWIDTH 5 0
BBX 5 8 1 0
BITMAP
E0
00
98
90
90
90
90
F0
ENDCHAR
STARTCHAR uni1EF0
ENCODING 7920
SWIDTH 815 0
DWIDTH 8 0
BBX 7 11 1 -2
BITMAP
02
84
84
84
84
84
84
88
78
00
20
ENDCHAR
STARTCHAR uni1EF1
ENCODING 7921
SWIDTH 535 0
DWIDTH 5 0
BBX 5 8 1 -2
BITMAP
98
90
90
90
90
F0
00
40
ENDCHAR
STARTCHAR uni1EF2
ENCODING 7922
SWIDTH 613 0
DWIDTH 6 0
BBX 6 10 0 0
BITMAP
20
00
84
48
28
30
10
10
10
10
ENDCHAR
STARTCHAR uni1EF3
ENCODING 7923
SWIDTH 522 0
DWIDTH 5 0
BBX 4 11 1 -2
BITMAP
80
40
00
90
90
A0
A0
40
40
40
80
ENDCHAR
STARTCHAR uni1EF4
ENCODING 7924
SWIDTH 613 0
DWIDTH 6 0
BBX 6 10 0 -2
BITMAP
84
48
28
30
10
10
10
10
00
10
ENDCHAR
STARTCHAR uni1EF5
ENCODING 7925
SWIDTH 522 0
DWIDTH 5 0
BBX 4 8 1 -2
BITMAP
90
90
A0
A0
40
40
40
A0
ENDCHAR
STARTCHAR uni1EF6
ENCODING 7926
SWIDTH 613 0
DWIDTH 6 0
BBX 6 11 0 0
BITMAP
10
10
00
84
48
28
30
10
10
10
10
ENDCHAR
STARTCHAR uni1EF7
ENCODING 7927
SWIDTH 522 0
DWIDTH 5 0
BBX 4 12 1 -2
BITMAP
40
20
40
00
90
90
A0
A0
40
40
40
80
ENDCHAR
STARTCHAR uni1EF8
ENCODING 7928
SWIDTH 613 0
DWIDTH 6 0
BBX 6 10 0 0
BITMAP
78
00
84
48
28
30
10
10
10
10
ENDCHAR
STARTCHAR uni1EF9
ENCODING 7929
SWIDTH 522 0
DWIDTH 5 0
BBX 4 10 1 -2
BITMAP
E0
00
90
90
A0
A0
40
40
40
80
ENDCHAR
STARTCHAR uni1EFA
ENCODING 7930
SWIDTH 584 0
DWIDTH 6 0
BBX 5 8 1 0
BITMAP
C0
C0
C0
C0
C0
C0
C0
F8
ENDCHAR
STARTCHAR uni1EFB
ENCODING 7931
SWIDTH 354 0
DWIDTH 4 0
BBX 3 8 0 0
BITMAP
40
E0
40
40
40
40
40
40
ENDCHAR
STARTCHAR uni1EFC
ENCODING 7932
SWIDTH 424 0
DWIDTH 4 0
BBX 4 8 0 0
BITMAP
20
40
80
A0
90
90
90
70
ENDCHAR
STARTCHAR uni1EFD
ENCODING 7933
SWIDTH 414 0
DWIDTH 4 0
BBX 4 8 0 0
BITMAP
40
80
80
A0
90
90
90
70
ENDCHAR
STARTCHAR uni1EFE
ENCODING 7934
SWIDTH 690 0
DWIDTH 7 0
BBX 5 8 1 0
BITMAP
88
88
48
50
50
50
A0
E0
ENDCHAR
STARTCHAR uni1EFF
ENCODING 7935
SWIDTH 612 0
DWIDTH 6 0
BBX 4 8 1 -2
BITMAP
90
90
90
50
60
60
A0
C0
ENDCHAR
STARTCHAR uni1F00
ENCODING 7936
SWIDTH 629 0
DWIDTH 6 0
BBX 5 9 1 0
BITMAP
20
20
00
F8
90
88
88
90
F8
ENDCHAR
STARTCHAR uni1F01
ENCODING 7937
SWIDTH 629 0
DWIDTH 6 0
BBX 5 9 1 0
BITMAP
40
20
00
F8
90
88
88
90
F8
ENDCHAR
STARTCHAR uni1F02
ENCODING 7938
SWIDTH 629 0
DWIDTH 6 0
BBX 5 9 1 0
BITMAP
40
60
00
F8
90
88
88
90
F8
ENDCHAR
STARTCHAR uni1F03
ENCODING 7939
SWIDTH 629 0
DWIDTH 6 0
BBX 5 9 1 0
BITMAP
40
60
00
F8
90
88
88
90
F8
ENDCHAR
STARTCHAR uni1F04
ENCODING 7940
SWIDTH 629 0
DWIDTH 6 0
BBX 5 9 1 0
BITMAP
20
60
00
F8
90
88
88
90
F8
ENDCHAR
STARTCHAR uni1F05
ENCODING 7941
SWIDTH 629 0
DWIDTH 6 0
BBX 5 9 1 0
BITMAP
60
40
00
F8
90
88
88
90
F8
ENDCHAR
STARTCHAR uni1F06
ENCODING 7942
SWIDTH 629 0
DWIDTH 6 0
BBX 5 10 1 0
BITMAP
50
A0
40
00
F8
90
88
88
90
F8
ENDCHAR
STARTCHAR uni1F07
ENCODING 7943
SWIDTH 629 0
DWIDTH 6 0
BBX 5 10 1 0
BITMAP
60
A0
40
00
F8
90
88
88
90
F8
ENDCHAR
STARTCHAR uni1F08
ENCODING 7944
SWIDTH 616 0
DWIDTH 6 0
BBX 6 8 0 0
BITMAP
60
70
30
48
48
78
84
84
ENDCHAR
STARTCHAR uni1F09
ENCODING 7945
SWIDTH 616 0
DWIDTH 6 0
BBX 6 8 0 0
BITMAP
60
30
30
48
48
78
84
84
ENDCHAR
STARTCHAR uni1F0A
ENCODING 7946
SWIDTH 616 0
DWIDTH 6 0
BBX 6 8 0 0
BITMAP
E0
B0
30
48
48
78
84
84
ENDCHAR
STARTCHAR uni1F0B
ENCODING 7947
SWIDTH 616 0
DWIDTH 6 0
BBX 6 8 0 0
BITMAP
E0
B0
30
48
48
78
84
84
ENDCHAR
STARTCHAR uni1F0C
ENCODING 7948
SWIDTH 616 0
DWIDTH 6 0
BBX 7 8 -1 0
BITMAP
70
D8
18
24
24
3C
42
42
ENDCHAR
STARTCHAR uni1F0D
ENCODING 7949
SWIDTH 616 0
DWIDTH 6 0
BBX 6 8 0 0
BITMAP
E0
B0
30
48
48
78
84
84
ENDCHAR
STARTCHAR uni1F0E
ENCODING 7950
SWIDTH 616 0
DWIDTH 6 0
BBX 6 9 0 0
BITMAP
A0
60
B0
30
48
48
78
84
84
ENDCHAR
STARTCHAR uni1F0F
ENCODING 7951
SWIDTH 616 0
DWIDTH 6 0
BBX 6 9 0 0
BITMAP
A0
60
70
30
48
48
78
84
84
ENDCHAR
STARTCHAR uni1F10
ENCODING 7952
SWIDTH 529 0
DWIDTH 5 0
BBX 4 9 1 0
BITMAP
40
40
00
E0
80
40
80
90
E0
ENDCHAR
STARTCHAR uni1F11
ENCODING 7953
SWIDTH 529 0
DWIDTH 5 0
BBX 4 9 1 0
BITMAP
40
40
00
E0
80
40
80
90
E0
ENDCHAR
STARTCHAR uni1F12
ENCODING 7954
SWIDTH 529 0
DWIDTH 5 0
BBX 4 9 1 0
BITMAP
40
60
00
E0
80
40
80
90
E0
ENDCHAR
STARTCHAR uni1F13
ENCODING 7955
SWIDTH 529 0
DWIDTH 5 0
BBX 4 9 1 0
BITMAP
80
40
00
E0
80
40
80
90
E0
ENDCHAR
STARTCHAR uni1F14
ENCODING 7956
SWIDTH 529 0
DWIDTH 5 0
BBX 4 9 1 0
BITMAP
50
60
00
E0
80
40
80
90
E0
ENDCHAR
STARTCHAR uni1F15
ENCODING 7957
SWIDTH 529 0
DWIDTH 5 0
BBX 4 9 1 0
BITMAP
A0
A0
00
E0
80
40
80
90
E0
ENDCHAR
STARTCHAR uni1F18
ENCODING 7960
SWIDTH 691 0
DWIDTH 7 0
BBX 5 8 1 0
BITMAP
F8
80
40
40
78
40
40
78
ENDCHAR
STARTCHAR uni1F19
ENCODING 7961
SWIDTH 676 0
DWIDTH 7 0
BBX 5 8 1 0
BITMAP
F8
80
40
40
78
40
40
78
ENDCHAR
STARTCHAR uni1F1A
ENCODING 7962
SWIDTH 890 0
DWIDTH 9 0
BBX 7 8 1 0
BITMAP
DE
A0
10
10
1E
10
10
1E
ENDCHAR
STARTCHAR uni1F1B
ENCODING 7963
SWIDTH 846 0
DWIDTH 8 0
BBX 7 8 1 0
BITMAP
BE
E0
20
20
1C
20
20
3E
ENDCHAR
STARTCHAR uni1F1C
ENCODING 7964
SWIDTH 822 0
DWIDTH 8 0
BBX 8 8 0 0
BITMAP
DE
D0
10
10
0E
10
10
1F
ENDCHAR
STARTCHAR uni1F1D
ENCODING 7965
SWIDTH 842 0
DWIDTH 8 0
BBX 7 8 1 0
BITMAP
FE
A0
20
20
1C
20
20
3E
ENDCHAR
STARTCHAR uni1F20
ENCODING 7968
SWIDTH 568 0
DWIDTH 6 0
BBX 4 11 1 -2
BITMAP
20
40
00
E0
90
90
90
90
90
10
10
ENDCHAR
STARTCHAR uni1F21
ENCODING 7969
SWIDTH 568 0
DWIDTH 6 0
BBX 4 11 1 -2
BITMAP
40
20
00
E0
90
90
90
90
90
10
10
ENDCHAR
STARTCHAR uni1F22
ENCODING 7970
SWIDTH 568 0
DWIDTH 6 0
BBX 4 11 1 -2
BITMAP
40
60
00
E0
90
90
90
90
90
10
10
ENDCHAR
STARTCHAR uni1F23
ENCODING 7971
SWIDTH 568 0
DWIDTH 6 0
BBX 4 11 1 -2
BITMAP
40
60
00
E0
90
90
90
90
90
10
10
ENDCHAR
STARTCHAR uni1F24
ENCODING 7972
SWIDTH 568 0
DWIDTH 6 0
BBX 4 11 1 -2
BITMAP
60
60
00
E0
90
90
90
90
90
10
10
ENDCHAR
STARTCHAR uni1F25
ENCODING 7973
SWIDTH 568 0
DWIDTH 6 0
BBX 4 11 1 -2
BITMAP
A0
40
00
E0
90
90
90
90
90
10
10
ENDCHAR
STARTCHAR uni1F26
ENCODING 7974
SWIDTH 568 0
DWIDTH 6 0
BBX 4 12 1 -2
BITMAP
60
A0
40
00
E0
90
90
90
90
90
10
10
ENDCHAR
STARTCHAR uni1F27
ENCODING 7975
SWIDTH 568 0
DWIDTH 6 0
BBX 4 12 1 -2
BITMAP
60
A0
40
00
E0
90
90
90
90
90
10
10
ENDCHAR
STARTCHAR uni1F28
ENCODING 7976
SWIDTH 879 0
DWIDTH 9 0
BBX 7 8 1 0
BITMAP
C2
C2
42
42
3E
42
42
42
ENDCHAR
STARTCHAR uni1F29
ENCODING 7977
SWIDTH 877 0
DWIDTH 9 0
BBX 7 8 1 0
BITMAP
C2
C2
42
42
3E
42
42
42
ENDCHAR
STARTCHAR uni1F2A
ENCODING 7978
SWIDTH 1092 0
DWIDTH 11 0
BBX 9 8 1 0
BITMAP
5080
B080
1080
1080
0F80
1080
1080
1080
ENDCHAR
STARTCHAR uni1F2B
ENCODING 7979
SWIDTH 1048 0
DWIDTH 10 0
BBX 8 8 1 0
BITMAP
91
91
11
11
1F
11
11
11
ENDCHAR
STARTCHAR uni1F2C
ENCODING 7980
SWIDTH 1024 0
DWIDTH 10 0
BBX 8 8 1 0
BITMAP
D1
91
11
11
1F
11
11
11
ENDCHAR
STARTCHAR uni1F2D
ENCODING 7981
SWIDTH 1044 0
DWIDTH 10 0
BBX 8 8 1 0
BITMAP
D1
91
11
11
1F
11
11
11
ENDCHAR
STARTCHAR uni1F2E
ENCODING 7982
SWIDTH 978 0
DWIDTH 10 0
BBX 8 9 1 0
BITMAP
A0
E1
A1
21
21
1F
21
21
21
ENDCHAR
STARTCHAR uni1F2F
ENCODING 7983
SWIDTH 974 0
DWIDTH 10 0
BBX 8 9 1 0
BITMAP
A0
61
61
21
21
1F
21
21
21
ENDCHAR
STARTCHAR uni1F30
ENCODING 7984
SWIDTH 215 0
DWIDTH 2 0
BBX 1 9 1 0
BITMAP
80
80
00
80
80
80
80
80
80
ENDCHAR
STARTCHAR uni1F31
ENCODING 7985
SWIDTH 215 0
DWIDTH 2 0
BBX 1 9 1 0
BITMAP
80
80
00
80
80
80
80
80
80
ENDCHAR
STARTCHAR uni1F32
ENCODING 7986
SWIDTH 215 0
DWIDTH 2 0
BBX 2 9 0 0
BITMAP
80
C0
00
40
40
40
40
40
40
ENDCHAR
STARTCHAR uni1F33
ENCODING 7987
SWIDTH 215 0
DWIDTH 2 0
BBX 2 9 0 0
BITMAP
80
C0
00
40
40
40
40
40
40
ENDCHAR
STARTCHAR uni1F34
ENCODING 7988
SWIDTH 215 0
DWIDTH 2 0
BBX 3 9 0 0
BITMAP
60
40
80
40
40
40
40
40
40
ENDCHAR
STARTCHAR uni1F35
ENCODING 7989
SWIDTH 215 0
DWIDTH 2 0
BBX 2 9 0 0
BITMAP
C0
C0
00
40
40
40
40
40
40
ENDCHAR
STARTCHAR uni1F36
ENCODING 7990
SWIDTH 215 0
DWIDTH 2 0
BBX 2 10 0 0
BITMAP
C0
C0
80
00
40
40
40
40
40
40
ENDCHAR
STARTCHAR uni1F37
ENCODING 7991
SWIDTH 215 0
DWIDTH 2 0
BBX 2 10 0 0
BITMAP
C0
C0
40
00
40
40
40
40
40
40
ENDCHAR
STARTCHAR uni1F38
ENCODING 7992
SWIDTH 376 0
DWIDTH 4 0
BBX 2 8 1 0
BITMAP
40
C0
40
40
40
40
40
40
ENDCHAR
STARTCHAR uni1F39
ENCODING 7993
SWIDTH 375 0
DWIDTH 4 0
BBX 2 8 1 0
BITMAP
C0
40
40
40
40
40
40
40
ENDCHAR
STARTCHAR uni1F3A
ENCODING 7994
SWIDTH 590 0
DWIDTH 6 0
BBX 4 8 1 0
BITMAP
50
B0
10
10
10
10
10
10
ENDCHAR
STARTCHAR uni1F3B
ENCODING 7995
SWIDTH 545 0
DWIDTH 5 0
BBX 3 8 1 0
BITMAP
A0
A0
20
20
20
20
20
20
ENDCHAR
STARTCHAR uni1F3C
ENCODING 7996
SWIDTH 521 0
DWIDTH 5 0
BBX 3 8 1 0
BITMAP
E0
A0
20
20
20
20
20
20
ENDCHAR
STARTCHAR uni1F3D
ENCODING 7997
SWIDTH 541 0
DWIDTH 5 0
BBX 3 8 1 0
BITMAP
E0
A0
20
20
20
20
20
20
ENDCHAR
STARTCHAR uni1F3E
ENCODING 7998
SWIDTH 476 0
DWIDTH 5 0
BBX 3 9 1 0
BITMAP
A0
E0
A0
20
20
20
20
20
20
ENDCHAR
STARTCHAR uni1F3F
ENCODING 7999
SWIDTH 471 0
DWIDTH 5 0
BBX 3 9 1 0
BITMAP
A0
60
60
20
20
20
20
20
20
ENDCHAR
STARTCHAR uni1F40
ENCODING 8000
SWIDTH 579 0
DWIDTH 6 0
BBX 4 9 1 0
BITMAP
20
20
00
E0
90
90
90
90
F0
ENDCHAR
STARTCHAR uni1F41
ENCODING 8001
SWIDTH 579 0
DWIDTH 6 0
BBX 4 9 1 0
BITMAP
40
20
00
E0
90
90
90
90
F0
ENDCHAR
STARTCHAR uni1F42
ENCODING 8002
SWIDTH 579 0
DWIDTH 6 0
BBX 4 9 1 0
BITMAP
40
60
00
E0
90
90
90
90
F0
ENDCHAR
STARTCHAR uni1F43
ENCODING 8003
SWIDTH 579 0
DWIDTH 6 0
BBX 4 9 1 0
BITMAP
40
60
00
E0
90
90
90
90
F0
ENDCHAR
STARTCHAR uni1F44
ENCODING 8004
SWIDTH 579 0
DWIDTH 6 0
BBX 4 9 1 0
BITMAP
20
60
00
E0
90
90
90
90
F0
ENDCHAR
STARTCHAR uni1F45
ENCODING 8005
SWIDTH 579 0
DWIDTH 6 0
BBX 4 9 1 0
BITMAP
60
40
00
E0
90
90
90
90
F0
ENDCHAR
STARTCHAR uni1F48
ENCODING 8008
SWIDTH 812 0
DWIDTH 8 0
BBX 7 8 0 0
BITMAP
BC
C2
42
42
42
42
42
3C
ENDCHAR
STARTCHAR uni1F49
ENCODING 8009
SWIDTH 847 0
DWIDTH 8 0
BBX 7 8 1 0
BITMAP
B8
C4
82
82
82
82
44
38
ENDCHAR
STARTCHAR uni1F4A
ENCODING 8010
SWIDTH 1026 0
DWIDTH 10 0
BBX 9 8 0 0
BITMAP
4F00
A880
1080
1080
1080
1080
0880
0F00
ENDCHAR
STARTCHAR uni1F4B
ENCODING 8011
SWIDTH 959 0
DWIDTH 10 0
BBX 9 8 0 0
BITMAP
8F00
9100
2080
2080
2080
2080
1100
0F00
ENDCHAR
STARTCHAR uni1F4C
ENCODING 8012
SWIDTH 924 0
DWIDTH 9 0
BBX 8 8 0 0
BITMAP
DE
91
21
21
21
21
11
1E
ENDCHAR
STARTCHAR uni1F4D
ENCODING 8013
SWIDTH 936 0
DWIDTH 9 0
BBX 8 8 0 0
BITMAP
CE
91
21
21
21
21
11
0E
ENDCHAR
STARTCHAR uni1F50
ENCODING 8016
SWIDTH 588 0
DWIDTH 6 0
BBX 4 9 1 0
BITMAP
20
20
40
90
90
90
90
90
E0
ENDCHAR
STARTCHAR uni1F51
ENCODING 8017
SWIDTH 588 0
DWIDTH 6 0
BBX 4 9 1 0
BITMAP
40
40
20
90
90
90
90
90
E0
ENDCHAR
STARTCHAR uni1F52
ENCODING 8018
SWIDTH 588 0
DWIDTH 6 0
BBX 4 9 1 0
BITMAP
40
60
00
90
90
90
90
90
E0
ENDCHAR
STARTCHAR uni1F53
ENCODING 8019
SWIDTH 588 0
DWIDTH 6 0
BBX 4 9 1 0
BITMAP
40
40
20
90
90
90
90
90
E0
ENDCHAR
STARTCHAR uni1F54
ENCODING 8020
SWIDTH 588 0
DWIDTH 6 0
BBX 4 9 1 0
BITMAP
50
60
00
90
90
90
90
90
E0
ENDCHAR
STARTCHAR uni1F55
ENCODING 8021
SWIDTH 588 0
DWIDTH 6 0
BBX 4 9 1 0
BITMAP
A0
40
00
90
90
90
90
90
E0
ENDCHAR
STARTCHAR uni1F56
ENCODING 8022
SWIDTH 588 0
DWIDTH 6 0
BBX 4 10 1 0
BITMAP
60
A0
40
00
90
90
90
90
90
E0
ENDCHAR
STARTCHAR uni1F57
ENCODING 8023
SWIDTH 588 0
DWIDTH 6 0
BBX 4 10 1 0
BITMAP
60
A0
40
00
90
90
90
90
90
E0
ENDCHAR
STARTCHAR uni1F59
ENCODING 8025
SWIDTH 717 0
DWIDTH 7 0
BBX 6 8 1 0
BITMAP
84
C4
28
10
10
10
10
10
ENDCHAR
STARTCHAR uni1F5B
ENCODING 8027
SWIDTH 794 0
DWIDTH 8 0
BBX 8 8 0 0
BITMAP
A1
D2
14
0C
08
08
08
08
ENDCHAR
STARTCHAR uni1F5D
ENCODING 8029
SWIDTH 864 0
DWIDTH 9 0
BBX 8 8 0 0
BITMAP
D1
51
0A
04
04
04
04
04
ENDCHAR
STARTCHAR uni1F5F
ENCODING 8031
SWIDTH 841 0
DWIDTH 8 0
BBX 9 9 0 0
BITMAP
6000
D080
4900
0A00
0400
0400
0400
0400
0400
ENDCHAR
STARTCHAR uni1F60
ENCODING 8032
SWIDTH 690 0
DWIDTH 7 0
BBX 7 9 0 0
BITMAP
10
10
00
82
82
92
92
92
6C
ENDCHAR
STARTCHAR uni1F61
ENCODING 8033
SWIDTH 690 0
DWIDTH 7 0
BBX 7 9 0 0
BITMAP
10
10
00
82
82
92
92
92
6C
ENDCHAR
STARTCHAR uni1F62
ENCODING 8034
SWIDTH 690 0
DWIDTH 7 0
BBX 7 9 0 0
BITMAP
10
18
20
82
82
92
92
92
6C
ENDCHAR
STARTCHAR uni1F63
ENCODING 8035
SWIDTH 690 0
DWIDTH 7 0
BBX 7 9 0 0
BITMAP
20
30
00
82
82
92
92
92
6C
ENDCHAR
STARTCHAR uni1F64
ENCODING 8036
SWIDTH 690 0
DWIDTH 7 0
BBX 7 9 0 0
BITMAP
18
10
00
82
82
92
92
92
6C
ENDCHAR
STARTCHAR uni1F65
ENCODING 8037
SWIDTH 690 0
DWIDTH 7 0
BBX 7 9 0 0
BITMAP
28
30
00
82
82
92
92
92
6C
ENDCHAR
STARTCHAR uni1F66
ENCODING 8038
SWIDTH 690 0
DWIDTH 7 0
BBX 7 10 0 0
BITMAP
28
30
10
00
82
82
92
92
92
6C
ENDCHAR
STARTCHAR uni1F67
ENCODING 8039
SWIDTH 690 0
DWIDTH 7 0
BBX 7 10 0 0
BITMAP
28
30
10
00
82
82
92
92
92
6C
ENDCHAR
STARTCHAR uni1F68
ENCODING 8040
SWIDTH 780 0
DWIDTH 8 0
BBX 7 8 0 0
BITMAP
BC
C2
42
42
42
42
42
66
ENDCHAR
STARTCHAR uni1F69
ENCODING 8041
SWIDTH 796 0
DWIDTH 8 0
BBX 6 8 1 0
BITMAP
F8
84
84
84
84
84
44
EC
ENDCHAR
STARTCHAR uni1F6A
ENCODING 8042
SWIDTH 968 0
DWIDTH 10 0
BBX 9 8 0 0
BITMAP
8F00
D080
1080
1080
1080
1080
1080
1980
ENDCHAR
STARTCHAR uni1F6B
ENCODING 8043
SWIDTH 923 0
DWIDTH 9 0
BBX 8 8 0 0
BITMAP
8E
91
21
21
21
21
11
1B
ENDCHAR
STARTCHAR uni1F6C
ENCODING 8044
SWIDTH 933 0
DWIDTH 9 0
BBX 9 8 0 0
BITMAP
CE00
9100
2080
2080
2080
2080
1100
1B80
ENDCHAR
STARTCHAR uni1F6D
ENCODING 8045
SWIDTH 954 0
DWIDTH 10 0
BBX 8 8 1 0
BITMAP
DE
A1
21
41
41
21
22
37
ENDCHAR
STARTCHAR uni1F6E
ENCODING 8046
SWIDTH 854 0
DWIDTH 9 0
BBX 8 9 0 0
BITMAP
A0
DE
A1
21
41
41
21
22
37
ENDCHAR
STARTCHAR uni1F6F
ENCODING 8047
SWIDTH 849 0
DWIDTH 8 0
BBX 8 9 0 0
BITMAP
A0
DE
62
21
41
41
21
22
37
ENDCHAR
STARTCHAR uni1F70
ENCODING 8048
SWIDTH 629 0
DWIDTH 6 0
BBX 5 8 1 0
BITMAP
40
00
F8
90
88
88
90
F8
ENDCHAR
STARTCHAR uni1F71
ENCODING 8049
SWIDTH 629 0
DWIDTH 6 0
BBX 5 9 1 0
BITMAP
20
20
00
F8
90
88
88
90
F8
ENDCHAR
STARTCHAR uni1F72
ENCODING 8050
SWIDTH 529 0
DWIDTH 5 0
BBX 4 8 1 0
BITMAP
40
00
E0
80
40
80
90
E0
ENDCHAR
STARTCHAR uni1F73
ENCODING 8051
SWIDTH 529 0
DWIDTH 5 0
BBX 4 9 1 0
BITMAP
20
40
00
E0
80
40
80
90
E0
ENDCHAR
STARTCHAR uni1F74
ENCODING 8052
SWIDTH 568 0
DWIDTH 6 0
BBX 4 10 1 -2
BITMAP
40
00
E0
90
90
90
90
90
10
10
ENDCHAR
STARTCHAR uni1F75
ENCODING 8053
SWIDTH 568 0
DWIDTH 6 0
BBX 4 11 1 -2
BITMAP
20
20
00
E0
90
90
90
90
90
10
10
ENDCHAR
STARTCHAR uni1F76
ENCODING 8054
SWIDTH 215 0
DWIDTH 2 0
BBX 2 9 0 0
BITMAP
80
80
00
40
40
40
40
40
40
ENDCHAR
STARTCHAR uni1F77
ENCODING 8055
SWIDTH 215 0
DWIDTH 2 0
BBX 1 9 1 0
BITMAP
80
80
80
80
80
80
80
80
80
ENDCHAR
STARTCHAR uni1F78
ENCODING 8056
SWIDTH 579 0
DWIDTH 6 0
BBX 4 8 1 0
BITMAP
40
00
E0
90
90
90
90
F0
ENDCHAR
STARTCHAR uni1F79
ENCODING 8057
SWIDTH 579 0
DWIDTH 6 0
BBX 4 9 1 0
BITMAP
20
20
00
E0
90
90
90
90
F0
ENDCHAR
STARTCHAR uni1F7A
ENCODING 8058
SWIDTH 588 0
DWIDTH 6 0
BBX 4 9 1 0
BITMAP
80
40
00
90
90
90
90
90
E0
ENDCHAR
STARTCHAR uni1F7B
ENCODING 8059
SWIDTH 588 0
DWIDTH 6 0
BBX 4 9 1 0
BITMAP
20
20
00
90
90
90
90
90
E0
ENDCHAR
STARTCHAR uni1F7C
ENCODING 8060
SWIDTH 690 0
DWIDTH 7 0
BBX 7 9 0 0
BITMAP
20
10
00
82
82
92
92
92
6C
ENDCHAR
STARTCHAR uni1F7D
ENCODING 8061
SWIDTH 690 0
DWIDTH 7 0
BBX 7 9 0 0
BITMAP
08
10
00
82
82
92
92
92
6C
ENDCHAR
STARTCHAR uni1F80
ENCODING 8064
SWIDTH 629 0
DWIDTH 6 0
BBX 5 11 1 -2
BITMAP
20
20
00
F8
90
88
88
90
D8
20
20
ENDCHAR
STARTCHAR uni1F81
ENCODING 8065
SWIDTH 629 0
DWIDTH 6 0
BBX 5 11 1 -2
BITMAP
40
20
00
F8
90
88
88
90
D8
20
20
ENDCHAR
STARTCHAR uni1F82
ENCODING 8066
SWIDTH 629 0
DWIDTH 6 0
BBX 5 11 1 -2
BITMAP
20
60
00
F8
90
88
88
90
D8
20
20
ENDCHAR
STARTCHAR uni1F83
ENCODING 8067
SWIDTH 629 0
DWIDTH 6 0
BBX 5 11 1 -2
BITMAP
40
60
00
F8
90
88
88
90
D8
20
20
ENDCHAR
STARTCHAR uni1F84
ENCODING 8068
SWIDTH 629 0
DWIDTH 6 0
BBX 5 11 1 -2
BITMAP
20
60
00
F8
90
88
88
90
D8
20
20
ENDCHAR
STARTCHAR uni1F85
ENCODING 8069
SWIDTH 629 0
DWIDTH 6 0
BBX 5 11 1 -2
BITMAP
60
40
00
F8
90
88
88
90
D8
20
20
ENDCHAR
STARTCHAR uni1F86
ENCODING 8070
SWIDTH 629 0
DWIDTH 6 0
BBX 5 12 1 -2
BITMAP
50
A0
40
00
F8
90
88
88
90
D8
20
20
ENDCHAR
STARTCHAR uni1F87
ENCODING 8071
SWIDTH 629 0
DWIDTH 6 0
BBX 5 12 1 -2
BITMAP
60
A0
40
00
F8
90
88
88
90
D8
20
20
ENDCHAR
STARTCHAR uni1F88
ENCODING 8072
SWIDTH 616 0
DWIDTH 6 0
BBX 6 10 0 -2
BITMAP
60
70
30
48
78
48
84
84
10
10
ENDCHAR
STARTCHAR uni1F89
ENCODING 8073
SWIDTH 616 0
DWIDTH 6 0
BBX 6 10 0 -2
BITMAP
60
30
30
48
78
48
84
84
10
10
ENDCHAR
STARTCHAR uni1F8A
ENCODING 8074
SWIDTH 616 0
DWIDTH 6 0
BBX 6 10 0 -2
BITMAP
E0
B0
30
48
78
48
84
84
10
10
ENDCHAR
STARTCHAR uni1F8B
ENCODING 8075
SWIDTH 616 0
DWIDTH 6 0
BBX 6 10 0 -2
BITMAP
E0
B0
30
48
78
48
84
84
10
10
ENDCHAR
STARTCHAR uni1F8C
ENCODING 8076
SWIDTH 616 0
DWIDTH 6 0
BBX 7 10 -1 -2
BITMAP
70
D8
18
24
3C
24
42
42
08
08
ENDCHAR
STARTCHAR uni1F8D
ENCODING 8077
SWIDTH 616 0
DWIDTH 6 0
BBX 6 10 0 -2
BITMAP
E0
B0
30
48
78
48
84
84
10
10
ENDCHAR
STARTCHAR uni1F8E
ENCODING 8078
SWIDTH 616 0
DWIDTH 6 0
BBX 6 12 0 -2
BITMAP
A0
A0
60
30
30
48
78
48
84
84
10
10
ENDCHAR
STARTCHAR uni1F8F
ENCODING 8079
SWIDTH 616 0
DWIDTH 6 0
BBX 6 12 0 -2
BITMAP
A0
A0
60
30
30
48
78
48
84
84
10
10
ENDCHAR
STARTCHAR uni1F90
ENCODING 8080
SWIDTH 568 0
DWIDTH 6 0
BBX 4 11 1 -2
BITMAP
20
40
00
E0
90
90
90
90
90
90
90
ENDCHAR
STARTCHAR uni1F91
ENCODING 8081
SWIDTH 568 0
DWIDTH 6 0
BBX 4 11 1 -2
BITMAP
40
20
00
E0
90
90
90
90
90
90
90
ENDCHAR
STARTCHAR uni1F92
ENCODING 8082
SWIDTH 568 0
DWIDTH 6 0
BBX 4 11 1 -2
BITMAP
40
60
00
E0
90
90
90
90
90
90
90
ENDCHAR
STARTCHAR uni1F93
ENCODING 8083
SWIDTH 568 0
DWIDTH 6 0
BBX 4 11 1 -2
BITMAP
40
60
00
E0
90
90
90
90
90
90
90
ENDCHAR
STARTCHAR uni1F94
ENCODING 8084
SWIDTH 568 0
DWIDTH 6 0
BBX 4 11 1 -2
BITMAP
60
60
00
E0
90
90
90
90
90
90
90
ENDCHAR
STARTCHAR uni1F95
ENCODING 8085
SWIDTH 568 0
DWIDTH 6 0
BBX 4 11 1 -2
BITMAP
A0
40
00
E0
90
90
90
90
90
90
90
ENDCHAR
STARTCHAR uni1F96
ENCODING 8086
SWIDTH 568 0
DWIDTH 6 0
BBX 4 12 1 -2
BITMAP
60
A0
40
00
E0
90
90
90
90
90
90
90
ENDCHAR
STARTCHAR uni1F97
ENCODING 8087
SWIDTH 568 0
DWIDTH 6 0
BBX 4 12 1 -2
BITMAP
60
A0
40
00
E0
90
90
90
90
90
90
90
ENDCHAR
STARTCHAR uni1F98
ENCODING 8088
SWIDTH 830 0
DWIDTH 8 0
BBX 7 10 0 -2
BITMAP
42
A2
22
3E
22
22
22
22
08
08
ENDCHAR
STARTCHAR uni1F99
ENCODING 8089
SWIDTH 877 0
DWIDTH 9 0
BBX 7 10 1 -2
BITMAP
C2
C2
42
3E
42
42
42
42
08
08
ENDCHAR
STARTCHAR uni1F9A
ENCODING 8090
SWIDTH 1092 0
DWIDTH 11 0
BBX 9 10 1 -2
BITMAP
5080
B080
1080
0F80
1080
1080
1080
1080
0200
0200
ENDCHAR
STARTCHAR uni1F9B
ENCODING 8091
SWIDTH 1048 0
DWIDTH 10 0
BBX 8 10 1 -2
BITMAP
91
91
11
1F
11
11
11
11
04
04
ENDCHAR
STARTCHAR uni1F9C
ENCODING 8092
SWIDTH 1024 0
DWIDTH 10 0
BBX 8 10 1 -2
BITMAP
D1
91
11
1F
11
11
11
11
04
04
ENDCHAR
STARTCHAR uni1F9D
ENCODING 8093
SWIDTH 1044 0
DWIDTH 10 0
BBX 8 10 1 -2
BITMAP
D1
91
11
1F
11
11
11
11
04
04
ENDCHAR
STARTCHAR uni1F9E
ENCODING 8094
SWIDTH 978 0
DWIDTH 10 0
BBX 8 12 1 -2
BITMAP
A0
A0
E1
21
21
1F
21
21
21
21
04
04
ENDCHAR
STARTCHAR uni1F9F
ENCODING 8095
SWIDTH 974 0
DWIDTH 10 0
BBX 8 12 1 -2
BITMAP
A0
A0
61
21
21
1F
21
21
21
21
04
04
ENDCHAR
STARTCHAR uni1FA0
ENCODING 8096
SWIDTH 690 0
DWIDTH 7 0
BBX 7 11 0 -2
BITMAP
10
10
00
82
82
92
92
92
6C
10
10
ENDCHAR
STARTCHAR uni1FA1
ENCODING 8097
SWIDTH 690 0
DWIDTH 7 0
BBX 7 11 0 -2
BITMAP
10
10
00
82
82
92
92
92
6C
10
10
ENDCHAR
STARTCHAR uni1FA2
ENCODING 8098
SWIDTH 690 0
DWIDTH 7 0
BBX 7 11 0 -2
BITMAP
10
28
00
82
82
92
92
92
6C
10
10
ENDCHAR
STARTCHAR uni1FA3
ENCODING 8099
SWIDTH 690 0
DWIDTH 7 0
BBX 7 11 0 -2
BITMAP
10
28
00
82
82
92
92
92
6C
10
10
ENDCHAR
STARTCHAR uni1FA4
ENCODING 8100
SWIDTH 690 0
DWIDTH 7 0
BBX 7 11 0 -2
BITMAP
18
10
00
82
82
92
92
92
6C
10
10
ENDCHAR
STARTCHAR uni1FA5
ENCODING 8101
SWIDTH 690 0
DWIDTH 7 0
BBX 7 11 0 -2
BITMAP
28
30
00
82
82
92
92
92
6C
10
10
ENDCHAR
STARTCHAR uni1FA6
ENCODING 8102
SWIDTH 690 0
DWIDTH 7 0
BBX 7 12 0 -2
BITMAP
28
30
10
00
82
82
92
92
92
6C
10
10
ENDCHAR
STARTCHAR uni1FA7
ENCODING 8103
SWIDTH 690 0
DWIDTH 7 0
BBX 7 12 0 -2
BITMAP
28
30
10
00
82
82
92
92
92
6C
10
10
ENDCHAR
STARTCHAR uni1FA8
ENCODING 8104
SWIDTH 780 0
DWIDTH 8 0
BBX 7 10 0 -2
BITMAP
BC
C2
42
42
42
42
42
66
08
08
ENDCHAR
STARTCHAR uni1FA9
ENCODING 8105
SWIDTH 796 0
DWIDTH 8 0
BBX 6 10 1 -2
BITMAP
F8
84
84
84
84
84
44
EC
10
10
ENDCHAR
STARTCHAR uni1FAA
ENCODING 8106
SWIDTH 968 0
DWIDTH 10 0
BBX 9 10 0 -2
BITMAP
4F00
D080
1080
1080
1080
1080
1080
1980
0400
0600
ENDCHAR
STARTCHAR uni1FAB
ENCODING 8107
SWIDTH 923 0
DWIDTH 9 0
BBX 8 10 0 -2
BITMAP
8E
91
21
21
21
21
11
1B
04
04
ENDCHAR
STARTCHAR uni1FAC
ENCODING 8108
SWIDTH 933 0
DWIDTH 9 0
BBX 9 10 0 -2
BITMAP
CE00
9100
2080
2080
2080
2080
1100
1B80
0400
0400
ENDCHAR
STARTCHAR uni1FAD
ENCODING 8109
SWIDTH 954 0
DWIDTH 10 0
BBX 9 10 0 -2
BITMAP
CF00
9080
1080
2080
2080
1080
1100
1B80
0400
0400
ENDCHAR
STARTCHAR uni1FAE
ENCODING 8110
SWIDTH 854 0
DWIDTH 9 0
BBX 8 12 0 -2
BITMAP
A0
C0
9E
A1
21
41
41
21
22
37
08
08
ENDCHAR
STARTCHAR uni1FAF
ENCODING 8111
SWIDTH 849 0
DWIDTH 8 0
BBX 8 12 0 -2
BITMAP
A0
C0
9E
62
21
41
41
21
22
37
08
08
ENDCHAR
STARTCHAR uni1FB0
ENCODING 8112
SWIDTH 629 0
DWIDTH 6 0
BBX 5 8 1 0
BITMAP
60
00
F8
90
88
88
90
F8
ENDCHAR
STARTCHAR uni1FB1
ENCODING 8113
SWIDTH 629 0
DWIDTH 6 0
BBX 5 8 1 0
BITMAP
60
00
F8
90
88
88
90
F8
ENDCHAR
STARTCHAR uni1FB2
ENCODING 8114
SWIDTH 629 0
DWIDTH 6 0
BBX 5 10 1 -2
BITMAP
40
00
F8
90
88
88
90
D8
20
20
ENDCHAR
STARTCHAR uni1FB3
ENCODING 8115
SWIDTH 629 0
DWIDTH 6 0
BBX 5 8 1 -2
BITMAP
F8
90
88
88
90
D8
20
20
ENDCHAR
STARTCHAR uni1FB4
ENCODING 8116
SWIDTH 629 0
DWIDTH 6 0
BBX 5 11 1 -2
BITMAP
20
20
00
F8
90
88
88
90
D8
20
20
ENDCHAR
STARTCHAR uni1FB6
ENCODING 8118
SWIDTH 629 0
DWIDTH 6 0
BBX 5 9 1 0
BITMAP
D0
20
00
F8
90
88
88
90
F8
ENDCHAR
STARTCHAR uni1FB7
ENCODING 8119
SWIDTH 629 0
DWIDTH 6 0
BBX 5 11 1 -2
BITMAP
D0
20
00
F8
90
88
88
90
D8
20
20
ENDCHAR
STARTCHAR uni1FB8
ENCODING 8120
SWIDTH 616 0
DWIDTH 6 0
BBX 6 10 0 0
BITMAP
30
00
20
30
30
48
48
78
84
84
ENDCHAR
STARTCHAR uni1FB9
ENCODING 8121
SWIDTH 616 0
DWIDTH 6 0
BBX 6 10 0 0
BITMAP
30
00
20
30
30
48
48
78
84
84
ENDCHAR
STARTCHAR uni1FBA
ENCODING 8122
SWIDTH 616 0
DWIDTH 6 0
BBX 6 8 0 0
BITMAP
A0
70
30
48
48
78
84
84
ENDCHAR
STARTCHAR uni1FBB
ENCODING 8123
SWIDTH 616 0
DWIDTH 6 0
BBX 6 9 0 0
BITMAP
20
60
30
30
48
48
78
84
84
ENDCHAR
STARTCHAR uni1FBC
ENCODING 8124
SWIDTH 616 0
DWIDTH 6 0
BBX 6 10 0 -2
BITMAP
20
30
30
48
78
48
84
84
10
10
ENDCHAR
STARTCHAR uni1FBD
ENCODING 8125
SWIDTH 316 0
DWIDTH 3 0
BBX 1 2 1 6
BITMAP
80
80
ENDCHAR
STARTCHAR uni1FBE
ENCODING 8126
SWIDTH 237 0
DWIDTH 2 0
BBX 1 2 1 -3
BITMAP
80
80
ENDCHAR
STARTCHAR uni1FBF
ENCODING 8127
SWIDTH 316 0
DWIDTH 3 0
BBX 1 2 1 6
BITMAP
80
80
ENDCHAR
STARTCHAR uni1FC0
ENCODING 8128
SWIDTH 417 0
DWIDTH 4 0
BBX 4 2 0 7
BITMAP
50
A0
ENDCHAR
STARTCHAR uni1FC1
ENCODING 8129
SWIDTH 361 0
DWIDTH 4 0
BBX 2 2 1 7
BITMAP
C0
C0
ENDCHAR
STARTCHAR uni1FC2
ENCODING 8130
SWIDTH 568 0
DWIDTH 6 0
BBX 4 10 1 -2
BITMAP
40
00
E0
90
90
90
90
90
90
90
ENDCHAR
STARTCHAR uni1FC3
ENCODING 8131
SWIDTH 568 0
DWIDTH 6 0
BBX 4 8 1 -2
BITMAP
E0
90
90
90
90
90
90
90
ENDCHAR
STARTCHAR uni1FC4
ENCODING 8132
SWIDTH 568 0
DWIDTH 6 0
BBX 4 11 1 -2
BITMAP
20
20
00
E0
90
90
90
90
90
90
90
ENDCHAR
STARTCHAR uni1FC6
ENCODING 8134
SWIDTH 568 0
DWIDTH 6 0
BBX 4 11 1 -2
BITMAP
D0
20
00
E0
90
90
90
90
90
10
10
ENDCHAR
STARTCHAR uni1FC7
ENCODING 8135
SWIDTH 568 0
DWIDTH 6 0
BBX 4 11 1 -2
BITMAP
D0
20
00
E0
90
90
90
90
90
90
90
ENDCHAR
STARTCHAR uni1FC8
ENCODING 8136
SWIDTH 738 0
DWIDTH 7 0
BBX 7 8 0 0
BITMAP
BE
60
20
20
1C
20
20
3E
ENDCHAR
STARTCHAR uni1FC9
ENCODING 8137
SWIDTH 693 0
DWIDTH 7 0
BBX 5 9 1 0
BITMAP
80
F8
40
40
40
78
40
40
78
ENDCHAR
STARTCHAR uni1FCA
ENCODING 8138
SWIDTH 940 0
DWIDTH 9 0
BBX 7 8 1 0
BITMAP
A2
A2
22
22
3E
22
22
22
ENDCHAR
STARTCHAR uni1FCB
ENCODING 8139
SWIDTH 894 0
DWIDTH 9 0
BBX 7 9 1 0
BITMAP
40
42
C2
42
42
3E
42
42
42
ENDCHAR
STARTCHAR uni1FCC
ENCODING 8140
SWIDTH 735 0
DWIDTH 7 0
BBX 5 10 1 -2
BITMAP
88
88
88
F8
88
88
88
88
20
20
ENDCHAR
STARTCHAR uni1FCD
ENCODING 8141
SWIDTH 393 0
DWIDTH 4 0
BBX 2 2 1 6
BITMAP
80
C0
ENDCHAR
STARTCHAR uni1FCE
ENCODING 8142
SWIDTH 329 0
DWIDTH 3 0
BBX 2 2 1 6
BITMAP
C0
80
ENDCHAR
STARTCHAR uni1FCF
ENCODING 8143
SWIDTH 321 0
DWIDTH 3 0
BBX 3 3 0 6
BITMAP
60
A0
40
ENDCHAR
STARTCHAR uni1FD0
ENCODING 8144
SWIDTH 215 0
DWIDTH 2 0
BBX 2 8 0 0
BITMAP
C0
00
40
40
40
40
40
40
ENDCHAR
STARTCHAR uni1FD1
ENCODING 8145
SWIDTH 215 0
DWIDTH 2 0
BBX 2 8 0 0
BITMAP
C0
00
40
40
40
40
40
40
ENDCHAR
STARTCHAR uni1FD2
ENCODING 8146
SWIDTH 215 0
DWIDTH 2 0
BBX 2 9 0 0
BITMAP
80
C0
00
40
40
40
40
40
40
ENDCHAR
STARTCHAR uni1FD3
ENCODING 8147
SWIDTH 215 0
DWIDTH 2 0
BBX 2 9 0 0
BITMAP
40
C0
00
40
40
40
40
40
40
ENDCHAR
STARTCHAR uni1FD6
ENCODING 8150
SWIDTH 215 0
DWIDTH 2 0
BBX 4 9 -1 0
BITMAP
50
A0
00
20
20
20
20
20
20
ENDCHAR
STARTCHAR uni1FD7
ENCODING 8151
SWIDTH 215 0
DWIDTH 2 0
BBX 2 10 0 0
BITMAP
C0
C0
C0
00
40
40
40
40
40
40
ENDCHAR
STARTCHAR uni1FD8
ENCODING 8152
SWIDTH 250 0
DWIDTH 3 0
BBX 2 10 0 0
BITMAP
C0
00
40
40
40
40
40
40
40
40
ENDCHAR
STARTCHAR uni1FD9
ENCODING 8153
SWIDTH 250 0
DWIDTH 3 0
BBX 2 10 0 0
BITMAP
C0
00
40
40
40
40
40
40
40
40
ENDCHAR
STARTCHAR uni1FDA
ENCODING 8154
SWIDTH 438 0
DWIDTH 4 0
BBX 2 8 1 0
BITMAP
C0
C0
40
40
40
40
40
40
ENDCHAR
STARTCHAR uni1FDB
ENCODING 8155
SWIDTH 392 0
DWIDTH 4 0
BBX 2 9 1 0
BITMAP
40
C0
40
40
40
40
40
40
40
ENDCHAR
STARTCHAR uni1FDD
ENCODING 8157
SWIDTH 343 0
DWIDTH 3 0
BBX 2 2 1 6
BITMAP
80
C0
ENDCHAR
STARTCHAR uni1FDE
ENCODING 8158
SWIDTH 325 0
DWIDTH 3 0
BBX 2 2 1 6
BITMAP
C0
80
ENDCHAR
STARTCHAR uni1FDF
ENCODING 8159
SWIDTH 321 0
DWIDTH 3 0
BBX 3 3 0 6
BITMAP
60
A0
40
ENDCHAR
STARTCHAR uni1FE0
ENCODING 8160
SWIDTH 588 0
DWIDTH 6 0
BBX 4 8 1 0
BITMAP
60
00
90
90
90
90
90
E0
ENDCHAR
STARTCHAR uni1FE1
ENCODING 8161
SWIDTH 588 0
DWIDTH 6 0
BBX 4 8 1 0
BITMAP
60
00
90
90
90
90
90
E0
ENDCHAR
STARTCHAR uni1FE2
ENCODING 8162
SWIDTH 588 0
DWIDTH 6 0
BBX 4 9 1 0
BITMAP
40
60
00
90
90
90
90
90
E0
ENDCHAR
STARTCHAR uni1FE3
ENCODING 8163
SWIDTH 588 0
DWIDTH 6 0
BBX 4 9 1 0
BITMAP
20
60
00
90
90
90
90
90
E0
ENDCHAR
STARTCHAR uni1FE4
ENCODING 8164
SWIDTH 550 0
DWIDTH 6 0
BBX 4 11 1 -2
BITMAP
20
40
00
E0
90
90
90
90
E0
80
80
ENDCHAR
STARTCHAR uni1FE5
ENCODING 8165
SWIDTH 550 0
DWIDTH 6 0
BBX 4 11 1 -2
BITMAP
40
40
00
E0
90
90
90
90
E0
80
80
ENDCHAR
STARTCHAR uni1FE6
ENCODING 8166
SWIDTH 588 0
DWIDTH 6 0
BBX 4 9 1 0
BITMAP
D0
20
00
90
90
90
90
90
E0
ENDCHAR
STARTCHAR uni1FE7
ENCODING 8167
SWIDTH 588 0
DWIDTH 6 0
BBX 4 10 1 0
BITMAP
60
A0
A0
00
90
90
90
90
90
E0
ENDCHAR
STARTCHAR uni1FE8
ENCODING 8168
SWIDTH 613 0
DWIDTH 6 0
BBX 6 10 0 0
BITMAP
30
00
84
48
28
30
10
10
10
10
ENDCHAR
STARTCHAR uni1FE9
ENCODING 8169
SWIDTH 613 0
DWIDTH 6 0
BBX 6 10 0 0
BITMAP
30
00
84
48
28
30
10
10
10
10
ENDCHAR
STARTCHAR uni1FEA
ENCODING 8170
SWIDTH 743 0
DWIDTH 7 0
BBX 8 8 0 0
BITMAP
A1
52
14
08
08
08
08
08
ENDCHAR
STARTCHAR uni1FEB
ENCODING 8171
SWIDTH 731 0
DWIDTH 7 0
BBX 6 9 1 0
BITMAP
80
C4
24
28
10
10
10
10
10
ENDCHAR
STARTCHAR uni1FEC
ENCODING 8172
SWIDTH 715 0
DWIDTH 7 0
BBX 5 8 1 0
BITMAP
F8
88
48
48
70
40
40
40
ENDCHAR
STARTCHAR uni1FED
ENCODING 8173
SWIDTH 295 0
DWIDTH 3 0
BBX 1 2 1 7
BITMAP
80
80
ENDCHAR
STARTCHAR uni1FEE
ENCODING 8174
SWIDTH 295 0
DWIDTH 3 0
BBX 1 2 1 7
BITMAP
80
80
ENDCHAR
STARTCHAR uni1FEF
ENCODING 8175
SWIDTH 203 0
DWIDTH 2 0
BBX 2 1 0 6
BITMAP
C0
ENDCHAR
STARTCHAR uni1FF2
ENCODING 8178
SWIDTH 690 0
DWIDTH 7 0
BBX 7 11 0 -2
BITMAP
20
10
00
82
82
92
92
92
6C
10
10
ENDCHAR
STARTCHAR uni1FF3
ENCODING 8179
SWIDTH 690 0
DWIDTH 7 0
BBX 7 8 0 -2
BITMAP
82
82
92
92
92
6C
10
10
ENDCHAR
STARTCHAR uni1FF4
ENCODING 8180
SWIDTH 690 0
DWIDTH 7 0
BBX 7 11 0 -2
BITMAP
08
10
00
82
82
92
92
92
6C
10
10
ENDCHAR
STARTCHAR uni1FF6
ENCODING 8182
SWIDTH 690 0
DWIDTH 7 0
BBX 7 9 0 0
BITMAP
38
00
00
82
82
92
92
92
6C
ENDCHAR
STARTCHAR uni1FF7
ENCODING 8183
SWIDTH 690 0
DWIDTH 7 0
BBX 7 11 0 -2
BITMAP
38
00
00
82
82
92
92
92
6C
10
10
ENDCHAR
STARTCHAR uni1FF8
ENCODING 8184
SWIDTH 874 0
DWIDTH 9 0
BBX 8 8 0 0
BITMAP
9E
A1
21
41
41
21
21
1E
ENDCHAR
STARTCHAR uni1FF9
ENCODING 8185
SWIDTH 796 0
DWIDTH 8 0
BBX 6 9 1 0
BITMAP
80
F8
84
84
84
84
84
84
78
ENDCHAR
STARTCHAR uni1FFA
ENCODING 8186
SWIDTH 816 0
DWIDTH 8 0
BBX 7 8 0 0
BITMAP
9C
A2
42
42
42
42
22
76
ENDCHAR
STARTCHAR uni1FFB
ENCODING 8187
SWIDTH 805 0
DWIDTH 8 0
BBX 7 9 0 0
BITMAP
40
9C
22
42
42
42
42
22
76
ENDCHAR
STARTCHAR uni1FFC
ENCODING 8188
SWIDTH 744 0
DWIDTH 7 0
BBX 6 10 1 -2
BITMAP
78
88
84
84
84
84
88
DC
20
20
ENDCHAR
STARTCHAR uni1FFD
ENCODING 8189
SWIDTH 237 0
DWIDTH 2 0
BBX 1 2 1 7
BITMAP
80
80
ENDCHAR
STARTCHAR uni1FFE
ENCODING 8190
SWIDTH 234 0
DWIDTH 2 0
BBX 1 2 1 6
BITMAP
80
80
ENDCHAR
STARTCHAR uni2000
ENCODING 8192
SWIDTH 519 0
DWIDTH 5 0
BBX 1 1 0 0
BITMAP
00
ENDCHAR
STARTCHAR uni2001
ENCODING 8193
SWIDTH 1049 0
DWIDTH 10 0
BBX 1 1 0 0
BITMAP
00
ENDCHAR
STARTCHAR uni2002
ENCODING 8194
SWIDTH 500 0
DWIDTH 5 0
BBX 1 1 0 0
BITMAP
00
ENDCHAR
STARTCHAR uni2003
ENCODING 8195
SWIDTH 1000 0
DWIDTH 10 0
BBX 1 1 0 0
BITMAP
00
ENDCHAR
STARTCHAR uni2004
ENCODING 8196
SWIDTH 333 0
DWIDTH 3 0
BBX 1 1 0 0
BITMAP
00
ENDCHAR
STARTCHAR uni2005
ENCODING 8197
SWIDTH 250 0
DWIDTH 3 0
BBX 1 1 0 0
BITMAP
00
ENDCHAR
STARTCHAR uni2006
ENCODING 8198
SWIDTH 166 0
DWIDTH 2 0
BBX 1 1 0 0
BITMAP
00
ENDCHAR
STARTCHAR uni2007
ENCODING 8199
SWIDTH 590 0
DWIDTH 6 0
BBX 1 1 0 0
BITMAP
00
ENDCHAR
STARTCHAR uni2008
ENCODING 8200
SWIDTH 252 0
DWIDTH 3 0
BBX 1 1 0 0
BITMAP
00
ENDCHAR
STARTCHAR uni2009
ENCODING 8201
SWIDTH 181 0
DWIDTH 2 0
BBX 1 1 0 0
BITMAP
00
ENDCHAR
STARTCHAR uni200A
ENCODING 8202
SWIDTH 90 0
DWIDTH 1 0
BBX 1 1 0 0
BITMAP
00
ENDCHAR
STARTCHAR uni200B
ENCODING 8203
SWIDTH 0 0
DWIDTH 0 0
BBX 1 1 0 0
BITMAP
00
ENDCHAR
STARTCHAR uni2010
ENCODING 8208
SWIDTH 251 0
DWIDTH 3 0
BBX 2 1 0 3
BITMAP
C0
ENDCHAR
STARTCHAR uni2011
ENCODING 8209
SWIDTH 251 0
DWIDTH 3 0
BBX 2 1 0 3
BITMAP
C0
ENDCHAR
STARTCHAR uni2012
ENCODING 8210
SWIDTH 590 0
DWIDTH 6 0
BBX 6 1 0 3
BITMAP
FC
ENDCHAR
STARTCHAR uni2013
ENCODING 8211
SWIDTH 500 0
DWIDTH 5 0
BBX 5 1 0 3
BITMAP
F8
ENDCHAR
STARTCHAR uni2014
ENCODING 8212
SWIDTH 1000 0
DWIDTH 10 0
BBX 10 1 0 3
BITMAP
FFC0
ENDCHAR
STARTCHAR uni2015
ENCODING 8213
SWIDTH 1000 0
DWIDTH 10 0
BBX 10 1 0 3
BITMAP
FFC0
ENDCHAR
STARTCHAR uni2016
ENCODING 8214
SWIDTH 211 0
DWIDTH 2 0
BBX 1 12 1 -2
BITMAP
80
80
80
80
80
80
80
80
80
80
80
80
ENDCHAR
STARTCHAR uni2017
ENCODING 8215
SWIDTH 425 0
DWIDTH 4 0
BBX 4 2 0 -2
BITMAP
F0
F0
ENDCHAR
STARTCHAR uni2018
ENCODING 8216
SWIDTH 171 0
DWIDTH 2 0
BBX 2 3 0 5
BITMAP
40
80
80
ENDCHAR
STARTCHAR uni2019
ENCODING 8217
SWIDTH 156 0
DWIDTH 2 0
BBX 1 3 0 5
BITMAP
80
80
80
ENDCHAR
STARTCHAR uni201A
ENCODING 8218
SWIDTH 171 0
DWIDTH 2 0
BBX 1 3 0 -2
BITMAP
80
80
80
ENDCHAR
STARTCHAR uni201B
ENCODING 8219
SWIDTH 196 0
DWIDTH 2 0
BBX 1 3 1 5
BITMAP
80
80
80
ENDCHAR
STARTCHAR uni201C
ENCODING 8220
SWIDTH 308 0
DWIDTH 3 0
BBX 3 3 0 5
BITMAP
60
A0
C0
ENDCHAR
STARTCHAR uni201D
ENCODING 8221
SWIDTH 308 0
DWIDTH 3 0
BBX 3 3 0 5
BITMAP
60
A0
C0
ENDCHAR
STARTCHAR uni201E
ENCODING 8222
SWIDTH 308 0
DWIDTH 3 0
BBX 3 3 0 -2
BITMAP
60
A0
C0
ENDCHAR
STARTCHAR uni201F
ENCODING 8223
SWIDTH 453 0
DWIDTH 5 0
BBX 3 3 1 5
BITMAP
A0
A0
A0
ENDCHAR
STARTCHAR uni2020
ENCODING 8224
SWIDTH 669 0
DWIDTH 7 0
BBX 5 8 1 0
BITMAP
20
20
F8
20
20
20
20
20
ENDCHAR
STARTCHAR uni2021
ENCODING 8225
SWIDTH 504 0
DWIDTH 5 0
BBX 5 10 0 -2
BITMAP
20
20
F8
20
20
20
20
F8
20
20
ENDCHAR
STARTCHAR uni2022
ENCODING 8226
SWIDTH 562 0
DWIDTH 6 0
BBX 2 2 2 2
BITMAP
C0
C0
ENDCHAR
STARTCHAR uni2023
ENCODING 8227
SWIDTH 562 0
DWIDTH 6 0
BBX 2 2 2 2
BITMAP
80
C0
ENDCHAR
STARTCHAR uni2024
ENCODING 8228
SWIDTH 238 0
DWIDTH 2 0
BBX 1 1 1 0
BITMAP
80
ENDCHAR
STARTCHAR uni2025
ENCODING 8229
SWIDTH 548 0
DWIDTH 5 0
BBX 3 1 1 0
BITMAP
A0
ENDCHAR
STARTCHAR uni2026
ENCODING 8230
SWIDTH 843 0
DWIDTH 8 0
BBX 6 1 1 0
BITMAP
94
ENDCHAR
STARTCHAR uni2027
ENCODING 8231
SWIDTH 238 0
DWIDTH 2 0
BBX 1 1 1 3
BITMAP
80
ENDCHAR
STARTCHAR uni202F
ENCODING 8239
SWIDTH 181 0
DWIDTH 2 0
BBX 1 1 0 0
BITMAP
00
ENDCHAR
STARTCHAR uni2030
ENCODING 8240
SWIDTH 1045 0
DWIDTH 10 0
BBX 9 8 1 0
BITMAP
C400
A800
B000
D000
2D00
5280
5280
9F80
ENDCHAR
STARTCHAR uni2031
ENCODING 8241
SWIDTH 1318 0
DWIDTH 13 0
BBX 11 8 1 0
BITMAP
C400
A800
B000
D000
2D60
52A0
52A0
9FE0
ENDCHAR
STARTCHAR uni2032
ENCODING 8242
SWIDTH 161 0
DWIDTH 2 0
BBX 1 2 0 6
BITMAP
80
80
ENDCHAR
STARTCHAR uni2033
ENCODING 8243
SWIDTH 278 0
DWIDTH 3 0
BBX 1 2 1 6
BITMAP
80
80
ENDCHAR
STARTCHAR uni2034
ENCODING 8244
SWIDTH 394 0
DWIDTH 4 0
BBX 2 2 1 6
BITMAP
C0
C0
ENDCHAR
STARTCHAR uni2035
ENCODING 8245
SWIDTH 161 0
DWIDTH 2 0
BBX 1 2 0 6
BITMAP
80
80
ENDCHAR
STARTCHAR uni2036
ENCODING 8246
SWIDTH 278 0
DWIDTH 3 0
BBX 1 2 1 6
BITMAP
80
80
ENDCHAR
STARTCHAR uni2037
ENCODING 8247
SWIDTH 394 0
DWIDTH 4 0
BBX 2 2 1 6
BITMAP
C0
C0
ENDCHAR
STARTCHAR uni2038
ENCODING 8248
SWIDTH 341 0
DWIDTH 3 0
BBX 3 3 0 -2
BITMAP
40
40
A0
ENDCHAR
STARTCHAR uni2039
ENCODING 8249
SWIDTH 343 0
DWIDTH 3 0
BBX 2 5 1 1
BITMAP
40
80
80
80
40
ENDCHAR
STARTCHAR uni203A
ENCODING 8250
SWIDTH 343 0
DWIDTH 3 0
BBX 2 5 1 1
BITMAP
80
80
40
40
80
ENDCHAR
STARTCHAR uni203B
ENCODING 8251
SWIDTH 437 0
DWIDTH 4 0
BBX 4 5 0 1
BITMAP
B0
50
B0
50
B0
ENDCHAR
STARTCHAR uni203C
ENCODING 8252
SWIDTH 522 0
DWIDTH 5 0
BBX 3 8 1 0
BITMAP
A0
A0
A0
A0
A0
A0
00
A0
ENDCHAR
STARTCHAR uni203D
ENCODING 8253
SWIDTH 478 0
DWIDTH 5 0
BBX 4 8 0 0
BITMAP
70
B0
30
20
20
20
00
20
ENDCHAR
STARTCHAR uni203E
ENCODING 8254
SWIDTH 585 0
DWIDTH 6 0
BBX 4 1 1 9
BITMAP
F0
ENDCHAR
STARTCHAR uni203F
ENCODING 8255
SWIDTH 773 0
DWIDTH 8 0
BBX 7 2 0 -2
BITMAP
82
7C
ENDCHAR
STARTCHAR uni2040
ENCODING 8256
SWIDTH 773 0
DWIDTH 8 0
BBX 7 2 0 6
BITMAP
7C
82
ENDCHAR
STARTCHAR uni2041
ENCODING 8257
SWIDTH 419 0
DWIDTH 4 0
BBX 3 5 1 -2
BITMAP
20
20
40
80
E0
ENDCHAR
STARTCHAR uni2042
ENCODING 8258
SWIDTH 675 0
DWIDTH 7 0
BBX 5 6 1 1
BITMAP
50
70
50
D8
D8
D8
ENDCHAR
STARTCHAR uni2043
ENCODING 8259
SWIDTH 562 0
DWIDTH 6 0
BBX 2 1 2 3
BITMAP
C0
ENDCHAR
STARTCHAR uni2044
ENCODING 8260
SWIDTH 272 0
DWIDTH 3 0
BBX 5 8 -1 0
BITMAP
08
10
10
20
20
40
80
80
ENDCHAR
STARTCHAR uni2045
ENCODING 8261
SWIDTH 315 0
DWIDTH 3 0
BBX 2 11 1 -2
BITMAP
C0
80
80
80
80
C0
80
80
80
80
C0
ENDCHAR
STARTCHAR uni2046
ENCODING 8262
SWIDTH 315 0
DWIDTH 3 0
BBX 1 11 1 -2
BITMAP
80
80
80
80
80
80
80
80
80
80
80
ENDCHAR
STARTCHAR uni2047
ENCODING 8263
SWIDTH 957 0
DWIDTH 10 0
BBX 9 8 0 0
BITMAP
7380
8C80
1080
1100
2100
2200
0000
2200
ENDCHAR
STARTCHAR uni2048
ENCODING 8264
SWIDTH 740 0
DWIDTH 7 0
BBX 6 8 0 0
BITMAP
74
8C
14
14
24
24
00
24
ENDCHAR
STARTCHAR uni2049
ENCODING 8265
SWIDTH 740 0
DWIDTH 7 0
BBX 6 8 1 0
BITMAP
BC
A4
84
88
90
90
00
90
ENDCHAR
STARTCHAR uni204A
ENCODING 8266
SWIDTH 337 0
DWIDTH 3 0
BBX 3 8 0 -2
BITMAP
E0
20
20
20
20
20
20
20
ENDCHAR
STARTCHAR uni204B
ENCODING 8267
SWIDTH 556 0
DWIDTH 6 0
BBX 4 8 1 0
BITMAP
E0
F0
F0
F0
E0
80
80
80
ENDCHAR
STARTCHAR uni204C
ENCODING 8268
SWIDTH 622 0
DWIDTH 6 0
BBX 4 5 1 1
BITMAP
30
70
F0
70
30
ENDCHAR
STARTCHAR uni204D
ENCODING 8269
SWIDTH 622 0
DWIDTH 6 0
BBX 4 5 1 1
BITMAP
E0
F0
F0
F0
E0
ENDCHAR
STARTCHAR uni204E
ENCODING 8270
SWIDTH 500 0
DWIDTH 5 0
BBX 3 5 1 -2
BITMAP
40
40
E0
E0
40
ENDCHAR
STARTCHAR uni204F
ENCODING 8271
SWIDTH 258 0
DWIDTH 3 0
BBX 1 7 1 -2
BITMAP
80
00
00
00
80
80
80
ENDCHAR
STARTCHAR uni2050
ENCODING 8272
SWIDTH 772 0
DWIDTH 8 0
BBX 7 10 0 -2
BITMAP
7C
82
00
00
00
00
00
00
82
7C
ENDCHAR
STARTCHAR uni2051
ENCODING 8273
SWIDTH 499 0
DWIDTH 5 0
BBX 4 10 1 -2
BITMAP
20
B0
60
B0
00
00
B0
60
B0
20
ENDCHAR
STARTCHAR uni2052
ENCODING 8274
SWIDTH 338 0
DWIDTH 3 0
BBX 3 9 0 -1
BITMAP
20
20
A0
40
40
40
A0
80
80
ENDCHAR
STARTCHAR uni2053
ENCODING 8275
SWIDTH 679 0
DWIDTH 7 0
BBX 5 2 1 3
BITMAP
C0
38
ENDCHAR
STARTCHAR uni2054
ENCODING 8276
SWIDTH 773 0
DWIDTH 8 0
BBX 7 2 0 -2
BITMAP
3C
C2
ENDCHAR
STARTCHAR uni2055
ENCODING 8277
SWIDTH 348 0
DWIDTH 3 0
BBX 3 3 0 1
BITMAP
E0
E0
E0
ENDCHAR
STARTCHAR uni2056
ENCODING 8278
SWIDTH 356 0
DWIDTH 4 0
BBX 4 5 0 0
BITMAP
10
00
80
00
10
ENDCHAR
STARTCHAR uni2057
ENCODING 8279
SWIDTH 511 0
DWIDTH 5 0
BBX 4 2 1 6
BITMAP
B0
A0
ENDCHAR
STARTCHAR uni2058
ENCODING 8280
SWIDTH 653 0
DWIDTH 7 0
BBX 5 5 1 0
BITMAP
20
00
88
00
20
ENDCHAR
STARTCHAR uni2059
ENCODING 8281
SWIDTH 488 0
DWIDTH 5 0
BBX 4 5 1 0
BITMAP
90
00
40
00
10
ENDCHAR
STARTCHAR uni205A
ENCODING 8282
SWIDTH 145 0
DWIDTH 1 0
BBX 1 1 0 6
BITMAP
80
ENDCHAR
STARTCHAR uni205B
ENCODING 8283
SWIDTH 491 0
DWIDTH 5 0
BBX 4 7 1 0
BITMAP
40
00
00
90
00
00
40
ENDCHAR
STARTCHAR uni205C
ENCODING 8284
SWIDTH 545 0
DWIDTH 5 0
BBX 5 6 0 0
BITMAP
20
A8
20
F8
A8
20
ENDCHAR
STARTCHAR uni205D
ENCODING 8285
SWIDTH 97 0
DWIDTH 1 0
BBX 1 7 0 0
BITMAP
80
00
00
80
00
00
80
ENDCHAR
STARTCHAR uni205E
ENCODING 8286
SWIDTH 145 0
DWIDTH 1 0
BBX 1 5 0 2
BITMAP
80
00
80
00
80
ENDCHAR
STARTCHAR uni205F
ENCODING 8287
SWIDTH 265 0
DWIDTH 3 0
BBX 1 1 0 0
BITMAP
00
ENDCHAR
STARTCHAR uni2070
ENCODING 8304
SWIDTH 397 0
DWIDTH 4 0
BBX 4 5 0 4
BITMAP
60
90
90
90
60
ENDCHAR
STARTCHAR uni2071
ENCODING 8305
SWIDTH 149 0
DWIDTH 1 0
BBX 1 4 0 4
BITMAP
80
80
80
80
ENDCHAR
STARTCHAR uni2074
ENCODING 8308
SWIDTH 400 0
DWIDTH 4 0
BBX 4 5 0 4
BITMAP
20
60
60
F0
20
ENDCHAR
STARTCHAR uni2075
ENCODING 8309
SWIDTH 384 0
DWIDTH 4 0
BBX 2 5 1 4
BITMAP
C0
80
C0
40
C0
ENDCHAR
STARTCHAR uni2076
ENCODING 8310
SWIDTH 393 0
DWIDTH 4 0
BBX 2 5 1 4
BITMAP
C0
C0
C0
C0
C0
ENDCHAR
STARTCHAR uni2077
ENCODING 8311
SWIDTH 367 0
DWIDTH 4 0
BBX 3 5 0 4
BITMAP
E0
20
20
40
40
ENDCHAR
STARTCHAR uni2078
ENCODING 8312
SWIDTH 401 0
DWIDTH 4 0
BBX 4 5 0 4
BITMAP
60
90
60
90
F0
ENDCHAR
STARTCHAR uni2079
ENCODING 8313
SWIDTH 393 0
DWIDTH 4 0
BBX 2 5 1 4
BITMAP
80
C0
C0
C0
C0
ENDCHAR
STARTCHAR uni207A
ENCODING 8314
SWIDTH 423 0
DWIDTH 4 0
BBX 3 3 1 4
BITMAP
40
E0
40
ENDCHAR
STARTCHAR uni207B
ENCODING 8315
SWIDTH 423 0
DWIDTH 4 0
BBX 3 1 1 5
BITMAP
E0
ENDCHAR
STARTCHAR uni207C
ENCODING 8316
SWIDTH 423 0
DWIDTH 4 0
BBX 2 2 1 5
BITMAP
C0
C0
ENDCHAR
STARTCHAR uni207D
ENCODING 8317
SWIDTH 215 0
DWIDTH 2 0
BBX 1 7 1 3
BITMAP
80
80
80
80
80
80
80
ENDCHAR
STARTCHAR uni207E
ENCODING 8318
SWIDTH 215 0
DWIDTH 2 0
BBX 1 7 0 3
BITMAP
80
80
80
80
80
80
80
ENDCHAR
STARTCHAR uni207F
ENCODING 8319
SWIDTH 380 0
DWIDTH 4 0
BBX 2 4 1 4
BITMAP
C0
C0
C0
C0
ENDCHAR
STARTCHAR uni2080
ENCODING 8320
SWIDTH 397 0
DWIDTH 4 0
BBX 4 6 0 -2
BITMAP
60
90
90
90
90
60
ENDCHAR
STARTCHAR uni2081
ENCODING 8321
SWIDTH 272 0
DWIDTH 3 0
BBX 2 6 0 -2
BITMAP
40
C0
40
40
40
40
ENDCHAR
STARTCHAR uni2082
ENCODING 8322
SWIDTH 411 0
DWIDTH 4 0
BBX 3 6 1 -2
BITMAP
C0
A0
20
40
80
E0
ENDCHAR
STARTCHAR uni2083
ENCODING 8323
SWIDTH 410 0
DWIDTH 4 0
BBX 3 6 1 -2
BITMAP
C0
A0
20
40
20
E0
ENDCHAR
STARTCHAR uni2084
ENCODING 8324
SWIDTH 400 0
DWIDTH 4 0
BBX 4 6 0 -2
BITMAP
20
20
60
60
F0
20
ENDCHAR
STARTCHAR uni2085
ENCODING 8325
SWIDTH 384 0
DWIDTH 4 0
BBX 2 6 1 -2
BITMAP
C0
80
C0
40
40
C0
ENDCHAR
STARTCHAR uni2086
ENCODING 8326
SWIDTH 393 0
DWIDTH 4 0
BBX 2 6 1 -2
BITMAP
C0
C0
C0
C0
C0
C0
ENDCHAR
STARTCHAR uni2087
ENCODING 8327
SWIDTH 367 0
DWIDTH 4 0
BBX 3 6 0 -2
BITMAP
E0
20
20
40
40
40
ENDCHAR
STARTCHAR uni2088
ENCODING 8328
SWIDTH 401 0
DWIDTH 4 0
BBX 4 6 0 -2
BITMAP
60
90
90
60
90
F0
ENDCHAR
STARTCHAR uni2089
ENCODING 8329
SWIDTH 393 0
DWIDTH 4 0
BBX 2 6 1 -2
BITMAP
80
C0
C0
C0
C0
C0
ENDCHAR
STARTCHAR uni208A
ENCODING 8330
SWIDTH 423 0
DWIDTH 4 0
BBX 3 3 1 -1
BITMAP
40
E0
40
ENDCHAR
STARTCHAR uni208B
ENCODING 8331
SWIDTH 423 0
DWIDTH 4 0
BBX 3 1 1 0
BITMAP
E0
ENDCHAR
STARTCHAR uni208C
ENCODING 8332
SWIDTH 423 0
DWIDTH 4 0
BBX 2 2 1 -1
BITMAP
C0
C0
ENDCHAR
STARTCHAR uni208D
ENCODING 8333
SWIDTH 215 0
DWIDTH 2 0
BBX 1 8 1 -2
BITMAP
80
80
80
80
80
80
80
80
ENDCHAR
STARTCHAR uni208E
ENCODING 8334
SWIDTH 215 0
DWIDTH 2 0
BBX 1 8 0 -2
BITMAP
80
80
80
80
80
80
80
80
ENDCHAR
STARTCHAR uni2090
ENCODING 8336
SWIDTH 363 0
DWIDTH 4 0
BBX 3 5 0 -2
BITMAP
E0
20
60
A0
E0
ENDCHAR
STARTCHAR uni2091
ENCODING 8337
SWIDTH 384 0
DWIDTH 4 0
BBX 3 5 0 -2
BITMAP
60
A0
E0
80
60
ENDCHAR
STARTCHAR uni2092
ENCODING 8338
SWIDTH 387 0
DWIDTH 4 0
BBX 3 5 0 -2
BITMAP
60
A0
A0
A0
60
ENDCHAR
STARTCHAR uni2093
ENCODING 8339
SWIDTH 335 0
DWIDTH 3 0
BBX 3 5 0 -2
BITMAP
A0
40
40
40
A0
ENDCHAR
STARTCHAR uni2094
ENCODING 8340
SWIDTH 408 0
DWIDTH 4 0
BBX 4 6 0 -3
BITMAP
60
90
10
F0
90
60
ENDCHAR
STARTCHAR uni2095
ENCODING 8341
SWIDTH 382 0
DWIDTH 4 0
BBX 2 6 1 -2
BITMAP
80
C0
C0
C0
C0
C0
ENDCHAR
STARTCHAR uni2096
ENCODING 8342
SWIDTH 330 0
DWIDTH 3 0
BBX 2 6 1 -2
BITMAP
80
C0
80
80
80
C0
ENDCHAR
STARTCHAR uni2097
ENCODING 8343
SWIDTH 146 0
DWIDTH 1 0
BBX 1 6 0 -2
BITMAP
80
80
80
80
80
80
ENDCHAR
STARTCHAR uni2098
ENCODING 8344
SWIDTH 561 0
DWIDTH 6 0
BBX 4 5 1 -2
BITMAP
F0
D0
D0
D0
D0
ENDCHAR
ENDFONT
